SplineFontDB: 3.0
FontName: Bristol-Medium
FullName: Bristol Medium
FamilyName: Bristol
Weight: Medium
Copyright: Copyright (c) 2011 by Pablo Impallari. www.impallari.com Igino Marini. www.ikern.com. All rights reserved.
Version: 1.005
DefaultBaseFilename: Bristol-500
ItalicAngle: 0
UnderlinePosition: -100
UnderlineWidth: 50
Ascent: 800
Descent: 200
InvalidEm: 0
sfntRevision: 0x00010148
LayerCount: 2
Layer: 0 1 "Back" 1
Layer: 1 1 "Fore" 0
XUID: [1021 805 -1179658985 12359231]
FSType: 0
OS2Version: 3
OS2_WeightWidthSlopeOnly: 0
OS2_UseTypoMetrics: 1
CreationTime: 1321581158
ModificationTime: 1431276045
PfmFamily: 17
TTFWeight: 500
TTFWidth: 5
LineGap: 0
VLineGap: 0
Panose: 2 11 8 3 5 2 2 2 0 4
OS2TypoAscent: 965
OS2TypoAOffset: 0
OS2TypoDescent: -250
OS2TypoDOffset: 0
OS2TypoLinegap: 0
OS2WinAscent: 965
OS2WinAOffset: 0
OS2WinDescent: 250
OS2WinDOffset: 0
HheadAscent: 965
HheadAOffset: 0
HheadDescent: -250
HheadDOffset: 0
OS2SubXSize: 700
OS2SubYSize: 650
OS2SubXOff: 0
OS2SubYOff: 140
OS2SupXSize: 700
OS2SupYSize: 650
OS2SupXOff: 0
OS2SupYOff: 477
OS2StrikeYSize: 50
OS2StrikeYPos: 250
OS2CapHeight: 700
OS2XHeight: 493
OS2FamilyClass: 2050
OS2Vendor: 'PYRS'
OS2CodePages: 00000001.00000000
OS2UnicodeRanges: 8000002f.0000000b.00000000.00000000
Lookup: 1 0 0 "'aalt' Access All Alternates in Latin lookup 0" { "'aalt' Access All Alternates in Latin lookup 0 subtable"  } ['aalt' ('latn' <'dflt' > ) ]
Lookup: 1 0 0 "'smcp' Lowercase to Small Capitals in Latin lookup 1" { "'smcp' Lowercase to Small Capitals in Latin lookup 1 subtable"  } ['smcp' ('latn' <'dflt' > ) ]
Lookup: 258 0 0 "'kern' Horizontal Kerning in Latin lookup 0" { "'kern' Horizontal Kerning in Latin lookup 0 per glyph data 0"  "'kern' Horizontal Kerning in Latin lookup 0 kerning class 1"  } ['kern' ('latn' <'dflt' > ) ]
MarkAttachClasses: 1
DEI: 91125
KernClass2: 89+ 76 "'kern' Horizontal Kerning in Latin lookup 0 kerning class 1"
 8 quotedbl
 9 ampersand
 9 parenleft
 5 comma
 20 hyphen endash emdash

StartChar: .notdef
Encoding: 65536 -1 0
Width: 250
Flags: W
LayerCount: 2
Back
Fore
SplineSet
168 247 m 1,0,-1
 66 247 l 1,1,-1
 66 363 l 1,2,-1
 168 363 l 1,3,-1
 168 247 l 1,0,-1
EndSplineSet
EndChar

StartChar: exclam
Encoding: 33 33 2
Width: 244
Flags: W
LayerCount: 2
Back
Fore
SplineSet
184 750 m 1,0,-1
 157 200 l 1,1,-1
 87 200 l 1,2,-1
 60 750 l 1,3,-1
 184 750 l 1,0,-1
171 0 m 1,4,-1
 73 0 l 1,5,-1
 73 99 l 1,6,-1
 171 99 l 1,7,-1
 171 0 l 1,4,-1
EndSplineSet
EndChar

StartChar: quotedbl
Encoding: 34 34 3
Width: 401
Flags: W
LayerCount: 2
Back
Fore
SplineSet
362 750 m 1,0,-1
 342 450 l 1,1,-1
 279 450 l 1,2,-1
 259 750 l 1,3,-1
 362 750 l 1,0,-1
143 750 m 1,4,-1
 123 450 l 1,5,-1
 59 450 l 1,6,-1
 39 750 l 1,7,-1
 143 750 l 1,4,-1
EndSplineSet
EndChar

StartChar: numbersign
Encoding: 35 35 4
Width: 705
Flags: W
LayerCount: 2
Back
Fore
SplineSet
643 420 m 1,0,-1
 528 420 l 1,1,-1
 482 303 l 1,2,-1
 609 303 l 1,3,-1
 569 214 l 1,4,-1
 449 214 l 1,5,-1
 363 -11 l 1,6,-1
 278 -11 l 1,7,-1
 363 214 l 1,8,-1
 237 214 l 1,9,-1
 151 -11 l 1,10,-1
 66 -11 l 1,11,-1
 151 214 l 1,12,-1
 32 214 l 1,13,-1
 71 303 l 1,14,-1
 185 303 l 1,15,-1
 230 420 l 1,16,-1
 106 420 l 1,17,-1
 136 509 l 1,18,-1
 264 509 l 1,19,-1
 338 700 l 1,20,-1
 423 700 l 1,21,-1
 349 509 l 1,22,-1
 475 509 l 1,23,-1
 550 700 l 1,24,-1
 635 700 l 1,25,-1
 561 509 l 1,26,-1
 674 509 l 1,27,-1
 643 420 l 1,0,-1
316 420 m 1,28,-1
 270 303 l 1,29,-1
 396 303 l 1,30,-1
 442 420 l 1,31,-1
 316 420 l 1,28,-1
EndSplineSet
EndChar

StartChar: dollar
Encoding: 36 36 5
Width: 516
Flags: W
LayerCount: 2
Back
Fore
SplineSet
289 81 m 1,0,-1
 305 -32 l 1,1,-1
 209 -32 l 1,2,-1
 226 80 l 1,3,4
 108 86 108 86 50 119 c 1,5,-1
 64 234 l 1,6,7
 136 174 136 174 251 174 c 0,8,9
 358 174 358 174 358 234 c 0,10,11
 358 262 358 262 334.5 279.5 c 128,-1,12
 311 297 311 297 276 309.5 c 128,-1,13
 241 322 241 322 199.5 334 c 128,-1,14
 158 346 158 346 123 363 c 128,-1,15
 88 380 88 380 64.5 406.5 c 128,-1,16
 41 433 41 433 41 475 c 0,17,18
 41 503 41 503 52 529.5 c 128,-1,19
 63 556 63 556 85.5 577.5 c 128,-1,20
 108 599 108 599 143 613 c 128,-1,21
 178 627 178 627 226 632 c 1,22,-1
 209 748 l 1,23,-1
 305 748 l 1,24,-1
 289 632 l 1,25,26
 393 626 393 626 449 594 c 1,27,-1
 440 492 l 1,28,29
 335 542 335 542 271 542 c 0,30,31
 153 542 153 542 153 487 c 0,32,33
 153 460 153 460 177.5 445 c 128,-1,34
 202 430 202 430 238 418.5 c 128,-1,35
 274 407 274 407 317 395.5 c 128,-1,36
 360 384 360 384 396 365 c 128,-1,37
 432 346 432 346 456.5 315.5 c 128,-1,38
 481 285 481 285 481 235 c 0,39,40
 481 212 481 212 473.5 187 c 128,-1,41
 466 162 466 162 445 140.5 c 128,-1,42
 424 119 424 119 386.5 102.5 c 128,-1,43
 349 86 349 86 289 81 c 1,0,-1
EndSplineSet
EndChar

StartChar: percent
Encoding: 37 37 6
Width: 839
Flags: W
LayerCount: 2
Back
Fore
SplineSet
241 -12 m 1,0,-1
 156 -12 l 1,1,-1
 577 700 l 1,2,-1
 661 700 l 1,3,-1
 241 -12 l 1,0,-1
181 334 m 0,4,5
 115 334 115 334 74.5 381.5 c 128,-1,6
 34 429 34 429 34 515 c 0,7,8
 34 560 34 560 46 595.5 c 128,-1,9
 58 631 58 631 79 655 c 128,-1,10
 100 679 100 679 127.5 692 c 128,-1,11
 155 705 155 705 186 705 c 256,12,13
 217 705 217 705 244 693 c 128,-1,14
 271 681 271 681 291 657.5 c 128,-1,15
 311 634 311 634 322 600.5 c 128,-1,16
 333 567 333 567 333 524 c 0,17,18
 333 433 333 433 290.5 383.5 c 128,-1,19
 248 334 248 334 181 334 c 0,4,5
185 646 m 0,20,21
 150 646 150 646 124 612 c 128,-1,22
 98 578 98 578 98 515 c 0,23,24
 98 456 98 456 122.5 424.5 c 128,-1,25
 147 393 147 393 182 393 c 0,26,27
 220 393 220 393 244.5 427 c 128,-1,28
 269 461 269 461 269 524 c 0,29,30
 269 582 269 582 243.5 614 c 128,-1,31
 218 646 218 646 185 646 c 0,20,21
653 -12 m 0,32,33
 587 -12 587 -12 546.5 35.5 c 128,-1,34
 506 83 506 83 506 169 c 0,35,36
 506 214 506 214 518 249.5 c 128,-1,37
 530 285 530 285 551 309 c 128,-1,38
 572 333 572 333 599.5 346 c 128,-1,39
 627 359 627 359 658 359 c 256,40,41
 689 359 689 359 716 347 c 128,-1,42
 743 335 743 335 763 311.5 c 128,-1,43
 783 288 783 288 794 254.5 c 128,-1,44
 805 221 805 221 805 178 c 0,45,46
 805 87 805 87 762.5 37.5 c 128,-1,47
 720 -12 720 -12 653 -12 c 0,32,33
657 300 m 0,48,49
 622 300 622 300 596 266 c 128,-1,50
 570 232 570 232 570 169 c 0,51,52
 570 110 570 110 594.5 78.5 c 128,-1,53
 619 47 619 47 654 47 c 0,54,55
 692 47 692 47 716.5 81 c 128,-1,56
 741 115 741 115 741 178 c 0,57,58
 741 236 741 236 715.5 268 c 128,-1,59
 690 300 690 300 657 300 c 0,48,49
EndSplineSet
EndChar

StartChar: ampersand
Encoding: 38 38 7
Width: 615
Flags: W
LayerCount: 2
Back
Fore
SplineSet
603 0 m 1,0,-1
 493 0 l 1,1,-1
 454 42 l 1,2,3
 375 -23 375 -23 267 -23 c 0,4,5
 208 -23 208 -23 164.5 -9 c 128,-1,6
 121 5 121 5 92 29.5 c 128,-1,7
 63 54 63 54 48.5 88.5 c 128,-1,8
 34 123 34 123 34 164 c 0,9,10
 34 277 34 277 159 366 c 1,11,12
 84 457 84 457 84 537 c 0,13,14
 84 575 84 575 100 606 c 128,-1,15
 116 637 116 637 143 658.5 c 128,-1,16
 170 680 170 680 206 691.5 c 128,-1,17
 242 703 242 703 281 703 c 0,18,19
 354 703 354 703 392 667 c 128,-1,20
 430 631 430 631 430 571 c 0,21,22
 430 507 430 507 387.5 458 c 128,-1,23
 345 409 345 409 273 361 c 1,24,-1
 446 178 l 1,25,26
 472 225 472 225 475 351 c 1,27,-1
 569 351 l 1,28,29
 566 204 566 204 510 107 c 1,30,-1
 603 0 l 1,0,-1
271 624 m 0,31,32
 232 624 232 624 205.5 600.5 c 128,-1,33
 179 577 179 577 179 534 c 0,34,35
 179 476 179 476 231 415 c 1,36,-1
 278 452 l 2,37,38
 312 478 312 478 327.5 502.5 c 128,-1,39
 343 527 343 527 343 555 c 0,40,41
 343 589 343 589 324 606.5 c 128,-1,42
 305 624 305 624 271 624 c 0,31,32
402 105 m 1,43,-1
 206 309 l 1,44,45
 135 252 135 252 135 172 c 0,46,47
 135 121 135 121 168.5 87.5 c 128,-1,48
 202 54 202 54 274 54 c 0,49,50
 355 54 355 54 402 105 c 1,43,-1
EndSplineSet
EndChar

StartChar: quotesingle
Encoding: 39 39 8
Width: 188
Flags: W
LayerCount: 2
Back
Fore
SplineSet
148 750 m 1,0,-1
 129 450 l 1,1,-1
 59 450 l 1,2,-1
 40 750 l 1,3,-1
 148 750 l 1,0,-1
EndSplineSet
EndChar

StartChar: parenleft
Encoding: 40 40 9
Width: 266
Flags: W
LayerCount: 2
Back
Fore
SplineSet
242 -136 m 1,0,-1
 151 -136 l 1,1,2
 123 -91 123 -91 102 -44.5 c 128,-1,3
 81 2 81 2 67.5 55 c 128,-1,4
 54 108 54 108 47 170 c 128,-1,5
 40 232 40 232 40 307 c 0,6,7
 40 383 40 383 47 445 c 128,-1,8
 54 507 54 507 68 560 c 128,-1,9
 82 613 82 613 102.5 659 c 128,-1,10
 123 705 123 705 151 750 c 1,11,-1
 242 750 l 1,12,13
 122 550 122 550 122 307 c 0,14,15
 122 63 122 63 242 -136 c 1,0,-1
EndSplineSet
EndChar

StartChar: parenright
Encoding: 41 41 10
Width: 266
Flags: W
LayerCount: 2
Back
Fore
SplineSet
115 -136 m 1,0,-1
 24 -136 l 1,1,2
 144 63 144 63 144 307 c 0,3,4
 144 550 144 550 24 750 c 1,5,-1
 115 750 l 1,6,7
 143 705 143 705 163.5 659 c 128,-1,8
 184 613 184 613 198 560 c 128,-1,9
 212 507 212 507 219 445 c 128,-1,10
 226 383 226 383 226 307 c 0,11,12
 226 232 226 232 219 170 c 128,-1,13
 212 108 212 108 198.5 55 c 128,-1,14
 185 2 185 2 164 -44.5 c 128,-1,15
 143 -91 143 -91 115 -136 c 1,0,-1
EndSplineSet
EndChar

StartChar: asterisk
Encoding: 42 42 11
Width: 432
Flags: W
LayerCount: 2
Back
Fore
SplineSet
312 422 m 1,0,-1
 217 556 l 1,1,-1
 122 419 l 1,2,-1
 77 462 l 1,3,-1
 190 570 l 1,4,-1
 32 631 l 1,5,-1
 63 686 l 1,6,-1
 206 593 l 1,7,-1
 185 749 l 1,8,-1
 248 749 l 1,9,-1
 225 593 l 1,10,-1
 369 686 l 1,11,-1
 400 630 l 1,12,-1
 242 572 l 1,13,-1
 357 465 l 1,14,-1
 312 422 l 1,0,-1
EndSplineSet
EndChar

StartChar: plus
Encoding: 43 43 12
Width: 461
Flags: W
LayerCount: 2
Back
Fore
SplineSet
415 235 m 1,0,-1
 272 235 l 1,1,-1
 272 102 l 1,2,-1
 188 102 l 1,3,-1
 188 235 l 1,4,-1
 45 235 l 1,5,-1
 45 324 l 1,6,-1
 188 324 l 1,7,-1
 188 452 l 1,8,-1
 272 452 l 1,9,-1
 272 324 l 1,10,-1
 415 324 l 1,11,-1
 415 235 l 1,0,-1
EndSplineSet
EndChar

StartChar: comma
Encoding: 44 44 13
Width: 221
Flags: W
LayerCount: 2
Back
Fore
SplineSet
165 0 m 1,0,-1
 80 -109 l 1,1,-1
 56 -96 l 1,2,-1
 90 -9 l 1,3,-1
 57 0 l 1,4,-1
 57 101 l 1,5,-1
 165 101 l 1,6,-1
 165 0 l 1,0,-1
EndSplineSet
EndChar

StartChar: hyphen
Encoding: 45 45 14
Width: 422
Flags: W
LayerCount: 2
Back
Fore
SplineSet
366 235 m 1,0,-1
 56 235 l 1,1,-1
 56 324 l 1,2,-1
 366 324 l 1,3,-1
 366 235 l 1,0,-1
EndSplineSet
EndChar

StartChar: period
Encoding: 46 46 15
Width: 214
Flags: W
LayerCount: 2
Back
Fore
SplineSet
158 0 m 1,0,-1
 56 0 l 1,1,-1
 56 101 l 1,2,-1
 158 101 l 1,3,-1
 158 0 l 1,0,-1
EndSplineSet
EndChar

StartChar: slash
Encoding: 47 47 16
Width: 536
Flags: W
LayerCount: 2
Back
Fore
SplineSet
503 700 m 1,0,-1
 129 -85 l 1,1,-1
 18 -85 l 1,2,-1
 391 700 l 1,3,-1
 503 700 l 1,0,-1
EndSplineSet
EndChar

StartChar: zero
Encoding: 48 48 17
Width: 710
Flags: W
LayerCount: 2
Back
Fore
SplineSet
349 -14 m 0,0,1
 284 -14 284 -14 231 11 c 128,-1,2
 178 36 178 36 140 82.5 c 128,-1,3
 102 129 102 129 81.5 193.5 c 128,-1,4
 61 258 61 258 61 338 c 0,5,6
 61 421 61 421 84 490.5 c 128,-1,7
 107 560 107 560 147.5 609.5 c 128,-1,8
 188 659 188 659 243 686.5 c 128,-1,9
 298 714 298 714 361 714 c 0,10,11
 423 714 423 714 475.5 687.5 c 128,-1,12
 528 661 528 661 566.5 613.5 c 128,-1,13
 605 566 605 566 627 500.5 c 128,-1,14
 649 435 649 435 649 357 c 0,15,16
 649 273 649 273 627.5 204.5 c 128,-1,17
 606 136 606 136 566.5 87.5 c 128,-1,18
 527 39 527 39 471.5 12.5 c 128,-1,19
 416 -14 416 -14 349 -14 c 0,0,1
359 619 m 0,20,21
 320 619 320 619 286 600 c 128,-1,22
 252 581 252 581 226.5 545 c 128,-1,23
 201 509 201 509 186 457 c 128,-1,24
 171 405 171 405 171 338 c 0,25,26
 171 211 171 211 220 146.5 c 128,-1,27
 269 82 269 82 351 82 c 0,28,29
 438 82 438 82 489.5 150.5 c 128,-1,30
 541 219 541 219 541 357 c 0,31,32
 541 420 541 420 526.5 468.5 c 128,-1,33
 512 517 512 517 487.5 550.5 c 128,-1,34
 463 584 463 584 429.5 601.5 c 128,-1,35
 396 619 396 619 359 619 c 0,20,21
EndSplineSet
EndChar

StartChar: one
Encoding: 49 49 18
Width: 359
Flags: W
LayerCount: 2
Back
Fore
SplineSet
260 0 m 1,0,-1
 151 0 l 1,1,-1
 151 548 l 1,2,3
 125 528 125 528 100 515 c 128,-1,4
 75 502 75 502 52 495 c 1,5,-1
 38 591 l 1,6,7
 57 597 57 597 78 608.5 c 128,-1,8
 99 620 99 620 118.5 634.5 c 128,-1,9
 138 649 138 649 154 666 c 128,-1,10
 170 683 170 683 179 700 c 1,11,-1
 260 700 l 1,12,-1
 260 0 l 1,0,-1
EndSplineSet
EndChar

StartChar: two
Encoding: 50 50 19
Width: 526
Flags: W
LayerCount: 2
Back
Fore
SplineSet
471 0 m 1,0,-1
 52 0 l 1,1,2
 113 87 113 87 158 154 c 128,-1,3
 203 221 203 221 235 272 c 128,-1,4
 267 323 267 323 287.5 359.5 c 128,-1,5
 308 396 308 396 319.5 424 c 128,-1,6
 331 452 331 452 335.5 472 c 128,-1,7
 340 492 340 492 340 510 c 0,8,9
 340 562 340 562 309.5 590.5 c 128,-1,10
 279 619 279 619 227 619 c 0,11,12
 138 619 138 619 64 521 c 1,13,-1
 51 616 l 1,14,15
 59 631 59 631 76.5 648 c 128,-1,16
 94 665 94 665 120 680 c 128,-1,17
 146 695 146 695 179 704.5 c 128,-1,18
 212 714 212 714 251 714 c 0,19,20
 306 714 306 714 343.5 696.5 c 128,-1,21
 381 679 381 679 403.5 651.5 c 128,-1,22
 426 624 426 624 435.5 590 c 128,-1,23
 445 556 445 556 445 523 c 0,24,25
 445 487 445 487 434 447 c 128,-1,26
 423 407 423 407 398.5 356.5 c 128,-1,27
 374 306 374 306 335 243 c 128,-1,28
 296 180 296 180 241 99 c 1,29,-1
 471 99 l 1,30,-1
 471 0 l 1,0,-1
EndSplineSet
EndChar

StartChar: three
Encoding: 51 51 20
Width: 545
Flags: W
LayerCount: 2
Back
Fore
SplineSet
228 -14 m 0,0,1
 199 -14 199 -14 168.5 -8.5 c 128,-1,2
 138 -3 138 -3 111.5 5.5 c 128,-1,3
 85 14 85 14 65.5 23 c 128,-1,4
 46 32 46 32 39 39 c 1,5,-1
 65 138 l 1,6,7
 150 85 150 85 227 85 c 0,8,9
 257 85 257 85 283.5 92 c 128,-1,10
 310 99 310 99 329.5 114 c 128,-1,11
 349 129 349 129 360 153 c 128,-1,12
 371 177 371 177 371 212 c 0,13,14
 371 240 371 240 363.5 263.5 c 128,-1,15
 356 287 356 287 338 304 c 128,-1,16
 320 321 320 321 291 330 c 128,-1,17
 262 339 262 339 219 339 c 2,18,-1
 140 339 l 1,19,-1
 150 423 l 1,20,-1
 190 423 l 2,21,22
 274 423 274 423 309.5 450.5 c 128,-1,23
 345 478 345 478 345 530 c 0,24,25
 345 620 345 620 232 620 c 0,26,27
 147 620 147 620 101 582 c 1,28,-1
 83 668 l 1,29,30
 100 685 100 685 142 699.5 c 128,-1,31
 184 714 184 714 244 714 c 0,32,33
 308 714 308 714 349.5 697 c 128,-1,34
 391 680 391 680 415 653 c 128,-1,35
 439 626 439 626 448.5 594 c 128,-1,36
 458 562 458 562 458 532 c 0,37,38
 458 447 458 447 375 388 c 1,39,40
 483 344 483 344 483 215 c 0,41,42
 483 160 483 160 462.5 117.5 c 128,-1,43
 442 75 442 75 407 45.5 c 128,-1,44
 372 16 372 16 325.5 1 c 128,-1,45
 279 -14 279 -14 228 -14 c 0,0,1
EndSplineSet
EndChar

StartChar: four
Encoding: 52 52 21
Width: 567
Flags: W
LayerCount: 2
Back
Fore
SplineSet
509 190 m 1,0,-1
 424 190 l 1,1,-1
 424 0 l 1,2,-1
 314 0 l 1,3,-1
 314 190 l 1,4,-1
 13 190 l 1,5,-1
 335 700 l 1,6,-1
 424 700 l 1,7,-1
 424 282 l 1,8,-1
 509 282 l 1,9,-1
 509 190 l 1,0,-1
314 282 m 1,10,-1
 314 521 l 1,11,-1
 170 282 l 1,12,-1
 314 282 l 1,10,-1
EndSplineSet
EndChar

StartChar: five
Encoding: 53 53 22
Width: 541
Flags: W
LayerCount: 2
Back
Fore
SplineSet
224 -14 m 0,0,1
 199 -14 199 -14 170.5 -9.5 c 128,-1,2
 142 -5 142 -5 117 2 c 128,-1,3
 92 9 92 9 73.5 17 c 128,-1,4
 55 25 55 25 51 31 c 1,5,-1
 76 129 l 1,6,7
 143 84 143 84 222 84 c 0,8,9
 254 84 254 84 282.5 94.5 c 128,-1,10
 311 105 311 105 332 124 c 128,-1,11
 353 143 353 143 365.5 170 c 128,-1,12
 378 197 378 197 378 230 c 0,13,14
 378 288 378 288 333 317.5 c 128,-1,15
 288 347 288 347 181 347 c 2,16,-1
 88 347 l 1,17,-1
 131 700 l 1,18,-1
 450 700 l 1,19,-1
 439 601 l 1,20,-1
 214 601 l 1,21,-1
 195 440 l 1,22,23
 351 439 351 439 420 389.5 c 128,-1,24
 489 340 489 340 489 234 c 0,25,26
 489 178 489 178 467.5 132.5 c 128,-1,27
 446 87 446 87 409.5 54.5 c 128,-1,28
 373 22 373 22 325 4 c 128,-1,29
 277 -14 277 -14 224 -14 c 0,0,1
EndSplineSet
EndChar

StartChar: six
Encoding: 54 54 23
Width: 566
Flags: W
LayerCount: 2
Back
Fore
SplineSet
280 -14 m 0,0,1
 230 -14 230 -14 190 1 c 128,-1,2
 150 16 150 16 121 47.5 c 128,-1,3
 92 79 92 79 76.5 128 c 128,-1,4
 61 177 61 177 61 244 c 0,5,6
 61 340 61 340 92.5 423.5 c 128,-1,7
 124 507 124 507 170 568.5 c 128,-1,8
 216 630 216 630 268 665 c 128,-1,9
 320 700 320 700 361 700 c 1,10,-1
 433 658 l 1,11,12
 400 647 400 647 361 623 c 128,-1,13
 322 599 322 599 286 563 c 128,-1,14
 250 527 250 527 221 477.5 c 128,-1,15
 192 428 192 428 179 366 c 1,16,17
 221 420 221 420 311 420 c 0,18,19
 356 420 356 420 395 407 c 128,-1,20
 434 394 434 394 462.5 368.5 c 128,-1,21
 491 343 491 343 507 305 c 128,-1,22
 523 267 523 267 523 218 c 0,23,24
 523 170 523 170 505.5 127.5 c 128,-1,25
 488 85 488 85 456 53.5 c 128,-1,26
 424 22 424 22 379 4 c 128,-1,27
 334 -14 334 -14 280 -14 c 0,0,1
303 331 m 0,28,29
 274 331 274 331 249.5 322 c 128,-1,30
 225 313 225 313 207 296 c 128,-1,31
 189 279 189 279 179 255.5 c 128,-1,32
 169 232 169 232 169 202 c 256,33,34
 169 172 169 172 179 149.5 c 128,-1,35
 189 127 189 127 205.5 111.5 c 128,-1,36
 222 96 222 96 244.5 88 c 128,-1,37
 267 80 267 80 292 80 c 0,38,39
 321 80 321 80 344.5 91 c 128,-1,40
 368 102 368 102 384.5 120.5 c 128,-1,41
 401 139 401 139 410 163.5 c 128,-1,42
 419 188 419 188 419 216 c 0,43,44
 419 239 419 239 412.5 260 c 128,-1,45
 406 281 406 281 391.5 296.5 c 128,-1,46
 377 312 377 312 355 321.5 c 128,-1,47
 333 331 333 331 303 331 c 0,28,29
EndSplineSet
EndChar

StartChar: seven
Encoding: 55 55 24
Width: 505
Flags: W
LayerCount: 2
Back
Fore
SplineSet
495 700 m 1,0,-1
 196 0 l 1,1,-1
 84 0 l 1,2,-1
 341 601 l 1,3,-1
 40 601 l 1,4,-1
 40 700 l 1,5,-1
 495 700 l 1,0,-1
EndSplineSet
EndChar

StartChar: eight
Encoding: 56 56 25
Width: 606
Flags: W
LayerCount: 2
Back
Fore
SplineSet
294 -14 m 0,0,1
 235 -14 235 -14 191 2 c 128,-1,2
 147 18 147 18 117.5 46 c 128,-1,3
 88 74 88 74 73 110.5 c 128,-1,4
 58 147 58 147 58 188 c 0,5,6
 58 302 58 302 183 376 c 1,7,8
 98 443 98 443 98 539 c 0,9,10
 98 575 98 575 109.5 607 c 128,-1,11
 121 639 121 639 146 662.5 c 128,-1,12
 171 686 171 686 211 699.5 c 128,-1,13
 251 713 251 713 307 713 c 0,14,15
 360 713 360 713 398 701 c 128,-1,16
 436 689 436 689 461 667.5 c 128,-1,17
 486 646 486 646 497.5 617 c 128,-1,18
 509 588 509 588 509 554 c 0,19,20
 509 528 509 528 503.5 506.5 c 128,-1,21
 498 485 498 485 485 465.5 c 128,-1,22
 472 446 472 446 452 427 c 128,-1,23
 432 408 432 408 403 387 c 1,24,25
 548 332 548 332 548 200 c 0,26,27
 548 160 548 160 532 121.5 c 128,-1,28
 516 83 516 83 484 53 c 128,-1,29
 452 23 452 23 404.5 4.5 c 128,-1,30
 357 -14 357 -14 294 -14 c 0,0,1
194 531 m 0,31,32
 194 497 194 497 220 468.5 c 128,-1,33
 246 440 246 440 297 422 c 1,34,35
 354 438 354 438 380 469.5 c 128,-1,36
 406 501 406 501 406 540 c 0,37,38
 406 578 406 578 380 600.5 c 128,-1,39
 354 623 354 623 302 623 c 256,40,41
 250 623 250 623 222 598 c 128,-1,42
 194 573 194 573 194 531 c 0,31,32
305 336 m 1,43,44
 245 325 245 325 206.5 288 c 128,-1,45
 168 251 168 251 168 191 c 0,46,47
 168 136 168 136 202 107 c 128,-1,48
 236 78 236 78 299 78 c 0,49,50
 360 78 360 78 399 111.5 c 128,-1,51
 438 145 438 145 438 199 c 0,52,53
 438 251 438 251 400.5 286.5 c 128,-1,54
 363 322 363 322 305 336 c 1,43,44
EndSplineSet
EndChar

StartChar: nine
Encoding: 57 57 26
Width: 568
Flags: W
LayerCount: 2
Back
Fore
SplineSet
287 714 m 0,0,1
 335 714 335 714 375 699.5 c 128,-1,2
 415 685 415 685 444 653.5 c 128,-1,3
 473 622 473 622 489.5 573.5 c 128,-1,4
 506 525 506 525 506 457 c 0,5,6
 506 355 506 355 476.5 270.5 c 128,-1,7
 447 186 447 186 403 126 c 128,-1,8
 359 66 359 66 307.5 33 c 128,-1,9
 256 0 256 0 212 0 c 1,10,-1
 136 42 l 1,11,12
 171 54 171 54 212.5 78 c 128,-1,13
 254 102 254 102 291 138 c 128,-1,14
 328 174 328 174 355 222 c 128,-1,15
 382 270 382 270 389 329 c 1,16,17
 380 317 380 317 364.5 307.5 c 128,-1,18
 349 298 349 298 331 292 c 128,-1,19
 313 286 313 286 293.5 282.5 c 128,-1,20
 274 279 274 279 256 279 c 0,21,22
 157 279 157 279 100.5 329.5 c 128,-1,23
 44 380 44 380 44 480 c 0,24,25
 44 529 44 529 61.5 572 c 128,-1,26
 79 615 79 615 111 646.5 c 128,-1,27
 143 678 143 678 188 696 c 128,-1,28
 233 714 233 714 287 714 c 0,0,1
266 369 m 0,29,30
 294 369 294 369 318.5 378 c 128,-1,31
 343 387 343 387 361 404 c 128,-1,32
 379 421 379 421 389 445 c 128,-1,33
 399 469 399 469 399 499 c 256,34,35
 399 529 399 529 389.5 551.5 c 128,-1,36
 380 574 380 574 363.5 589.5 c 128,-1,37
 347 605 347 605 324.5 612.5 c 128,-1,38
 302 620 302 620 277 620 c 0,39,40
 248 620 248 620 224.5 609.5 c 128,-1,41
 201 599 201 599 184.5 580.5 c 128,-1,42
 168 562 168 562 159.5 537.5 c 128,-1,43
 151 513 151 513 151 485 c 0,44,45
 151 461 151 461 157.5 440 c 128,-1,46
 164 419 164 419 178 403.5 c 128,-1,47
 192 388 192 388 214 378.5 c 128,-1,48
 236 369 236 369 266 369 c 0,29,30
EndSplineSet
EndChar

StartChar: colon
Encoding: 58 58 27
Width: 214
Flags: W
LayerCount: 2
Back
Fore
SplineSet
158 339 m 1,0,-1
 56 339 l 1,1,-1
 56 440 l 1,2,-1
 158 440 l 1,3,-1
 158 339 l 1,0,-1
158 0 m 1,4,-1
 56 0 l 1,5,-1
 56 101 l 1,6,-1
 158 101 l 1,7,-1
 158 0 l 1,4,-1
EndSplineSet
EndChar

StartChar: semicolon
Encoding: 59 59 28
Width: 225
Flags: W
LayerCount: 2
Back
Fore
SplineSet
169 339 m 1,0,-1
 57 339 l 1,1,-1
 57 440 l 1,2,-1
 169 440 l 1,3,-1
 169 339 l 1,0,-1
165 -1 m 1,4,-1
 80 -109 l 1,5,-1
 56 -96 l 1,6,-1
 90 -9 l 1,7,-1
 57 0 l 1,8,-1
 57 101 l 1,9,-1
 165 101 l 1,10,-1
 165 -1 l 1,4,-1
EndSplineSet
EndChar

StartChar: less
Encoding: 60 60 29
Width: 416
Flags: W
LayerCount: 2
Back
Fore
SplineSet
358 78 m 1,0,-1
 245 78 l 1,1,-1
 30 284 l 1,2,-1
 245 490 l 1,3,-1
 358 490 l 1,4,-1
 143 284 l 1,5,-1
 358 78 l 1,0,-1
EndSplineSet
EndChar

StartChar: equal
Encoding: 61 61 30
Width: 500
Flags: W
LayerCount: 2
Back
Fore
SplineSet
435 315 m 1,0,-1
 65 315 l 1,1,-1
 65 397 l 1,2,-1
 435 397 l 1,3,-1
 435 315 l 1,0,-1
435 157 m 1,4,-1
 65 157 l 1,5,-1
 65 239 l 1,6,-1
 435 239 l 1,7,-1
 435 157 l 1,4,-1
EndSplineSet
EndChar

StartChar: greater
Encoding: 62 62 31
Width: 417
Flags: W
LayerCount: 2
Back
Fore
SplineSet
387 284 m 1,0,-1
 172 78 l 1,1,-1
 59 78 l 1,2,-1
 274 284 l 1,3,-1
 59 490 l 1,4,-1
 172 490 l 1,5,-1
 387 284 l 1,0,-1
EndSplineSet
EndChar

StartChar: question
Encoding: 63 63 32
Width: 440
Flags: W
LayerCount: 2
Back
Fore
SplineSet
232 200 m 1,0,-1
 164 200 l 1,1,2
 162 222 162 222 161.5 234.5 c 128,-1,3
 161 247 161 247 161 248 c 0,4,5
 161 295 161 295 183 333 c 128,-1,6
 205 371 205 371 231.5 406 c 128,-1,7
 258 441 258 441 280 478 c 128,-1,8
 302 515 302 515 302 560 c 0,9,10
 302 615 302 615 267.5 644 c 128,-1,11
 233 673 233 673 184 673 c 0,12,13
 163 673 163 673 142.5 667 c 128,-1,14
 122 661 122 661 105 651.5 c 128,-1,15
 88 642 88 642 75 630 c 128,-1,16
 62 618 62 618 55 606 c 1,17,-1
 29 682 l 1,18,19
 49 713 49 713 92.5 731.5 c 128,-1,20
 136 750 136 750 188 750 c 0,21,22
 236 750 236 750 274.5 733 c 128,-1,23
 313 716 313 716 340.5 689 c 128,-1,24
 368 662 368 662 382.5 628.5 c 128,-1,25
 397 595 397 595 397 562 c 0,26,27
 397 531 397 531 385 501.5 c 128,-1,28
 373 472 373 472 354.5 444 c 128,-1,29
 336 416 336 416 314.5 388.5 c 128,-1,30
 293 361 293 361 274.5 333.5 c 128,-1,31
 256 306 256 306 244 278.5 c 128,-1,32
 232 251 232 251 232 222 c 2,33,-1
 232 200 l 1,0,-1
250 0 m 1,34,-1
 148 0 l 1,35,-1
 148 99 l 1,36,-1
 250 99 l 1,37,-1
 250 0 l 1,34,-1
EndSplineSet
EndChar

StartChar: at
Encoding: 64 64 33
Width: 719
Flags: W
LayerCount: 2
Back
Fore
SplineSet
543 379 m 1,0,1
 492 432 492 432 421 432 c 0,2,3
 375 432 375 432 329.5 407 c 128,-1,4
 284 382 284 382 248 342.5 c 128,-1,5
 212 303 212 303 189.5 252.5 c 128,-1,6
 167 202 167 202 167 151 c 0,7,8
 167 103 167 103 189 71.5 c 128,-1,9
 211 40 211 40 262 40 c 0,10,11
 283 40 283 40 308 48.5 c 128,-1,12
 333 57 333 57 357 72.5 c 128,-1,13
 381 88 381 88 402.5 109 c 128,-1,14
 424 130 424 130 438 156 c 1,15,16
 438 155 438 155 437.5 150.5 c 128,-1,17
 437 146 437 146 436.5 141 c 128,-1,18
 436 136 436 136 435.5 131 c 128,-1,19
 435 126 435 126 435 125 c 0,20,21
 435 93 435 93 448 67.5 c 128,-1,22
 461 42 461 42 490 42 c 0,23,24
 505 42 505 42 523 47.5 c 128,-1,25
 541 53 541 53 559 62 c 128,-1,26
 577 71 577 71 594 82.5 c 128,-1,27
 611 94 611 94 623 106 c 1,28,29
 599 63 599 63 564 27.5 c 128,-1,30
 529 -8 529 -8 486 -33.5 c 128,-1,31
 443 -59 443 -59 394.5 -73 c 128,-1,32
 346 -87 346 -87 295 -87 c 0,33,34
 238 -87 238 -87 192 -69.5 c 128,-1,35
 146 -52 146 -52 113.5 -19 c 128,-1,36
 81 14 81 14 64 62 c 128,-1,37
 47 110 47 110 47 170 c 0,38,39
 47 250 47 250 77 320 c 128,-1,40
 107 390 107 390 159 441.5 c 128,-1,41
 211 493 211 493 279 523 c 128,-1,42
 347 553 347 553 424 553 c 0,43,44
 482 553 482 553 528.5 535 c 128,-1,45
 575 517 575 517 607 484 c 128,-1,46
 639 451 639 451 656 404 c 128,-1,47
 673 357 673 357 673 299 c 0,48,49
 673 273 673 273 670.5 245 c 128,-1,50
 668 217 668 217 660 191.5 c 128,-1,51
 652 166 652 166 635.5 145 c 128,-1,52
 619 124 619 124 591 111 c 0,53,54
 552 94 552 94 525 94 c 0,55,56
 488 94 488 94 488 147 c 0,57,58
 488 160 488 160 493 184 c 128,-1,59
 498 208 498 208 506 238.5 c 128,-1,60
 514 269 514 269 523.5 305 c 128,-1,61
 533 341 533 341 543 379 c 1,0,1
422 371 m 0,62,63
 469 371 469 371 476 349 c 1,64,65
 470 310 470 310 449.5 267.5 c 128,-1,66
 429 225 429 225 402 189 c 128,-1,67
 375 153 375 153 345.5 129.5 c 128,-1,68
 316 106 316 106 291 106 c 0,69,70
 269 106 269 106 258 124 c 128,-1,71
 247 142 247 142 247 170 c 0,72,73
 247 209 247 209 264 245.5 c 128,-1,74
 281 282 281 282 307.5 309.5 c 128,-1,75
 334 337 334 337 364.5 354 c 128,-1,76
 395 371 395 371 422 371 c 0,62,63
EndSplineSet
EndChar

StartChar: A
Encoding: 65 65 34
Width: 620
Flags: W
LayerCount: 2
Back
Fore
SplineSet
614 0 m 1,0,-1
 502 0 l 1,1,-1
 438 182 l 1,2,-1
 182 182 l 1,3,-1
 117 0 l 1,4,-1
 6 0 l 1,5,-1
 256 700 l 1,6,-1
 363 700 l 1,7,-1
 614 0 l 1,0,-1
403 281 m 1,8,-1
 310 543 l 1,9,-1
 217 281 l 1,10,-1
 403 281 l 1,8,-1
EndSplineSet
EndChar

StartChar: B
Encoding: 66 66 35
Width: 607
Flags: W
LayerCount: 2
Back
Fore
SplineSet
329 0 m 2,0,-1
 79 0 l 1,1,-1
 79 700 l 1,2,-1
 248 700 l 2,3,4
 313 700 313 700 362.5 693 c 128,-1,5
 412 686 412 686 445.5 666.5 c 128,-1,6
 479 647 479 647 496 613 c 128,-1,7
 513 579 513 579 513 525 c 0,8,9
 513 475 513 475 501.5 441 c 128,-1,10
 490 407 490 407 455 373 c 1,11,12
 519 349 519 349 546.5 309.5 c 128,-1,13
 574 270 574 270 574 207 c 0,14,15
 574 0 574 0 329 0 c 2,0,-1
283 607 m 2,16,-1
 185 607 l 1,17,-1
 185 412 l 1,18,-1
 306 412 l 2,19,20
 325 412 325 412 343 415 c 128,-1,21
 361 418 361 418 375.5 428.5 c 128,-1,22
 390 439 390 439 399 459 c 128,-1,23
 408 479 408 479 408 513 c 0,24,25
 408 570 408 570 377 588.5 c 128,-1,26
 346 607 346 607 283 607 c 2,16,-1
328 321 m 2,27,-1
 185 321 l 1,28,-1
 185 94 l 1,29,-1
 293 94 l 2,30,31
 380 94 380 94 422 116 c 128,-1,32
 464 138 464 138 464 204 c 0,33,34
 464 321 464 321 328 321 c 2,27,-1
EndSplineSet
EndChar

StartChar: C
Encoding: 67 67 36
Width: 614
Flags: W
LayerCount: 2
Back
Fore
SplineSet
386 -14 m 0,0,1
 309 -14 309 -14 245 12.5 c 128,-1,2
 181 39 181 39 135 87 c 128,-1,3
 89 135 89 135 63 202 c 128,-1,4
 37 269 37 269 37 350 c 256,5,6
 37 431 37 431 62.5 498 c 128,-1,7
 88 565 88 565 134.5 613 c 128,-1,8
 181 661 181 661 244.5 687.5 c 128,-1,9
 308 714 308 714 385 714 c 0,10,11
 496 714 496 714 581 673 c 1,12,-1
 570 573 l 1,13,14
 457 615 457 615 385 615 c 0,15,16
 330 615 330 615 287 595.5 c 128,-1,17
 244 576 244 576 214 540.5 c 128,-1,18
 184 505 184 505 168.5 456.5 c 128,-1,19
 153 408 153 408 153 350 c 256,20,21
 153 292 153 292 168.5 243.5 c 128,-1,22
 184 195 184 195 214 159.5 c 128,-1,23
 244 124 244 124 287.5 104.5 c 128,-1,24
 331 85 331 85 387 85 c 0,25,26
 459 85 459 85 570 126 c 1,27,-1
 581 26 l 1,28,29
 494 -14 494 -14 386 -14 c 0,0,1
EndSplineSet
EndChar

StartChar: D
Encoding: 68 68 37
Width: 725
Flags: W
LayerCount: 2
Back
Fore
SplineSet
339 0 m 2,0,-1
 79 0 l 1,1,-1
 79 700 l 1,2,-1
 339 700 l 2,3,4
 415 700 415 700 479 676 c 128,-1,5
 543 652 543 652 589 607 c 128,-1,6
 635 562 635 562 660.5 497 c 128,-1,7
 686 432 686 432 686 350 c 0,8,9
 686 269 686 269 660.5 204 c 128,-1,10
 635 139 635 139 589.5 93.5 c 128,-1,11
 544 48 544 48 480 24 c 128,-1,12
 416 0 416 0 339 0 c 2,0,-1
339 601 m 2,13,-1
 185 601 l 1,14,-1
 185 99 l 1,15,-1
 339 99 l 2,16,17
 451 99 451 99 510.5 166 c 128,-1,18
 570 233 570 233 570 350 c 256,19,20
 570 467 570 467 510.5 534 c 128,-1,21
 451 601 451 601 339 601 c 2,13,-1
EndSplineSet
EndChar

StartChar: E
Encoding: 69 69 38
Width: 559
Flags: W
LayerCount: 2
Back
Fore
SplineSet
523 0 m 1,0,-1
 79 0 l 1,1,-1
 79 700 l 1,2,-1
 513 700 l 1,3,-1
 513 601 l 1,4,-1
 186 601 l 1,5,-1
 186 415 l 1,6,-1
 444 415 l 1,7,-1
 444 316 l 1,8,-1
 186 316 l 1,9,-1
 186 99 l 1,10,-1
 523 99 l 1,11,-1
 523 0 l 1,0,-1
EndSplineSet
EndChar

StartChar: F
Encoding: 70 70 39
Width: 523
Flags: W
LayerCount: 2
Back
Fore
SplineSet
507 601 m 1,0,-1
 185 601 l 1,1,-1
 185 415 l 1,2,-1
 434 415 l 1,3,-1
 434 316 l 1,4,-1
 185 316 l 1,5,-1
 185 0 l 1,6,-1
 79 0 l 1,7,-1
 79 700 l 1,8,-1
 507 700 l 1,9,-1
 507 601 l 1,0,-1
EndSplineSet
EndChar

StartChar: G
Encoding: 71 71 40
Width: 670
Flags: W
LayerCount: 2
Back
Fore
SplineSet
381 -14 m 0,0,1
 307 -14 307 -14 244 12.5 c 128,-1,2
 181 39 181 39 135 87 c 128,-1,3
 89 135 89 135 63.5 202 c 128,-1,4
 38 269 38 269 38 351 c 256,5,6
 38 433 38 433 64 500 c 128,-1,7
 90 567 90 567 136.5 614.5 c 128,-1,8
 183 662 183 662 247 688 c 128,-1,9
 311 714 311 714 388 714 c 0,10,11
 508 714 508 714 597 674 c 1,12,-1
 586 577 l 1,13,14
 484 615 484 615 391 615 c 0,15,16
 333 615 333 615 288.5 595.5 c 128,-1,17
 244 576 244 576 214 541 c 128,-1,18
 184 506 184 506 169 457.5 c 128,-1,19
 154 409 154 409 154 351 c 0,20,21
 154 291 154 291 170 242 c 128,-1,22
 186 193 186 193 217.5 158 c 128,-1,23
 249 123 249 123 296 104 c 128,-1,24
 343 85 343 85 404 85 c 0,25,26
 467 85 467 85 514 101 c 1,27,-1
 514 258 l 1,28,-1
 415 258 l 1,29,-1
 415 351 l 1,30,-1
 620 351 l 1,31,-1
 620 39 l 1,32,33
 601 28 601 28 571.5 18.5 c 128,-1,34
 542 9 542 9 509 2 c 128,-1,35
 476 -5 476 -5 442.5 -9.5 c 128,-1,36
 409 -14 409 -14 381 -14 c 0,0,1
EndSplineSet
EndChar

StartChar: H
Encoding: 72 72 41
Width: 744
Flags: W
LayerCount: 2
Back
Fore
SplineSet
665 0 m 1,0,-1
 559 0 l 1,1,-1
 559 315 l 1,2,-1
 185 315 l 1,3,-1
 185 0 l 1,4,-1
 79 0 l 1,5,-1
 79 700 l 1,6,-1
 185 700 l 1,7,-1
 185 417 l 1,8,-1
 559 417 l 1,9,-1
 559 700 l 1,10,-1
 665 700 l 1,11,-1
 665 0 l 1,0,-1
EndSplineSet
EndChar

StartChar: I
Encoding: 73 73 42
Width: 265
Flags: W
LayerCount: 2
Back
Fore
SplineSet
186 0 m 1,0,-1
 79 0 l 1,1,-1
 79 700 l 1,2,-1
 186 700 l 1,3,-1
 186 0 l 1,0,-1
EndSplineSet
EndChar

StartChar: J
Encoding: 74 74 43
Width: 264
Flags: W
LayerCount: 2
Back
Fore
SplineSet
21 -172 m 2,0,-1
 -2 -172 l 1,1,-1
 -12 -102 l 1,2,-1
 -1 -102 l 2,3,4
 45 -102 45 -102 62 -79 c 128,-1,5
 79 -56 79 -56 79 -1 c 2,6,-1
 79 700 l 1,7,-1
 185 700 l 1,8,-1
 185 -29 l 2,9,10
 185 -172 185 -172 21 -172 c 2,0,-1
EndSplineSet
EndChar

StartChar: K
Encoding: 75 75 44
Width: 592
Flags: W
LayerCount: 2
Back
Fore
SplineSet
588 0 m 1,0,-1
 473 0 l 1,1,-1
 219 371 l 1,2,-1
 473 700 l 1,3,-1
 588 700 l 1,4,-1
 334 371 l 1,5,-1
 588 0 l 1,0,-1
185 0 m 1,6,-1
 79 0 l 1,7,-1
 79 700 l 1,8,-1
 185 700 l 1,9,-1
 185 0 l 1,6,-1
EndSplineSet
EndChar

StartChar: L
Encoding: 76 76 45
Width: 501
Flags: W
LayerCount: 2
Back
Fore
SplineSet
495 0 m 1,0,-1
 79 0 l 1,1,-1
 79 700 l 1,2,-1
 185 700 l 1,3,-1
 185 99 l 1,4,-1
 495 99 l 1,5,-1
 495 0 l 1,0,-1
EndSplineSet
EndChar

StartChar: M
Encoding: 77 77 46
Width: 818
Flags: W
LayerCount: 2
Back
Fore
SplineSet
772 0 m 1,0,-1
 660 0 l 1,1,-1
 596 508 l 1,2,-1
 410 159 l 1,3,-1
 221 508 l 1,4,-1
 157 0 l 1,5,-1
 46 0 l 1,6,-1
 141 700 l 1,7,-1
 230 700 l 1,8,-1
 409 363 l 1,9,-1
 587 700 l 1,10,-1
 677 700 l 1,11,-1
 772 0 l 1,0,-1
EndSplineSet
EndChar

StartChar: N
Encoding: 78 78 47
Width: 705
Flags: W
LayerCount: 2
Back
Fore
SplineSet
626 0 m 1,0,-1
 537 0 l 1,1,-1
 185 528 l 1,2,-1
 185 0 l 1,3,-1
 79 0 l 1,4,-1
 79 700 l 1,5,-1
 190 700 l 1,6,-1
 519 201 l 1,7,-1
 519 700 l 1,8,-1
 626 700 l 1,9,-1
 626 0 l 1,0,-1
EndSplineSet
EndChar

StartChar: O
Encoding: 79 79 48
Width: 766
Flags: W
LayerCount: 2
Back
Fore
SplineSet
631 86 m 0,0,1
 535 -14 535 -14 383 -14 c 0,2,3
 308 -14 308 -14 244.5 12 c 128,-1,4
 181 38 181 38 135 86 c 128,-1,5
 89 134 89 134 63.5 201 c 128,-1,6
 38 268 38 268 38 350 c 256,7,8
 38 432 38 432 63.5 499 c 128,-1,9
 89 566 89 566 135 614 c 128,-1,10
 181 662 181 662 244.5 688 c 128,-1,11
 308 714 308 714 383 714 c 0,12,13
 459 714 459 714 522 687.5 c 128,-1,14
 585 661 585 661 631 613 c 128,-1,15
 677 565 677 565 702.5 498 c 128,-1,16
 728 431 728 431 728 350 c 0,17,18
 728 186 728 186 631 86 c 0,0,1
552 541 m 0,19,20
 493 615 493 615 383 615 c 0,21,22
 328 615 328 615 285.5 595.5 c 128,-1,23
 243 576 243 576 213.5 540.5 c 128,-1,24
 184 505 184 505 169 456.5 c 128,-1,25
 154 408 154 408 154 350 c 0,26,27
 154 291 154 291 169 242.5 c 128,-1,28
 184 194 184 194 213.5 159 c 128,-1,29
 243 124 243 124 285.5 104.5 c 128,-1,30
 328 85 328 85 383 85 c 256,31,32
 438 85 438 85 481 105 c 128,-1,33
 524 125 524 125 553 160 c 128,-1,34
 582 195 582 195 597 244 c 128,-1,35
 612 293 612 293 612 350 c 0,36,37
 612 467 612 467 552 541 c 0,19,20
EndSplineSet
EndChar

StartChar: P
Encoding: 80 80 49
Width: 581
Flags: W
LayerCount: 2
Back
Fore
SplineSet
332 240 m 2,0,-1
 189 240 l 1,1,-1
 189 0 l 1,2,-1
 79 0 l 1,3,-1
 79 700 l 1,4,-1
 295 700 l 2,5,6
 351 700 351 700 399 692.5 c 128,-1,7
 447 685 447 685 482.5 661.5 c 128,-1,8
 518 638 518 638 538 595 c 128,-1,9
 558 552 558 552 558 481 c 0,10,11
 558 413 558 413 537 366.5 c 128,-1,12
 516 320 516 320 483 292 c 128,-1,13
 450 264 450 264 410 252 c 128,-1,14
 370 240 370 240 332 240 c 2,0,-1
295 607 m 2,15,-1
 189 607 l 1,16,-1
 189 337 l 1,17,-1
 314 337 l 2,18,19
 386 337 386 337 417 371.5 c 128,-1,20
 448 406 448 406 448 478 c 0,21,22
 448 514 448 514 440.5 538.5 c 128,-1,23
 433 563 433 563 415 578 c 128,-1,24
 397 593 397 593 367.5 600 c 128,-1,25
 338 607 338 607 295 607 c 2,15,-1
EndSplineSet
EndChar

StartChar: Q
Encoding: 81 81 50
Width: 766
Flags: W
LayerCount: 2
Back
Fore
SplineSet
719 68 m 1,0,-1
 661 -1 l 1,1,-1
 594 54 l 1,2,3
 500 -14 500 -14 383 -14 c 0,4,5
 308 -14 308 -14 244.5 12 c 128,-1,6
 181 38 181 38 135 86 c 128,-1,7
 89 134 89 134 63.5 201 c 128,-1,8
 38 268 38 268 38 350 c 256,9,10
 38 432 38 432 63.5 499 c 128,-1,11
 89 566 89 566 135 614 c 128,-1,12
 181 662 181 662 244.5 688 c 128,-1,13
 308 714 308 714 383 714 c 0,14,15
 459 714 459 714 522 687.5 c 128,-1,16
 585 661 585 661 631 613 c 128,-1,17
 677 565 677 565 702.5 498 c 128,-1,18
 728 431 728 431 728 350 c 0,19,20
 728 221 728 221 658 118 c 1,21,-1
 719 68 l 1,0,-1
383 85 m 0,22,23
 467 85 467 85 516 119 c 1,24,-1
 420 198 l 1,25,-1
 478 269 l 1,26,-1
 577 183 l 1,27,28
 618 251 618 251 618 350 c 0,29,30
 618 408 618 408 602 456.5 c 128,-1,31
 586 505 586 505 556 540 c 128,-1,32
 526 575 526 575 482.5 595 c 128,-1,33
 439 615 439 615 383 615 c 256,34,35
 327 615 327 615 284.5 595.5 c 128,-1,36
 242 576 242 576 213 540.5 c 128,-1,37
 184 505 184 505 169 456.5 c 128,-1,38
 154 408 154 408 154 350 c 0,39,40
 154 291 154 291 168.5 242.5 c 128,-1,41
 183 194 183 194 212 159 c 128,-1,42
 241 124 241 124 284 104.5 c 128,-1,43
 327 85 327 85 383 85 c 0,22,23
EndSplineSet
EndChar

StartChar: R
Encoding: 82 82 51
Width: 610
Flags: W
LayerCount: 2
Back
Fore
SplineSet
594 0 m 1,0,-1
 481 0 l 1,1,-1
 329 269 l 1,2,-1
 188 269 l 1,3,-1
 188 0 l 1,4,-1
 79 0 l 1,5,-1
 79 700 l 1,6,-1
 316 700 l 2,7,8
 431 700 431 700 494 653 c 128,-1,9
 557 606 557 606 557 496 c 0,10,11
 557 362 557 362 432 297 c 1,12,-1
 594 0 l 1,0,-1
305 613 m 2,13,-1
 188 613 l 1,14,-1
 188 370 l 1,15,-1
 320 370 l 2,16,17
 378 370 378 370 412 400 c 128,-1,18
 446 430 446 430 446 493 c 0,19,20
 446 613 446 613 305 613 c 2,13,-1
EndSplineSet
EndChar

StartChar: S
Encoding: 83 83 52
Width: 584
Flags: W
LayerCount: 2
Back
Fore
SplineSet
281 -14 m 0,0,1
 134 -14 134 -14 51 33 c 1,2,-1
 64 156 l 1,3,4
 153 85 153 85 283 85 c 0,5,6
 352 85 352 85 394 108 c 128,-1,7
 436 131 436 131 436 182 c 0,8,9
 436 205 436 205 426 223 c 128,-1,10
 416 241 416 241 399.5 255 c 128,-1,11
 383 269 383 269 361.5 279.5 c 128,-1,12
 340 290 340 290 316 298 c 2,13,-1
 205 335 l 1,14,-1
 156 355 l 2,15,16
 137 363 137 363 116.5 375.5 c 128,-1,17
 96 388 96 388 78.5 406 c 128,-1,18
 61 424 61 424 50 447 c 128,-1,19
 39 470 39 470 39 499 c 0,20,21
 39 537 39 537 51.5 575.5 c 128,-1,22
 64 614 64 614 93.5 644.5 c 128,-1,23
 123 675 123 675 171.5 694.5 c 128,-1,24
 220 714 220 714 292 714 c 0,25,26
 323 714 323 714 356 709.5 c 128,-1,27
 389 705 389 705 419 698 c 128,-1,28
 449 691 449 691 473.5 682 c 128,-1,29
 498 673 498 673 513 664 c 1,30,-1
 502 553 l 1,31,32
 380 616 380 616 300 616 c 0,33,34
 272 616 272 616 245.5 610.5 c 128,-1,35
 219 605 219 605 198.5 594 c 128,-1,36
 178 583 178 583 165.5 565 c 128,-1,37
 153 547 153 547 153 523 c 0,38,39
 153 492 153 492 169 474.5 c 128,-1,40
 185 457 185 457 216 443.5 c 128,-1,41
 247 430 247 430 293.5 416 c 128,-1,42
 340 402 340 402 401 377 c 0,43,44
 428 366 428 366 455 352 c 128,-1,45
 482 338 482 338 503.5 316 c 128,-1,46
 525 294 525 294 539 262 c 128,-1,47
 553 230 553 230 553 184 c 0,48,49
 553 152 553 152 543 117 c 128,-1,50
 533 82 533 82 503.5 53 c 128,-1,51
 474 24 474 24 420.5 5 c 128,-1,52
 367 -14 367 -14 281 -14 c 0,0,1
EndSplineSet
EndChar

StartChar: T
Encoding: 84 84 53
Width: 548
Flags: W
LayerCount: 2
Back
Fore
SplineSet
529 601 m 1,0,-1
 327 601 l 1,1,-1
 327 0 l 1,2,-1
 220 0 l 1,3,-1
 220 601 l 1,4,-1
 19 601 l 1,5,-1
 19 700 l 1,6,-1
 529 700 l 1,7,-1
 529 601 l 1,0,-1
EndSplineSet
EndChar

StartChar: U
Encoding: 85 85 54
Width: 722
Flags: W
LayerCount: 2
Back
Fore
SplineSet
71 298 m 2,0,-1
 71 700 l 1,1,-1
 177 700 l 1,2,-1
 177 343 l 2,3,4
 177 290 177 290 184.5 243 c 128,-1,5
 192 196 192 196 212 161 c 128,-1,6
 232 126 232 126 268 105.5 c 128,-1,7
 304 85 304 85 361 85 c 256,8,9
 418 85 418 85 454 106 c 128,-1,10
 490 127 490 127 510 162 c 128,-1,11
 530 197 530 197 537.5 244 c 128,-1,12
 545 291 545 291 545 343 c 2,13,-1
 545 700 l 1,14,-1
 651 700 l 1,15,-1
 651 298 l 2,16,17
 651 151 651 151 578 68.5 c 128,-1,18
 505 -14 505 -14 361 -14 c 256,19,20
 217 -14 217 -14 144 68.5 c 128,-1,21
 71 151 71 151 71 298 c 2,0,-1
EndSplineSet
EndChar

StartChar: V
Encoding: 86 86 55
Width: 649
Flags: W
LayerCount: 2
Back
Fore
SplineSet
645 700 m 1,0,-1
 384 0 l 1,1,-1
 265 0 l 1,2,-1
 3 700 l 1,3,-1
 114 700 l 1,4,-1
 325 130 l 1,5,-1
 534 700 l 1,6,-1
 645 700 l 1,0,-1
EndSplineSet
EndChar

StartChar: W
Encoding: 87 87 56
Width: 968
Flags: W
LayerCount: 2
Back
Fore
SplineSet
960 700 m 1,0,-1
 755 0 l 1,1,-1
 647 0 l 1,2,-1
 485 537 l 1,3,-1
 320 0 l 1,4,-1
 209 0 l 1,5,-1
 13 700 l 1,6,-1
 124 700 l 1,7,-1
 274 141 l 1,8,-1
 443 691 l 1,9,-1
 530 691 l 1,10,-1
 702 146 l 1,11,-1
 849 700 l 1,12,-1
 960 700 l 1,0,-1
EndSplineSet
EndChar

StartChar: X
Encoding: 88 88 57
Width: 609
Flags: W
LayerCount: 2
Back
Fore
SplineSet
607 0 m 1,0,-1
 490 0 l 1,1,-1
 299 276 l 1,2,-1
 123 0 l 1,3,-1
 6 0 l 1,4,-1
 245 349 l 1,5,-1
 10 700 l 1,6,-1
 133 700 l 1,7,-1
 307 436 l 1,8,-1
 485 700 l 1,9,-1
 601 700 l 1,10,-1
 358 362 l 1,11,-1
 607 0 l 1,0,-1
EndSplineSet
EndChar

StartChar: Y
Encoding: 89 89 58
Width: 577
Flags: W
LayerCount: 2
Back
Fore
SplineSet
581 700 m 1,0,-1
 343 319 l 1,1,-1
 343 0 l 1,2,-1
 234 0 l 1,3,-1
 234 319 l 1,4,-1
 -5 700 l 1,5,-1
 108 700 l 1,6,-1
 288 414 l 1,7,-1
 468 700 l 1,8,-1
 581 700 l 1,0,-1
EndSplineSet
EndChar

StartChar: Z
Encoding: 90 90 59
Width: 550
Flags: W
LayerCount: 2
Back
Fore
SplineSet
542 700 m 1,0,-1
 184 99 l 1,1,-1
 497 99 l 1,2,-1
 497 0 l 1,3,-1
 9 0 l 1,4,-1
 366 601 l 1,5,-1
 54 601 l 1,6,-1
 54 700 l 1,7,-1
 542 700 l 1,0,-1
EndSplineSet
EndChar

StartChar: bracketleft
Encoding: 91 91 60
Width: 330
Flags: W
LayerCount: 2
Back
Fore
SplineSet
326 -135 m 1,0,-1
 69 -135 l 1,1,-1
 69 750 l 1,2,-1
 326 750 l 1,3,-1
 326 668 l 1,4,-1
 162 668 l 1,5,-1
 162 -53 l 1,6,-1
 326 -53 l 1,7,-1
 326 -135 l 1,0,-1
EndSplineSet
EndChar

StartChar: backslash
Encoding: 92 92 61
Width: 532
Flags: W
LayerCount: 2
Back
Fore
SplineSet
514 -85 m 1,0,-1
 407 -85 l 1,1,-1
 33 700 l 1,2,-1
 140 700 l 1,3,-1
 514 -85 l 1,0,-1
EndSplineSet
EndChar

StartChar: bracketright
Encoding: 93 93 62
Width: 330
Flags: W
LayerCount: 2
Back
Fore
SplineSet
4 750 m 1,0,-1
 261 750 l 1,1,-1
 261 -135 l 1,2,-1
 4 -135 l 1,3,-1
 4 -53 l 1,4,-1
 168 -53 l 1,5,-1
 168 668 l 1,6,-1
 4 668 l 1,7,-1
 4 750 l 1,0,-1
EndSplineSet
EndChar

StartChar: asciicircum
Encoding: 94 94 63
Width: 511
Flags: W
LayerCount: 2
Back
Fore
SplineSet
461 424 m 1,0,-1
 255 639 l 1,1,-1
 49 424 l 1,2,-1
 49 544 l 1,3,-1
 255 759 l 1,4,-1
 461 544 l 1,5,-1
 461 424 l 1,0,-1
EndSplineSet
EndChar

StartChar: underscore
Encoding: 95 95 64
Width: 564
Flags: W
LayerCount: 2
Back
Fore
SplineSet
562 -125 m 1,0,-1
 2 -125 l 1,1,-1
 2 -36 l 1,2,-1
 562 -36 l 1,3,-1
 562 -125 l 1,0,-1
EndSplineSet
EndChar

StartChar: grave
Encoding: 96 96 65
Width: 303
Flags: W
LayerCount: 2
Back
Fore
SplineSet
245 592 m 1,0,-1
 58 655 l 1,1,-1
 58 738 l 1,2,-1
 245 645 l 1,3,-1
 245 592 l 1,0,-1
EndSplineSet
EndChar

StartChar: a
Encoding: 97 97 66
Width: 487
Flags: W
LayerCount: 2
Back
Fore
SplineSet
478 72 m 1,0,-1
 465 -10 l 1,1,-1
 445 -10 l 2,2,3
 391 -10 391 -10 365.5 6 c 128,-1,4
 340 22 340 22 323 57 c 1,5,6
 266 -10 266 -10 172 -10 c 0,7,8
 139 -10 139 -10 111.5 0.5 c 128,-1,9
 84 11 84 11 64.5 30 c 128,-1,10
 45 49 45 49 34.5 75.5 c 128,-1,11
 24 102 24 102 24 135 c 0,12,13
 24 185 24 185 52 218.5 c 128,-1,14
 80 252 80 252 123 272.5 c 128,-1,15
 166 293 166 293 216.5 301.5 c 128,-1,16
 267 310 267 310 312 311 c 1,17,18
 311 370 311 370 287.5 391.5 c 128,-1,19
 264 413 264 413 211 413 c 0,20,21
 147 413 147 413 79 372 c 1,22,-1
 67 454 l 1,23,24
 141 503 141 503 239 503 c 0,25,26
 331 503 331 503 372.5 452 c 128,-1,27
 414 401 414 401 414 279 c 2,28,-1
 414 167 l 2,29,30
 414 139 414 139 416 120.5 c 128,-1,31
 418 102 418 102 423.5 91.5 c 128,-1,32
 429 81 429 81 439 76.5 c 128,-1,33
 449 72 449 72 466 72 c 2,34,-1
 478 72 l 1,0,-1
313 126 m 1,35,-1
 313 242 l 1,36,37
 129 235 129 235 129 140 c 0,38,39
 129 70 129 70 202 70 c 0,40,41
 268 70 268 70 313 126 c 1,35,-1
EndSplineSet
Substitution2: "'smcp' Lowercase to Small Capitals in Latin lookup 1 subtable" A.sc
Substitution2: "'aalt' Access All Alternates in Latin lookup 0 subtable" A.sc
EndChar

StartChar: b
Encoding: 98 98 67
Width: 562
Flags: W
LayerCount: 2
Back
Fore
SplineSet
301 -10 m 0,0,1
 264 -10 264 -10 225 6 c 128,-1,2
 186 22 186 22 160 50 c 1,3,-1
 152 0 l 1,4,-1
 60 0 l 1,5,-1
 60 750 l 1,6,-1
 162 750 l 1,7,-1
 162 450 l 1,8,9
 212 503 212 503 302 503 c 0,10,11
 355 503 355 503 397.5 482.5 c 128,-1,12
 440 462 440 462 469.5 426.5 c 128,-1,13
 499 391 499 391 515 344.5 c 128,-1,14
 531 298 531 298 531 246 c 0,15,16
 531 193 531 193 514 146 c 128,-1,17
 497 99 497 99 466.5 64.5 c 128,-1,18
 436 30 436 30 393.5 10 c 128,-1,19
 351 -10 351 -10 301 -10 c 0,0,1
292 415 m 0,20,21
 232 415 232 415 194 371 c 128,-1,22
 156 327 156 327 156 246 c 256,23,24
 156 165 156 165 194 121.5 c 128,-1,25
 232 78 232 78 292 78 c 0,26,27
 323 78 323 78 348 90.5 c 128,-1,28
 373 103 373 103 390.5 125.5 c 128,-1,29
 408 148 408 148 417.5 179 c 128,-1,30
 427 210 427 210 427 246 c 0,31,32
 427 283 427 283 417.5 314.5 c 128,-1,33
 408 346 408 346 390.5 368 c 128,-1,34
 373 390 373 390 348 402.5 c 128,-1,35
 323 415 323 415 292 415 c 0,20,21
EndSplineSet
Substitution2: "'smcp' Lowercase to Small Capitals in Latin lookup 1 subtable" B.sc
Substitution2: "'aalt' Access All Alternates in Latin lookup 0 subtable" B.sc
EndChar

StartChar: c
Encoding: 99 99 68
Width: 452
Flags: W
LayerCount: 2
Back
Fore
SplineSet
275 -10 m 0,0,1
 217 -10 217 -10 171.5 9.5 c 128,-1,2
 126 29 126 29 95 63.5 c 128,-1,3
 64 98 64 98 47.5 145 c 128,-1,4
 31 192 31 192 31 247 c 256,5,6
 31 302 31 302 47 349 c 128,-1,7
 63 396 63 396 94 430.5 c 128,-1,8
 125 465 125 465 170 484 c 128,-1,9
 215 503 215 503 274 503 c 0,10,11
 369 503 369 503 425 471 c 1,12,-1
 412 381 l 1,13,14
 351 415 351 415 284 415 c 0,15,16
 211 415 211 415 173 370.5 c 128,-1,17
 135 326 135 326 135 247 c 256,18,19
 135 168 135 168 173 122.5 c 128,-1,20
 211 77 211 77 284 77 c 0,21,22
 353 77 353 77 412 111 c 1,23,-1
 424 27 l 1,24,25
 366 -10 366 -10 275 -10 c 0,0,1
EndSplineSet
Substitution2: "'smcp' Lowercase to Small Capitals in Latin lookup 1 subtable" C.sc
Substitution2: "'aalt' Access All Alternates in Latin lookup 0 subtable" C.sc
EndChar

StartChar: d
Encoding: 100 100 69
Width: 561
Flags: W
LayerCount: 2
Back
Fore
SplineSet
501 0 m 1,0,-1
 409 0 l 1,1,-1
 401 50 l 1,2,3
 375 22 375 22 336.5 6 c 128,-1,4
 298 -10 298 -10 261 -10 c 0,5,6
 210 -10 210 -10 168 10 c 128,-1,7
 126 30 126 30 95.5 64.5 c 128,-1,8
 65 99 65 99 48 145.5 c 128,-1,9
 31 192 31 192 31 246 c 0,10,11
 31 299 31 299 47 345.5 c 128,-1,12
 63 392 63 392 93 427 c 128,-1,13
 123 462 123 462 165.5 482.5 c 128,-1,14
 208 503 208 503 261 503 c 0,15,16
 349 503 349 503 400 451 c 1,17,-1
 400 750 l 1,18,-1
 501 750 l 1,19,-1
 501 0 l 1,0,-1
268 415 m 0,20,21
 238 415 238 415 213 402.5 c 128,-1,22
 188 390 188 390 171 368 c 128,-1,23
 154 346 154 346 144.5 314.5 c 128,-1,24
 135 283 135 283 135 246 c 0,25,26
 135 210 135 210 144.5 179 c 128,-1,27
 154 148 154 148 171 125.5 c 128,-1,28
 188 103 188 103 213 90.5 c 128,-1,29
 238 78 238 78 268 78 c 0,30,31
 328 78 328 78 368 120.5 c 128,-1,32
 408 163 408 163 408 244 c 0,33,34
 408 283 408 283 397 315 c 128,-1,35
 386 347 386 347 367 369 c 128,-1,36
 348 391 348 391 322.5 403 c 128,-1,37
 297 415 297 415 268 415 c 0,20,21
EndSplineSet
Substitution2: "'smcp' Lowercase to Small Capitals in Latin lookup 1 subtable" D.sc
Substitution2: "'aalt' Access All Alternates in Latin lookup 0 subtable" D.sc
EndChar

StartChar: e
Encoding: 101 101 70
Width: 515
Flags: W
LayerCount: 2
Back
Fore
SplineSet
480 237 m 1,0,-1
 136 237 l 1,1,2
 152 78 152 78 308 78 c 0,3,4
 385 78 385 78 453 111 c 1,5,-1
 463 28 l 1,6,7
 382 -10 382 -10 298 -10 c 0,8,9
 235 -10 235 -10 185 10 c 128,-1,10
 135 30 135 30 101 64.5 c 128,-1,11
 67 99 67 99 49 146.5 c 128,-1,12
 31 194 31 194 31 249 c 0,13,14
 31 302 31 302 48 348.5 c 128,-1,15
 65 395 65 395 96 429.5 c 128,-1,16
 127 464 127 464 171.5 483.5 c 128,-1,17
 216 503 216 503 271 503 c 0,18,19
 318 503 318 503 357.5 488 c 128,-1,20
 397 473 397 473 425.5 445.5 c 128,-1,21
 454 418 454 418 469.5 379 c 128,-1,22
 485 340 485 340 485 292 c 0,23,24
 485 277 485 277 483.5 263.5 c 128,-1,25
 482 250 482 250 480 237 c 1,0,-1
271 415 m 0,26,27
 167 415 167 415 142 307 c 1,28,-1
 381 307 l 1,29,30
 381 356 381 356 353.5 385.5 c 128,-1,31
 326 415 326 415 271 415 c 0,26,27
EndSplineSet
Substitution2: "'smcp' Lowercase to Small Capitals in Latin lookup 1 subtable" E.sc
Substitution2: "'aalt' Access All Alternates in Latin lookup 0 subtable" E.sc
EndChar

StartChar: f
Encoding: 102 102 71
Width: 335
Flags: W
LayerCount: 2
Back
Fore
SplineSet
318 412 m 1,0,-1
 194 412 l 1,1,-1
 194 0 l 1,2,-1
 92 0 l 1,3,-1
 92 412 l 1,4,-1
 12 412 l 1,5,-1
 23 493 l 1,6,-1
 92 493 l 1,7,-1
 92 616 l 2,8,9
 92 674 92 674 121.5 712 c 128,-1,10
 151 750 151 750 208 750 c 0,11,12
 270 750 270 750 314 739 c 1,13,-1
 301 654 l 1,14,15
 271 662 271 662 243 662 c 0,16,17
 227 662 227 662 217.5 658.5 c 128,-1,18
 208 655 208 655 202.5 644 c 128,-1,19
 197 633 197 633 195.5 612 c 128,-1,20
 194 591 194 591 194 556 c 2,21,-1
 194 493 l 1,22,-1
 318 493 l 1,23,-1
 318 412 l 1,0,-1
EndSplineSet
Substitution2: "'smcp' Lowercase to Small Capitals in Latin lookup 1 subtable" F.sc
Substitution2: "'aalt' Access All Alternates in Latin lookup 0 subtable" F.sc
EndChar

StartChar: g
Encoding: 103 103 72
Width: 499
Flags: W
LayerCount: 2
Back
Fore
SplineSet
257 -250 m 256,0,1
 200 -250 200 -250 156.5 -238 c 128,-1,2
 113 -226 113 -226 84 -205.5 c 128,-1,3
 55 -185 55 -185 40.5 -158.5 c 128,-1,4
 26 -132 26 -132 26 -102 c 0,5,6
 26 -25 26 -25 111 9 c 1,7,8
 63 34 63 34 63 74 c 0,9,10
 63 120 63 120 118 145 c 1,11,12
 36 205 36 205 36 306 c 0,13,14
 36 348 36 348 50 384.5 c 128,-1,15
 64 421 64 421 90 447 c 128,-1,16
 116 473 116 473 153 488 c 128,-1,17
 190 503 190 503 237 503 c 0,18,19
 306 503 306 503 358 469 c 1,20,21
 408 495 408 495 473 495 c 2,22,-1
 489 495 l 1,23,-1
 479 429 l 1,24,-1
 449 429 l 2,25,26
 440 429 440 429 428 427.5 c 128,-1,27
 416 426 416 426 401 424 c 1,28,29
 441 375 441 375 441 309 c 0,30,31
 441 270 441 270 427.5 234.5 c 128,-1,32
 414 199 414 199 388.5 172 c 128,-1,33
 363 145 363 145 326 129 c 128,-1,34
 289 113 289 113 242 113 c 0,35,36
 211 113 211 113 177 121 c 1,37,38
 158 111 158 111 158 96 c 0,39,40
 158 86 158 86 163.5 80 c 128,-1,41
 169 74 169 74 185 69.5 c 128,-1,42
 201 65 201 65 229 60 c 128,-1,43
 257 55 257 55 301 48 c 0,44,45
 334 42 334 42 368.5 33.5 c 128,-1,46
 403 25 403 25 432 9.5 c 128,-1,47
 461 -6 461 -6 480 -31 c 128,-1,48
 499 -56 499 -56 501 -94 c 0,49,50
 501 -127 501 -127 484.5 -155.5 c 128,-1,51
 468 -184 468 -184 436.5 -205 c 128,-1,52
 405 -226 405 -226 359.5 -238 c 128,-1,53
 314 -250 314 -250 257 -250 c 256,0,1
238 424 m 256,54,55
 187 424 187 424 159 392 c 128,-1,56
 131 360 131 360 131 308 c 0,57,58
 131 253 131 253 159.5 221.5 c 128,-1,59
 188 190 188 190 239 190 c 256,60,61
 290 190 290 190 318 223 c 128,-1,62
 346 256 346 256 346 310 c 256,63,64
 346 364 346 364 317.5 394 c 128,-1,65
 289 424 289 424 238 424 c 256,54,55
272 -27 m 0,66,67
 260 -27 260 -27 240.5 -24 c 128,-1,68
 221 -21 221 -21 193 -16 c 1,69,70
 160 -27 160 -27 139 -49 c 128,-1,71
 118 -71 118 -71 118 -97 c 0,72,73
 118 -131 118 -131 155 -152.5 c 128,-1,74
 192 -174 192 -174 258 -174 c 256,75,76
 324 -174 324 -174 363.5 -152 c 128,-1,77
 403 -130 403 -130 403 -99 c 0,78,79
 403 -48 403 -48 272 -27 c 0,66,67
EndSplineSet
Substitution2: "'smcp' Lowercase to Small Capitals in Latin lookup 1 subtable" G.sc
Substitution2: "'aalt' Access All Alternates in Latin lookup 0 subtable" G.sc
EndChar

StartChar: h
Encoding: 104 104 73
Width: 545
Flags: W
LayerCount: 2
Back
Fore
SplineSet
491 0 m 1,0,-1
 389 0 l 1,1,-1
 389 264 l 2,2,3
 389 346 389 346 364 380.5 c 128,-1,4
 339 415 339 415 278 415 c 0,5,6
 199 415 199 415 162 358 c 1,7,-1
 162 0 l 1,8,-1
 60 0 l 1,9,-1
 60 750 l 1,10,-1
 162 750 l 1,11,-1
 162 450 l 1,12,13
 212 503 212 503 291 503 c 0,14,15
 491 503 491 503 491 264 c 2,16,-1
 491 0 l 1,0,-1
EndSplineSet
Substitution2: "'smcp' Lowercase to Small Capitals in Latin lookup 1 subtable" H.sc
Substitution2: "'aalt' Access All Alternates in Latin lookup 0 subtable" H.sc
EndChar

StartChar: i
Encoding: 105 105 74
Width: 222
Flags: W
LayerCount: 2
Back
Fore
SplineSet
162 592 m 1,0,-1
 60 592 l 1,1,-1
 60 700 l 1,2,-1
 162 700 l 1,3,-1
 162 592 l 1,0,-1
162 0 m 1,4,-1
 60 0 l 1,5,-1
 60 493 l 1,6,-1
 162 493 l 1,7,-1
 162 0 l 1,4,-1
EndSplineSet
Substitution2: "'smcp' Lowercase to Small Capitals in Latin lookup 1 subtable" I.sc
Substitution2: "'aalt' Access All Alternates in Latin lookup 0 subtable" I.sc
EndChar

StartChar: j
Encoding: 106 106 75
Width: 222
Flags: W
LayerCount: 2
Back
Fore
SplineSet
37 -239 m 2,0,-1
 2 -242 l 1,1,-1
 -8 -162 l 1,2,3
 14 -161 14 -161 27 -157 c 128,-1,4
 40 -153 40 -153 47.5 -143.5 c 128,-1,5
 55 -134 55 -134 57.5 -116.5 c 128,-1,6
 60 -99 60 -99 60 -69 c 2,7,-1
 60 493 l 1,8,-1
 162 493 l 1,9,-1
 162 -108 l 2,10,11
 162 -169 162 -169 126.5 -201.5 c 128,-1,12
 91 -234 91 -234 37 -239 c 2,0,-1
162 592 m 1,13,-1
 60 592 l 1,14,-1
 60 700 l 1,15,-1
 162 700 l 1,16,-1
 162 592 l 1,13,-1
EndSplineSet
Substitution2: "'smcp' Lowercase to Small Capitals in Latin lookup 1 subtable" J.sc
Substitution2: "'aalt' Access All Alternates in Latin lookup 0 subtable" J.sc
EndChar

StartChar: k
Encoding: 107 107 76
Width: 462
Flags: W
LayerCount: 2
Back
Fore
SplineSet
162 0 m 1,0,-1
 60 0 l 1,1,-1
 60 750 l 1,2,-1
 162 750 l 1,3,-1
 162 278 l 1,4,-1
 335 493 l 1,5,-1
 455 493 l 1,6,-1
 259 263 l 1,7,-1
 458 0 l 1,8,-1
 338 0 l 1,9,-1
 162 240 l 1,10,-1
 162 0 l 1,0,-1
EndSplineSet
Substitution2: "'smcp' Lowercase to Small Capitals in Latin lookup 1 subtable" K.sc
Substitution2: "'aalt' Access All Alternates in Latin lookup 0 subtable" K.sc
EndChar

StartChar: l
Encoding: 108 108 77
Width: 245
Flags: W
LayerCount: 2
Back
Fore
SplineSet
233 72 m 1,0,-1
 220 -10 l 1,1,-1
 186 -10 l 2,2,3
 121 -10 121 -10 90 25 c 128,-1,4
 59 60 59 60 59 112 c 2,5,-1
 59 750 l 1,6,-1
 160 750 l 1,7,-1
 160 164 l 2,8,9
 160 133 160 133 162.5 115 c 128,-1,10
 165 97 165 97 172.5 87.5 c 128,-1,11
 180 78 180 78 194.5 75 c 128,-1,12
 209 72 209 72 233 72 c 1,0,-1
EndSplineSet
Substitution2: "'smcp' Lowercase to Small Capitals in Latin lookup 1 subtable" L.sc
Substitution2: "'aalt' Access All Alternates in Latin lookup 0 subtable" L.sc
EndChar

StartChar: m
Encoding: 109 109 78
Width: 873
Flags: W
LayerCount: 2
Back
Fore
SplineSet
818 0 m 1,0,-1
 717 0 l 1,1,-1
 717 281 l 2,2,3
 717 351 717 351 691.5 383 c 128,-1,4
 666 415 666 415 609 415 c 0,5,6
 490 415 490 415 490 293 c 2,7,-1
 490 0 l 1,8,-1
 388 0 l 1,9,-1
 388 270 l 2,10,11
 388 352 388 352 361 383.5 c 128,-1,12
 334 415 334 415 279 415 c 0,13,14
 197 415 197 415 162 359 c 1,15,-1
 162 0 l 1,16,-1
 60 0 l 1,17,-1
 60 493 l 1,18,-1
 141 493 l 1,19,-1
 150 446 l 1,20,21
 214 503 214 503 290 503 c 0,22,23
 400 503 400 503 452 412 c 1,24,25
 500 503 500 503 626 503 c 0,26,27
 722 503 722 503 770 447 c 128,-1,28
 818 391 818 391 818 282 c 2,29,-1
 818 0 l 1,0,-1
EndSplineSet
Substitution2: "'smcp' Lowercase to Small Capitals in Latin lookup 1 subtable" M.sc
Substitution2: "'aalt' Access All Alternates in Latin lookup 0 subtable" M.sc
EndChar

StartChar: n
Encoding: 110 110 79
Width: 557
Flags: W
LayerCount: 2
Back
Fore
SplineSet
502 0 m 1,0,-1
 400 0 l 1,1,-1
 400 270 l 2,2,3
 400 346 400 346 372.5 380.5 c 128,-1,4
 345 415 345 415 282 415 c 0,5,6
 196 415 196 415 162 358 c 1,7,-1
 162 0 l 1,8,-1
 60 0 l 1,9,-1
 60 493 l 1,10,-1
 146 493 l 1,11,-1
 153 449 l 1,12,13
 216 503 216 503 297 503 c 0,14,15
 502 503 502 503 502 270 c 2,16,-1
 502 0 l 1,0,-1
EndSplineSet
Substitution2: "'smcp' Lowercase to Small Capitals in Latin lookup 1 subtable" N.sc
Substitution2: "'aalt' Access All Alternates in Latin lookup 0 subtable" N.sc
EndChar

StartChar: o
Encoding: 111 111 80
Width: 555
Flags: W
LayerCount: 2
Back
Fore
SplineSet
277 -10 m 0,0,1
 221 -10 221 -10 175.5 9.5 c 128,-1,2
 130 29 130 29 98 63.5 c 128,-1,3
 66 98 66 98 48.5 144.5 c 128,-1,4
 31 191 31 191 31 246 c 0,5,6
 31 300 31 300 48 347 c 128,-1,7
 65 394 65 394 97 428.5 c 128,-1,8
 129 463 129 463 174.5 483 c 128,-1,9
 220 503 220 503 277 503 c 256,10,11
 334 503 334 503 379.5 483 c 128,-1,12
 425 463 425 463 457.5 428 c 128,-1,13
 490 393 490 393 507 346.5 c 128,-1,14
 524 300 524 300 524 246 c 256,15,16
 524 192 524 192 507 145.5 c 128,-1,17
 490 99 490 99 458 64.5 c 128,-1,18
 426 30 426 30 380 10 c 128,-1,19
 334 -10 334 -10 277 -10 c 0,0,1
382 370 m 0,20,21
 344 415 344 415 277 415 c 0,22,23
 209 415 209 415 172 370 c 128,-1,24
 135 325 135 325 135 246 c 256,25,26
 135 167 135 167 171.5 122.5 c 128,-1,27
 208 78 208 78 277 78 c 256,28,29
 346 78 346 78 383 123 c 128,-1,30
 420 168 420 168 420 246 c 256,31,32
 420 324 420 324 382 370 c 0,20,21
EndSplineSet
Substitution2: "'smcp' Lowercase to Small Capitals in Latin lookup 1 subtable" O.sc
Substitution2: "'aalt' Access All Alternates in Latin lookup 0 subtable" O.sc
EndChar

StartChar: p
Encoding: 112 112 81
Width: 561
Flags: W
LayerCount: 2
Back
Fore
SplineSet
302 -10 m 0,0,1
 265 -10 265 -10 226 5.5 c 128,-1,2
 187 21 187 21 161 49 c 1,3,-1
 161 -242 l 1,4,-1
 60 -242 l 1,5,-1
 60 493 l 1,6,-1
 143 493 l 1,7,-1
 153 438 l 1,8,9
 185 471 185 471 219 487 c 128,-1,10
 253 503 253 503 303 503 c 0,11,12
 356 503 356 503 398 482.5 c 128,-1,13
 440 462 440 462 469.5 426.5 c 128,-1,14
 499 391 499 391 514.5 344.5 c 128,-1,15
 530 298 530 298 530 246 c 0,16,17
 530 191 530 191 515 144.5 c 128,-1,18
 500 98 500 98 471 63.5 c 128,-1,19
 442 29 442 29 399.5 9.5 c 128,-1,20
 357 -10 357 -10 302 -10 c 0,0,1
293 415 m 0,21,22
 263 415 263 415 238 403.5 c 128,-1,23
 213 392 213 392 195 370 c 128,-1,24
 177 348 177 348 166.5 316.5 c 128,-1,25
 156 285 156 285 156 246 c 0,26,27
 156 165 156 165 194.5 121.5 c 128,-1,28
 233 78 233 78 293 78 c 0,29,30
 323 78 323 78 348 90.5 c 128,-1,31
 373 103 373 103 390 125.5 c 128,-1,32
 407 148 407 148 416.5 179 c 128,-1,33
 426 210 426 210 426 246 c 0,34,35
 426 321 426 321 391 368 c 128,-1,36
 356 415 356 415 293 415 c 0,21,22
EndSplineSet
Substitution2: "'smcp' Lowercase to Small Capitals in Latin lookup 1 subtable" P.sc
Substitution2: "'aalt' Access All Alternates in Latin lookup 0 subtable" P.sc
EndChar

StartChar: q
Encoding: 113 113 82
Width: 561
Flags: W
LayerCount: 2
Back
Fore
SplineSet
258 -10 m 0,0,1
 204 -10 204 -10 162 9 c 128,-1,2
 120 28 120 28 90.5 62 c 128,-1,3
 61 96 61 96 46 143 c 128,-1,4
 31 190 31 190 31 246 c 0,5,6
 31 298 31 298 46.5 344.5 c 128,-1,7
 62 391 62 391 91.5 426.5 c 128,-1,8
 121 462 121 462 163 482.5 c 128,-1,9
 205 503 205 503 258 503 c 0,10,11
 308 503 308 503 342 487 c 128,-1,12
 376 471 376 471 408 438 c 1,13,-1
 418 493 l 1,14,-1
 501 493 l 1,15,-1
 501 -242 l 1,16,-1
 400 -242 l 1,17,-1
 400 49 l 1,18,19
 374 21 374 21 334.5 5.5 c 128,-1,20
 295 -10 295 -10 258 -10 c 0,0,1
268 415 m 0,21,22
 205 415 205 415 170 368 c 128,-1,23
 135 321 135 321 135 246 c 0,24,25
 135 210 135 210 144.5 179 c 128,-1,26
 154 148 154 148 171 125.5 c 128,-1,27
 188 103 188 103 213 90.5 c 128,-1,28
 238 78 238 78 268 78 c 0,29,30
 328 78 328 78 366.5 121.5 c 128,-1,31
 405 165 405 165 405 246 c 0,32,33
 405 285 405 285 394.5 316.5 c 128,-1,34
 384 348 384 348 366 370 c 128,-1,35
 348 392 348 392 323 403.5 c 128,-1,36
 298 415 298 415 268 415 c 0,21,22
EndSplineSet
Substitution2: "'smcp' Lowercase to Small Capitals in Latin lookup 1 subtable" Q.sc
Substitution2: "'aalt' Access All Alternates in Latin lookup 0 subtable" Q.sc
EndChar

StartChar: r
Encoding: 114 114 83
Width: 328
Flags: W
LayerCount: 2
Back
Fore
SplineSet
328 508 m 1,0,-1
 307 403 l 1,1,-1
 271 403 l 2,2,3
 256 403 256 403 240 398 c 128,-1,4
 224 393 224 393 209.5 385 c 128,-1,5
 195 377 195 377 183.5 366.5 c 128,-1,6
 172 356 172 356 166 344 c 1,7,-1
 166 0 l 1,8,-1
 60 0 l 1,9,-1
 60 493 l 1,10,-1
 149 493 l 1,11,-1
 157 422 l 1,12,13
 235 508 235 508 312 508 c 2,14,-1
 328 508 l 1,0,-1
EndSplineSet
Substitution2: "'smcp' Lowercase to Small Capitals in Latin lookup 1 subtable" R.sc
Substitution2: "'aalt' Access All Alternates in Latin lookup 0 subtable" R.sc
EndChar

StartChar: s
Encoding: 115 115 84
Width: 419
Flags: W
LayerCount: 2
Back
Fore
SplineSet
201 -10 m 0,0,1
 94 -10 94 -10 33 31 c 1,2,-1
 44 124 l 1,3,4
 66 106 66 106 108.5 90 c 128,-1,5
 151 74 151 74 197 74 c 0,6,7
 242 74 242 74 264.5 90 c 128,-1,8
 287 106 287 106 287 133 c 0,9,10
 287 162 287 162 270 175.5 c 128,-1,11
 253 189 253 189 225.5 198 c 128,-1,12
 198 207 198 207 163 217.5 c 128,-1,13
 128 228 128 228 92 251 c 0,14,15
 66 268 66 268 53.5 292 c 128,-1,16
 41 316 41 316 41 352 c 0,17,18
 41 383 41 383 52 411 c 128,-1,19
 63 439 63 439 85.5 459 c 128,-1,20
 108 479 108 479 142.5 491 c 128,-1,21
 177 503 177 503 225 503 c 0,22,23
 305 503 305 503 366 469 c 1,24,-1
 355 379 l 1,25,26
 299 426 299 426 229 426 c 0,27,28
 187 426 187 426 162.5 410.5 c 128,-1,29
 138 395 138 395 138 363 c 0,30,31
 138 345 138 345 148.5 329.5 c 128,-1,32
 159 314 159 314 191 304 c 2,33,-1
 252 285 l 2,34,35
 276 278 276 278 300.5 267.5 c 128,-1,36
 325 257 325 257 345 240 c 128,-1,37
 365 223 365 223 378 197.5 c 128,-1,38
 391 172 391 172 391 136 c 0,39,40
 391 112 391 112 383.5 86.5 c 128,-1,41
 376 61 376 61 355 39.5 c 128,-1,42
 334 18 334 18 297 4 c 128,-1,43
 260 -10 260 -10 201 -10 c 0,0,1
EndSplineSet
Substitution2: "'smcp' Lowercase to Small Capitals in Latin lookup 1 subtable" S.sc
Substitution2: "'aalt' Access All Alternates in Latin lookup 0 subtable" S.sc
EndChar

StartChar: t
Encoding: 116 116 85
Width: 341
Flags: W
LayerCount: 2
Back
Fore
SplineSet
319 72 m 1,0,-1
 311 -10 l 1,1,-1
 227 -10 l 2,2,3
 161 -10 161 -10 129 25.5 c 128,-1,4
 97 61 97 61 97 112 c 2,5,-1
 97 412 l 1,6,-1
 17 412 l 1,7,-1
 26 493 l 1,8,-1
 97 493 l 1,9,-1
 97 611 l 1,10,-1
 199 621 l 1,11,-1
 199 493 l 1,12,-1
 321 493 l 1,13,-1
 321 412 l 1,14,-1
 199 412 l 1,15,-1
 199 165 l 2,16,17
 199 132 199 132 201 113.5 c 128,-1,18
 203 95 203 95 212.5 85.5 c 128,-1,19
 222 76 222 76 240.5 74 c 128,-1,20
 259 72 259 72 292 72 c 2,21,-1
 319 72 l 1,0,-1
EndSplineSet
Substitution2: "'smcp' Lowercase to Small Capitals in Latin lookup 1 subtable" T.sc
Substitution2: "'aalt' Access All Alternates in Latin lookup 0 subtable" T.sc
EndChar

StartChar: u
Encoding: 117 117 86
Width: 534
Flags: W
LayerCount: 2
Back
Fore
SplineSet
474 0 m 1,0,-1
 381 0 l 1,1,-1
 374 46 l 1,2,3
 327 -10 327 -10 247 -10 c 0,4,5
 55 -10 55 -10 55 214 c 2,6,-1
 55 493 l 1,7,-1
 157 493 l 1,8,-1
 157 230 l 2,9,10
 157 152 157 152 183 115 c 128,-1,11
 209 78 209 78 266 78 c 0,12,13
 336 78 336 78 372 129 c 1,14,-1
 372 493 l 1,15,-1
 474 493 l 1,16,-1
 474 0 l 1,0,-1
EndSplineSet
Substitution2: "'smcp' Lowercase to Small Capitals in Latin lookup 1 subtable" U.sc
Substitution2: "'aalt' Access All Alternates in Latin lookup 0 subtable" U.sc
EndChar

StartChar: v
Encoding: 118 118 87
Width: 491
Flags: W
LayerCount: 2
Back
Fore
SplineSet
485 493 m 1,0,-1
 297 0 l 1,1,-1
 195 0 l 1,2,-1
 6 493 l 1,3,-1
 114 493 l 1,4,-1
 246 118 l 1,5,-1
 377 493 l 1,6,-1
 485 493 l 1,0,-1
EndSplineSet
Substitution2: "'smcp' Lowercase to Small Capitals in Latin lookup 1 subtable" V.sc
Substitution2: "'aalt' Access All Alternates in Latin lookup 0 subtable" V.sc
EndChar

StartChar: w
Encoding: 119 119 88
Width: 723
Flags: W
LayerCount: 2
Back
Fore
SplineSet
713 493 m 1,0,-1
 566 0 l 1,1,-1
 464 0 l 1,2,-1
 361 350 l 1,3,-1
 258 0 l 1,4,-1
 156 0 l 1,5,-1
 10 493 l 1,6,-1
 121 493 l 1,7,-1
 212 117 l 1,8,-1
 313 480 l 1,9,-1
 409 480 l 1,10,-1
 510 117 l 1,11,-1
 602 493 l 1,12,-1
 713 493 l 1,0,-1
EndSplineSet
Substitution2: "'smcp' Lowercase to Small Capitals in Latin lookup 1 subtable" W.sc
Substitution2: "'aalt' Access All Alternates in Latin lookup 0 subtable" W.sc
EndChar

StartChar: x
Encoding: 120 120 89
Width: 479
Flags: W
LayerCount: 2
Back
Fore
SplineSet
469 0 m 1,0,-1
 352 0 l 1,1,-1
 239 175 l 1,2,-1
 127 0 l 1,3,-1
 10 0 l 1,4,-1
 178 246 l 1,5,-1
 13 493 l 1,6,-1
 130 493 l 1,7,-1
 242 318 l 1,8,-1
 345 493 l 1,9,-1
 465 493 l 1,10,-1
 304 251 l 1,11,-1
 469 0 l 1,0,-1
EndSplineSet
Substitution2: "'smcp' Lowercase to Small Capitals in Latin lookup 1 subtable" X.sc
Substitution2: "'aalt' Access All Alternates in Latin lookup 0 subtable" X.sc
EndChar

StartChar: y
Encoding: 121 121 90
Width: 515
Flags: W
LayerCount: 2
Back
Fore
SplineSet
510 493 m 1,0,-1
 205 -242 l 1,1,-1
 97 -242 l 1,2,-1
 209 26 l 1,3,-1
 4 493 l 1,4,-1
 117 493 l 1,5,-1
 262 144 l 1,6,-1
 397 493 l 1,7,-1
 510 493 l 1,0,-1
EndSplineSet
Substitution2: "'smcp' Lowercase to Small Capitals in Latin lookup 1 subtable" Y.sc
Substitution2: "'aalt' Access All Alternates in Latin lookup 0 subtable" Y.sc
EndChar

StartChar: z
Encoding: 122 122 91
Width: 471
Flags: W
LayerCount: 2
Back
Fore
SplineSet
448 493 m 1,0,-1
 201 84 l 1,1,-1
 441 84 l 1,2,-1
 441 0 l 1,3,-1
 22 0 l 1,4,-1
 269 410 l 1,5,-1
 32 410 l 1,6,-1
 32 493 l 1,7,-1
 448 493 l 1,0,-1
EndSplineSet
Substitution2: "'smcp' Lowercase to Small Capitals in Latin lookup 1 subtable" Z.sc
Substitution2: "'aalt' Access All Alternates in Latin lookup 0 subtable" Z.sc
EndChar

StartChar: braceleft
Encoding: 123 123 92
Width: 306
Flags: W
LayerCount: 2
Back
Fore
SplineSet
85 19 m 0,0,1
 85 26 85 26 86 45.5 c 128,-1,2
 87 65 87 65 88.5 87 c 128,-1,3
 90 109 90 109 91 130 c 128,-1,4
 92 151 92 151 92 161 c 0,5,6
 92 215 92 215 75.5 248.5 c 128,-1,7
 59 282 59 282 17 307 c 1,8,9
 58 332 58 332 75 365 c 128,-1,10
 92 398 92 398 92 454 c 0,11,12
 92 463 92 463 91 483.5 c 128,-1,13
 90 504 90 504 88.5 526.5 c 128,-1,14
 87 549 87 549 86 568.5 c 128,-1,15
 85 588 85 588 85 595 c 0,16,17
 85 632 85 632 96.5 660.5 c 128,-1,18
 108 689 108 689 133.5 708.5 c 128,-1,19
 159 728 159 728 200 738.5 c 128,-1,20
 241 749 241 749 300 750 c 1,21,-1
 300 667 l 1,22,23
 254 666 254 666 227 660 c 128,-1,24
 200 654 200 654 186.5 637 c 128,-1,25
 173 620 173 620 169.5 589 c 128,-1,26
 166 558 166 558 166 507 c 0,27,28
 166 501 166 501 166.5 489.5 c 128,-1,29
 167 478 167 478 167.5 464.5 c 128,-1,30
 168 451 168 451 168.5 439.5 c 128,-1,31
 169 428 169 428 169 422 c 0,32,33
 169 404 169 404 166 388.5 c 128,-1,34
 163 373 163 373 155 359.5 c 128,-1,35
 147 346 147 346 133 333 c 128,-1,36
 119 320 119 320 97 307 c 1,37,38
 141 282 141 282 155 258.5 c 128,-1,39
 169 235 169 235 169 201 c 0,40,41
 169 196 169 196 168.5 183.5 c 128,-1,42
 168 171 168 171 167.5 157 c 128,-1,43
 167 143 167 143 166.5 129.5 c 128,-1,44
 166 116 166 116 166 108 c 0,45,46
 166 56 166 56 170.5 24.5 c 128,-1,47
 175 -7 175 -7 189 -24 c 128,-1,48
 203 -41 203 -41 229.5 -46.5 c 128,-1,49
 256 -52 256 -52 300 -53 c 1,50,-1
 300 -135 l 1,51,52
 184 -133 184 -133 134.5 -95 c 128,-1,53
 85 -57 85 -57 85 19 c 0,0,1
EndSplineSet
EndChar

StartChar: bar
Encoding: 124 124 93
Width: 231
Flags: W
LayerCount: 2
Back
Fore
SplineSet
162 -209 m 1,0,-1
 69 -209 l 1,1,-1
 69 750 l 1,2,-1
 162 750 l 1,3,-1
 162 -209 l 1,0,-1
EndSplineSet
EndChar

StartChar: braceright
Encoding: 125 125 94
Width: 306
Flags: W
LayerCount: 2
Back
Fore
SplineSet
221 19 m 0,0,1
 221 -57 221 -57 171.5 -95 c 128,-1,2
 122 -133 122 -133 6 -135 c 1,3,-1
 6 -53 l 1,4,5
 55 -52 55 -52 82.5 -44 c 128,-1,6
 110 -36 110 -36 122.5 -17.5 c 128,-1,7
 135 1 135 1 137.5 31.5 c 128,-1,8
 140 62 140 62 140 108 c 0,9,10
 140 116 140 116 139.5 129.5 c 128,-1,11
 139 143 139 143 138.5 157 c 128,-1,12
 138 171 138 171 137.5 183.5 c 128,-1,13
 137 196 137 196 137 201 c 0,14,15
 137 235 137 235 151 258.5 c 128,-1,16
 165 282 165 282 209 307 c 1,17,18
 187 320 187 320 173 333 c 128,-1,19
 159 346 159 346 151 359.5 c 128,-1,20
 143 373 143 373 140 388.5 c 128,-1,21
 137 404 137 404 137 422 c 0,22,23
 137 428 137 428 137.5 439.5 c 128,-1,24
 138 451 138 451 138.5 464.5 c 128,-1,25
 139 478 139 478 139.5 489.5 c 128,-1,26
 140 501 140 501 140 507 c 0,27,28
 140 561 140 561 135 592.5 c 128,-1,29
 130 624 130 624 116 640.5 c 128,-1,30
 102 657 102 657 75.5 661.5 c 128,-1,31
 49 666 49 666 6 667 c 1,32,-1
 6 750 l 1,33,34
 65 749 65 749 106 738.5 c 128,-1,35
 147 728 147 728 172.5 708.5 c 128,-1,36
 198 689 198 689 209.5 660.5 c 128,-1,37
 221 632 221 632 221 595 c 0,38,39
 221 588 221 588 220 568.5 c 128,-1,40
 219 549 219 549 217.5 526.5 c 128,-1,41
 216 504 216 504 215 483.5 c 128,-1,42
 214 463 214 463 214 454 c 0,43,44
 214 398 214 398 231 365 c 128,-1,45
 248 332 248 332 289 307 c 1,46,47
 247 282 247 282 230.5 248.5 c 128,-1,48
 214 215 214 215 214 161 c 0,49,50
 214 151 214 151 215 130 c 128,-1,51
 216 109 216 109 217.5 87 c 128,-1,52
 219 65 219 65 220 45.5 c 128,-1,53
 221 26 221 26 221 19 c 0,0,1
EndSplineSet
EndChar

StartChar: asciitilde
Encoding: 126 126 95
Width: 460
Flags: W
LayerCount: 2
Back
Fore
SplineSet
298 178 m 0,0,1
 289 178 289 178 269.5 185.5 c 128,-1,2
 250 193 250 193 229.5 202 c 128,-1,3
 209 211 209 211 191.5 218.5 c 128,-1,4
 174 226 174 226 168 226 c 0,5,6
 120 226 120 226 105 178 c 1,7,-1
 52 190 l 1,8,9
 61 236 61 236 94 260 c 128,-1,10
 127 284 127 284 163 284 c 0,11,12
 173 284 173 284 193 277 c 128,-1,13
 213 270 213 270 233.5 261 c 128,-1,14
 254 252 254 252 271.5 245 c 128,-1,15
 289 238 289 238 295 238 c 0,16,17
 339 238 339 238 360 288 c 1,18,-1
 409 275 l 1,19,20
 399 232 399 232 369.5 205 c 128,-1,21
 340 178 340 178 298 178 c 0,0,1
EndSplineSet
EndChar

StartChar: exclamdown
Encoding: 161 161 97
Width: 240
Flags: W
LayerCount: 2
Back
Fore
SplineSet
58 -250 m 1,0,-1
 85 300 l 1,1,-1
 155 300 l 1,2,-1
 182 -250 l 1,3,-1
 58 -250 l 1,0,-1
71 500 m 1,4,-1
 169 500 l 1,5,-1
 169 401 l 1,6,-1
 71 401 l 1,7,-1
 71 500 l 1,4,-1
EndSplineSet
EndChar

StartChar: cent
Encoding: 162 162 98
Width: 476
Flags: W
LayerCount: 2
Back
Fore
SplineSet
321 -31 m 1,0,-1
 225 -31 l 1,1,-1
 242 90 l 1,2,3
 195 96 195 96 156.5 117.5 c 128,-1,4
 118 139 118 139 91 172.5 c 128,-1,5
 64 206 64 206 49 250 c 128,-1,6
 34 294 34 294 34 346 c 0,7,8
 34 395 34 395 47.5 439.5 c 128,-1,9
 61 484 61 484 87.5 518.5 c 128,-1,10
 114 553 114 553 153 576 c 128,-1,11
 192 599 192 599 242 606 c 1,12,-1
 225 748 l 1,13,-1
 321 748 l 1,14,-1
 305 607 l 1,15,16
 348 605 348 605 375.5 596.5 c 128,-1,17
 403 588 403 588 426 574 c 1,18,-1
 417 486 l 1,19,20
 387 503 387 503 356 512.5 c 128,-1,21
 325 522 325 522 293 522 c 0,22,23
 255 522 255 522 226.5 508.5 c 128,-1,24
 198 495 198 495 179 471.5 c 128,-1,25
 160 448 160 448 150.5 416 c 128,-1,26
 141 384 141 384 141 347 c 0,27,28
 141 269 141 269 181 221.5 c 128,-1,29
 221 174 221 174 295 174 c 0,30,31
 356 174 356 174 417 209 c 1,32,-1
 426 121 l 1,33,34
 408 109 408 109 383 100 c 128,-1,35
 358 91 358 91 305 88 c 1,36,-1
 321 -31 l 1,0,-1
EndSplineSet
EndChar

StartChar: sterling
Encoding: 163 163 99
Width: 510
Flags: W
LayerCount: 2
Back
Fore
SplineSet
420 563 m 1,0,1
 394 619 394 619 338 619 c 0,2,3
 308 619 308 619 291.5 611 c 128,-1,4
 275 603 275 603 267 586.5 c 128,-1,5
 259 570 259 570 257 544.5 c 128,-1,6
 255 519 255 519 255 485 c 2,7,-1
 255 399 l 1,8,-1
 444 399 l 1,9,-1
 426 307 l 1,10,-1
 249 307 l 1,11,12
 247 273 247 273 244.5 247.5 c 128,-1,13
 242 222 242 222 237 199.5 c 128,-1,14
 232 177 232 177 224.5 153.5 c 128,-1,15
 217 130 217 130 204 99 c 1,16,-1
 456 99 l 1,17,-1
 456 0 l 1,18,-1
 34 0 l 1,19,20
 61 35 61 35 79.5 69.5 c 128,-1,21
 98 104 98 104 111 141 c 128,-1,22
 124 178 124 178 131.5 218.5 c 128,-1,23
 139 259 139 259 144 307 c 1,24,-1
 51 307 l 1,25,-1
 69 399 l 1,26,-1
 150 399 l 1,27,-1
 150 507 l 2,28,29
 150 546 150 546 156.5 582.5 c 128,-1,30
 163 619 163 619 182.5 647.5 c 128,-1,31
 202 676 202 676 236.5 693.5 c 128,-1,32
 271 711 271 711 327 711 c 0,33,34
 393 711 393 711 433.5 687.5 c 128,-1,35
 474 664 474 664 488 622 c 1,36,-1
 420 563 l 1,0,1
EndSplineSet
EndChar

StartChar: currency
Encoding: 164 164 100
Width: 627
Flags: W
LayerCount: 2
Back
Fore
SplineSet
567 59 m 1,0,-1
 527 26 l 1,1,-1
 450 127 l 1,2,3
 418 109 418 109 383 100.5 c 128,-1,4
 348 92 348 92 313 92 c 256,5,6
 278 92 278 92 243 100.5 c 128,-1,7
 208 109 208 109 176 127 c 1,8,-1
 99 26 l 1,9,-1
 60 59 l 1,10,-1
 135 159 l 1,11,12
 61 239 61 239 61 348 c 256,13,14
 61 457 61 457 136 537 c 1,15,-1
 60 637 l 1,16,-1
 99 670 l 1,17,-1
 176 569 l 1,18,19
 244 604 244 604 313 604 c 0,20,21
 384 604 384 604 450 568 c 1,22,-1
 528 670 l 1,23,-1
 567 637 l 1,24,-1
 491 536 l 1,25,26
 565 456 565 456 565 348 c 256,27,28
 565 240 565 240 490 158 c 1,29,-1
 567 59 l 1,0,-1
423 477 m 0,30,31
 384 528 384 528 313 528 c 0,32,33
 278 528 278 528 250.5 515 c 128,-1,34
 223 502 223 502 203.5 478 c 128,-1,35
 184 454 184 454 173.5 421 c 128,-1,36
 163 388 163 388 163 348 c 0,37,38
 163 309 163 309 173 276 c 128,-1,39
 183 243 183 243 202 219 c 128,-1,40
 221 195 221 195 249 181.5 c 128,-1,41
 277 168 277 168 313 168 c 256,42,43
 349 168 349 168 377 182 c 128,-1,44
 405 196 405 196 424 220 c 128,-1,45
 443 244 443 244 453 277 c 128,-1,46
 463 310 463 310 463 348 c 0,47,48
 463 428 463 428 423 477 c 0,30,31
EndSplineSet
EndChar

StartChar: yen
Encoding: 165 165 101
Width: 683
Flags: W
LayerCount: 2
Back
Fore
SplineSet
402 323 m 1,0,-1
 570 323 l 1,1,-1
 547 264 l 1,2,-1
 395 264 l 1,3,-1
 395 202 l 1,4,-1
 570 202 l 1,5,-1
 547 143 l 1,6,-1
 395 143 l 1,7,-1
 395 0 l 1,8,-1
 288 0 l 1,9,-1
 288 143 l 1,10,-1
 115 143 l 1,11,-1
 137 202 l 1,12,-1
 288 202 l 1,13,-1
 288 264 l 1,14,-1
 115 264 l 1,15,-1
 137 323 l 1,16,-1
 282 323 l 1,17,-1
 28 700 l 1,18,-1
 135 700 l 1,19,-1
 342 404 l 1,20,-1
 549 700 l 1,21,-1
 656 700 l 1,22,-1
 402 323 l 1,0,-1
EndSplineSet
EndChar

StartChar: brokenbar
Encoding: 166 166 102
Width: 228
Flags: W
LayerCount: 2
Back
Fore
SplineSet
158 300 m 1,0,-1
 70 300 l 1,1,-1
 70 750 l 1,2,-1
 158 750 l 1,3,-1
 158 300 l 1,0,-1
158 -210 m 1,4,-1
 70 -210 l 1,5,-1
 70 172 l 1,6,-1
 158 172 l 1,7,-1
 158 -210 l 1,4,-1
EndSplineSet
EndChar

StartChar: section
Encoding: 167 167 103
Width: 458
Flags: W
LayerCount: 2
Back
Fore
SplineSet
322 187 m 1,0,1
 356 161 356 161 366 136.5 c 128,-1,2
 376 112 376 112 376 73 c 0,3,4
 376 42 376 42 366 13.5 c 128,-1,5
 356 -15 356 -15 335.5 -36.5 c 128,-1,6
 315 -58 315 -58 283 -71 c 128,-1,7
 251 -84 251 -84 207 -84 c 0,8,9
 186 -84 186 -84 164.5 -81 c 128,-1,10
 143 -78 143 -78 123.5 -72.5 c 128,-1,11
 104 -67 104 -67 88.5 -60 c 128,-1,12
 73 -53 73 -53 64 -45 c 1,13,-1
 75 33 l 1,14,15
 143 -11 143 -11 206 -11 c 0,16,17
 251 -11 251 -11 277.5 7 c 128,-1,18
 304 25 304 25 304 63 c 0,19,20
 304 96 304 96 284.5 114 c 128,-1,21
 265 132 265 132 235 144.5 c 128,-1,22
 205 157 205 157 171 168 c 128,-1,23
 137 179 137 179 107 198 c 128,-1,24
 77 217 77 217 57.5 248 c 128,-1,25
 38 279 38 279 38 331 c 0,26,27
 38 444 38 444 139 479 c 1,28,29
 82 521 82 521 82 586 c 0,30,31
 82 620 82 620 92 650 c 128,-1,32
 102 680 102 680 122 702.5 c 128,-1,33
 142 725 142 725 173.5 737.5 c 128,-1,34
 205 750 205 750 249 750 c 0,35,36
 292 750 292 750 332 738 c 128,-1,37
 372 726 372 726 395 710 c 1,38,-1
 383 632 l 1,39,40
 316 678 316 678 254 678 c 0,41,42
 212 678 212 678 185.5 657 c 128,-1,43
 159 636 159 636 159 601 c 0,44,45
 159 571 159 571 178.5 553.5 c 128,-1,46
 198 536 198 536 227 523 c 128,-1,47
 256 510 256 510 289.5 497.5 c 128,-1,48
 323 485 323 485 352 465 c 128,-1,49
 381 445 381 445 400.5 414 c 128,-1,50
 420 383 420 383 420 332 c 0,51,52
 420 229 420 229 322 187 c 1,0,1
202 428 m 1,53,54
 189 427 189 427 173.5 421.5 c 128,-1,55
 158 416 158 416 145 406 c 128,-1,56
 132 396 132 396 123.5 381 c 128,-1,57
 115 366 115 366 115 346 c 0,58,59
 115 267 115 267 267 229 c 1,60,61
 297 235 297 235 318 261.5 c 128,-1,62
 339 288 339 288 339 320 c 0,63,64
 339 395 339 395 202 428 c 1,53,54
EndSplineSet
EndChar

StartChar: dieresis
Encoding: 168 168 104
Width: 422
Flags: W
LayerCount: 2
Back
Fore
SplineSet
335 598 m 1,0,-1
 256 598 l 1,1,-1
 256 700 l 1,2,-1
 335 700 l 1,3,-1
 335 598 l 1,0,-1
166 598 m 1,4,-1
 87 598 l 1,5,-1
 87 700 l 1,6,-1
 166 700 l 1,7,-1
 166 598 l 1,4,-1
EndSplineSet
EndChar

StartChar: copyright
Encoding: 169 169 105
Width: 701
Flags: W
LayerCount: 2
Back
Fore
SplineSet
40 365 m 0,0,1
 40 439 40 439 63 499.5 c 128,-1,2
 86 560 86 560 127.5 603 c 128,-1,3
 169 646 169 646 226 669.5 c 128,-1,4
 283 693 283 693 351 693 c 256,5,6
 419 693 419 693 476 669.5 c 128,-1,7
 533 646 533 646 574 602.5 c 128,-1,8
 615 559 615 559 638 498.5 c 128,-1,9
 661 438 661 438 661 365 c 256,10,11
 661 292 661 292 638 232 c 128,-1,12
 615 172 615 172 574 128.5 c 128,-1,13
 533 85 533 85 476 61 c 128,-1,14
 419 37 419 37 351 37 c 256,15,16
 283 37 283 37 225.5 61 c 128,-1,17
 168 85 168 85 127 128 c 128,-1,18
 86 171 86 171 63 231.5 c 128,-1,19
 40 292 40 292 40 365 c 0,0,1
351 639 m 0,20,21
 289 639 289 639 242.5 618.5 c 128,-1,22
 196 598 196 598 164.5 562 c 128,-1,23
 133 526 133 526 117 475.5 c 128,-1,24
 101 425 101 425 101 365 c 256,25,26
 101 305 101 305 117 254.5 c 128,-1,27
 133 204 133 204 164.5 167.5 c 128,-1,28
 196 131 196 131 242.5 110.5 c 128,-1,29
 289 90 289 90 351 90 c 0,30,31
 412 90 412 90 458.5 110.5 c 128,-1,32
 505 131 505 131 536.5 167.5 c 128,-1,33
 568 204 568 204 584 254.5 c 128,-1,34
 600 305 600 305 600 365 c 256,35,36
 600 425 600 425 584 475.5 c 128,-1,37
 568 526 568 526 536.5 562 c 128,-1,38
 505 598 505 598 458.5 618.5 c 128,-1,39
 412 639 412 639 351 639 c 0,20,21
360 195 m 0,40,41
 325 195 325 195 295.5 207 c 128,-1,42
 266 219 266 219 245 241 c 128,-1,43
 224 263 224 263 212 294 c 128,-1,44
 200 325 200 325 200 363 c 0,45,46
 200 441 200 441 244 486.5 c 128,-1,47
 288 532 288 532 360 532 c 0,48,49
 409 532 409 532 454 512 c 1,50,-1
 446 443 l 1,51,52
 395 464 395 464 360 464 c 0,53,54
 318 464 318 464 296.5 436.5 c 128,-1,55
 275 409 275 409 275 363 c 0,56,57
 275 318 275 318 296.5 290 c 128,-1,58
 318 262 318 262 360 262 c 0,59,60
 398 262 398 262 446 284 c 1,61,-1
 454 216 l 1,62,63
 415 195 415 195 360 195 c 0,40,41
EndSplineSet
EndChar

StartChar: ordfeminine
Encoding: 170 170 106
Width: 355
Flags: W
LayerCount: 2
Back
Fore
SplineSet
318 503 m 1,0,-1
 312 434 l 1,1,-1
 274 434 l 2,2,3
 256 434 256 434 237.5 442 c 128,-1,4
 219 450 219 450 211 461 c 1,5,6
 182 434 182 434 118 434 c 0,7,8
 82 434 82 434 57.5 456.5 c 128,-1,9
 33 479 33 479 33 521 c 0,10,11
 33 551 33 551 51.5 570 c 128,-1,12
 70 589 70 589 96.5 600.5 c 128,-1,13
 123 612 123 612 151 617 c 128,-1,14
 179 622 179 622 198 623 c 1,15,16
 194 657 194 657 149 657 c 0,17,18
 118 657 118 657 64 639 c 1,19,-1
 59 706 l 1,20,21
 114 727 114 727 172 727 c 0,22,23
 223 727 223 727 253.5 703 c 128,-1,24
 284 679 284 679 284 628 c 2,25,-1
 284 539 l 2,26,27
 284 516 284 516 288.5 509.5 c 128,-1,28
 293 503 293 503 306 503 c 2,29,-1
 318 503 l 1,0,-1
199 505 m 1,30,-1
 199 568 l 1,31,32
 190 567 190 567 177 564 c 128,-1,33
 164 561 164 561 152 555 c 128,-1,34
 140 549 140 549 131.5 541.5 c 128,-1,35
 123 534 123 534 123 524 c 0,36,37
 123 496 123 496 160 496 c 0,38,39
 182 496 182 496 199 505 c 1,30,-1
EndSplineSet
EndChar

StartChar: guillemotleft
Encoding: 171 171 107
Width: 579
Flags: W
LayerCount: 2
Back
Fore
SplineSet
540 78 m 1,0,-1
 423 78 l 1,1,-1
 274 284 l 1,2,-1
 423 490 l 1,3,-1
 540 490 l 1,4,-1
 391 284 l 1,5,-1
 540 78 l 1,0,-1
279 78 m 1,6,-1
 163 78 l 1,7,-1
 14 284 l 1,8,-1
 163 490 l 1,9,-1
 279 490 l 1,10,-1
 131 284 l 1,11,-1
 279 78 l 1,6,-1
EndSplineSet
EndChar

StartChar: logicalnot
Encoding: 172 172 108
Width: 594
Flags: W
LayerCount: 2
Back
Fore
SplineSet
524 151 m 1,0,-1
 456 151 l 1,1,-1
 456 334 l 1,2,-1
 64 334 l 1,3,-1
 64 406 l 1,4,-1
 524 406 l 1,5,-1
 524 151 l 1,0,-1
EndSplineSet
EndChar

StartChar: uni00AD
Encoding: 173 173 109
Width: 422
Flags: W
LayerCount: 2
Back
Fore
SplineSet
366 230 m 1,0,-1
 56 230 l 1,1,-1
 56 324 l 1,2,-1
 366 324 l 1,3,-1
 366 230 l 1,0,-1
EndSplineSet
EndChar

StartChar: registered
Encoding: 174 174 110
Width: 701
Flags: W
LayerCount: 2
Back
Fore
SplineSet
40 365 m 0,0,1
 40 439 40 439 63 499.5 c 128,-1,2
 86 560 86 560 127.5 603 c 128,-1,3
 169 646 169 646 226 669.5 c 128,-1,4
 283 693 283 693 351 693 c 256,5,6
 419 693 419 693 476 669.5 c 128,-1,7
 533 646 533 646 574 602.5 c 128,-1,8
 615 559 615 559 638 498.5 c 128,-1,9
 661 438 661 438 661 365 c 256,10,11
 661 292 661 292 638 232 c 128,-1,12
 615 172 615 172 574 128.5 c 128,-1,13
 533 85 533 85 476 61 c 128,-1,14
 419 37 419 37 351 37 c 256,15,16
 283 37 283 37 225.5 61 c 128,-1,17
 168 85 168 85 127 128 c 128,-1,18
 86 171 86 171 63 231.5 c 128,-1,19
 40 292 40 292 40 365 c 0,0,1
351 640 m 0,20,21
 289 640 289 640 242.5 619.5 c 128,-1,22
 196 599 196 599 164 562.5 c 128,-1,23
 132 526 132 526 116 475.5 c 128,-1,24
 100 425 100 425 100 365 c 256,25,26
 100 305 100 305 116.5 254.5 c 128,-1,27
 133 204 133 204 164.5 167 c 128,-1,28
 196 130 196 130 243 109.5 c 128,-1,29
 290 89 290 89 351 89 c 256,30,31
 412 89 412 89 458.5 109.5 c 128,-1,32
 505 130 505 130 536.5 167 c 128,-1,33
 568 204 568 204 584.5 254.5 c 128,-1,34
 601 305 601 305 601 365 c 256,35,36
 601 425 601 425 584.5 475 c 128,-1,37
 568 525 568 525 536.5 562 c 128,-1,38
 505 599 505 599 458.5 619.5 c 128,-1,39
 412 640 412 640 351 640 c 0,20,21
486 208 m 1,40,-1
 413 208 l 1,41,-1
 349 323 l 1,42,-1
 303 323 l 1,43,-1
 303 208 l 1,44,-1
 232 208 l 1,45,-1
 232 533 l 1,46,-1
 353 533 l 2,47,48
 407 533 407 533 436.5 510 c 128,-1,49
 466 487 466 487 466 430 c 0,50,51
 466 377 466 377 414 343 c 1,52,-1
 486 208 l 1,40,-1
339 475 m 2,53,-1
 303 475 l 1,54,-1
 303 387 l 1,55,-1
 337 387 l 2,56,57
 392 387 392 387 392 432 c 0,58,59
 392 454 392 454 380.5 464.5 c 128,-1,60
 369 475 369 475 339 475 c 2,53,-1
EndSplineSet
EndChar

StartChar: degree
Encoding: 176 176 111
Width: 331
Flags: W
LayerCount: 2
Back
Fore
SplineSet
165 482 m 256,0,1
 135 482 135 482 110.5 492.5 c 128,-1,2
 86 503 86 503 69 521 c 128,-1,3
 52 539 52 539 42.5 564 c 128,-1,4
 33 589 33 589 33 618 c 256,5,6
 33 647 33 647 42.5 672 c 128,-1,7
 52 697 52 697 69 715.5 c 128,-1,8
 86 734 86 734 110.5 744.5 c 128,-1,9
 135 755 135 755 165 755 c 256,10,11
 195 755 195 755 220 744.5 c 128,-1,12
 245 734 245 734 262 715.5 c 128,-1,13
 279 697 279 697 288.5 672 c 128,-1,14
 298 647 298 647 298 618 c 256,15,16
 298 589 298 589 288.5 564 c 128,-1,17
 279 539 279 539 262 521 c 128,-1,18
 245 503 245 503 220 492.5 c 128,-1,19
 195 482 195 482 165 482 c 256,0,1
165 720 m 0,20,21
 128 720 128 720 106.5 690.5 c 128,-1,22
 85 661 85 661 85 618 c 0,23,24
 85 576 85 576 106.5 546.5 c 128,-1,25
 128 517 128 517 165 517 c 0,26,27
 204 517 204 517 224.5 546 c 128,-1,28
 245 575 245 575 245 618 c 256,29,30
 245 661 245 661 224 690.5 c 128,-1,31
 203 720 203 720 165 720 c 0,20,21
EndSplineSet
EndChar

StartChar: plusminus
Encoding: 177 177 112
Width: 494
Flags: W
LayerCount: 2
Back
Fore
SplineSet
432 321 m 1,0,-1
 284 321 l 1,1,-1
 284 183 l 1,2,-1
 210 183 l 1,3,-1
 210 321 l 1,4,-1
 62 321 l 1,5,-1
 62 397 l 1,6,-1
 210 397 l 1,7,-1
 210 532 l 1,8,-1
 284 532 l 1,9,-1
 284 397 l 1,10,-1
 432 397 l 1,11,-1
 432 321 l 1,0,-1
432 38 m 1,12,-1
 62 38 l 1,13,-1
 62 114 l 1,14,-1
 432 114 l 1,15,-1
 432 38 l 1,12,-1
EndSplineSet
EndChar

StartChar: uni00B2
Encoding: 178 178 113
Width: 307
Flags: W
LayerCount: 2
Back
Fore
SplineSet
274 320 m 1,0,-1
 23 320 l 1,1,2
 79 395 79 395 111.5 443.5 c 128,-1,3
 144 492 144 492 160 522 c 128,-1,4
 176 552 176 552 180 567.5 c 128,-1,5
 184 583 184 583 184 592 c 0,6,7
 184 615 184 615 171 628.5 c 128,-1,8
 158 642 158 642 134 642 c 0,9,10
 83 642 83 642 41 579 c 1,11,-1
 31 651 l 1,12,13
 42 672 42 672 73.5 689 c 128,-1,14
 105 706 105 706 150 706 c 0,15,16
 179 706 179 706 200 697.5 c 128,-1,17
 221 689 221 689 234.5 675 c 128,-1,18
 248 661 248 661 254.5 643 c 128,-1,19
 261 625 261 625 261 605 c 0,20,21
 261 540 261 540 163 400 c 1,22,-1
 274 400 l 1,23,-1
 274 320 l 1,0,-1
EndSplineSet
EndChar

StartChar: uni00B3
Encoding: 179 179 114
Width: 309
Flags: W
LayerCount: 2
Back
Fore
SplineSet
127 312 m 0,0,1
 111 312 111 312 93.5 315 c 128,-1,2
 76 318 76 318 61 322.5 c 128,-1,3
 46 327 46 327 34.5 332 c 128,-1,4
 23 337 23 337 19 342 c 1,5,-1
 39 416 l 1,6,7
 42 411 42 411 51 407 c 128,-1,8
 60 403 60 403 72 399.5 c 128,-1,9
 84 396 84 396 97.5 394 c 128,-1,10
 111 392 111 392 123 392 c 0,11,12
 197 392 197 392 197 433 c 0,13,14
 197 462 197 462 183.5 478.5 c 128,-1,15
 170 495 170 495 133 495 c 2,16,-1
 77 495 l 1,17,-1
 83 556 l 1,18,-1
 112 556 l 2,19,20
 180 556 180 556 180 598 c 0,21,22
 180 639 180 639 125 639 c 0,23,24
 73 639 73 639 57 624 c 1,25,-1
 45 681 l 1,26,27
 55 691 55 691 81 698.5 c 128,-1,28
 107 706 107 706 135 706 c 0,29,30
 171 706 171 706 195 697.5 c 128,-1,31
 219 689 219 689 234 674.5 c 128,-1,32
 249 660 249 660 255.5 641.5 c 128,-1,33
 262 623 262 623 262 603 c 0,34,35
 262 550 262 550 230 530 c 1,36,37
 277 492 277 492 277 438 c 0,38,39
 277 408 277 408 265 384.5 c 128,-1,40
 253 361 253 361 232.5 345 c 128,-1,41
 212 329 212 329 184.5 320.5 c 128,-1,42
 157 312 157 312 127 312 c 0,0,1
EndSplineSet
EndChar

StartChar: acute
Encoding: 180 180 115
Width: 303
Flags: W
LayerCount: 2
Back
Fore
SplineSet
245 655 m 1,0,-1
 58 592 l 1,1,-1
 58 645 l 1,2,-1
 245 738 l 1,3,-1
 245 655 l 1,0,-1
EndSplineSet
EndChar

StartChar: uni00B5
Encoding: 181 181 116
Width: 602
Flags: W
LayerCount: 2
Back
Fore
SplineSet
563 72 m 1,0,-1
 548 -10 l 1,1,-1
 516 -10 l 2,2,3
 437 -10 437 -10 409 56 c 1,4,5
 347 -10 347 -10 278 -10 c 0,6,7
 220 -10 220 -10 174 20 c 1,8,-1
 174 -242 l 1,9,-1
 74 -242 l 1,10,-1
 74 493 l 1,11,-1
 175 493 l 1,12,-1
 175 232 l 2,13,14
 175 152 175 152 199.5 115 c 128,-1,15
 224 78 224 78 289 78 c 0,16,17
 352 78 352 78 397 130 c 1,18,-1
 397 493 l 1,19,-1
 497 493 l 1,20,-1
 497 171 l 2,21,22
 497 115 497 115 506 93.5 c 128,-1,23
 515 72 515 72 543 72 c 2,24,-1
 563 72 l 1,0,-1
EndSplineSet
EndChar

StartChar: paragraph
Encoding: 182 182 117
Width: 623
Flags: W
LayerCount: 2
Back
Fore
SplineSet
580 619 m 1,0,-1
 507 619 l 1,1,-1
 507 0 l 1,2,-1
 445 0 l 1,3,-1
 445 619 l 1,4,-1
 358 619 l 1,5,-1
 358 0 l 1,6,-1
 307 0 l 1,7,-1
 307 238 l 1,8,9
 240 242 240 242 188.5 262 c 128,-1,10
 137 282 137 282 102.5 313.5 c 128,-1,11
 68 345 68 345 50.5 385.5 c 128,-1,12
 33 426 33 426 33 471 c 0,13,14
 33 517 33 517 52 558.5 c 128,-1,15
 71 600 71 600 107.5 631.5 c 128,-1,16
 144 663 144 663 197.5 681.5 c 128,-1,17
 251 700 251 700 321 700 c 2,18,-1
 580 700 l 1,19,-1
 580 619 l 1,0,-1
EndSplineSet
EndChar

StartChar: periodcentered
Encoding: 183 183 118
Width: 236
Flags: W
LayerCount: 2
Back
Fore
SplineSet
180 213 m 1,0,-1
 56 213 l 1,1,-1
 56 343 l 1,2,-1
 180 343 l 1,3,-1
 180 213 l 1,0,-1
EndSplineSet
EndChar

StartChar: cedilla
Encoding: 184 184 119
Width: 303
Flags: W
LayerCount: 2
Back
Fore
SplineSet
287 -53 m 1,0,-1
 194 -186 l 1,1,-1
 139 -193 l 1,2,-1
 208 -60 l 1,3,-1
 287 -53 l 1,0,-1
EndSplineSet
EndChar

StartChar: uni00B9
Encoding: 185 185 120
Width: 219
Flags: W
LayerCount: 2
Back
Fore
SplineSet
159 320 m 1,0,-1
 77 320 l 1,1,-1
 77 585 l 1,2,-1
 66 582 l 2,3,4
 58 580 58 580 48.5 577.5 c 128,-1,5
 39 575 39 575 30 574 c 1,6,-1
 25 639 l 1,7,8
 33 640 33 640 44 646 c 128,-1,9
 55 652 55 652 65.5 660.5 c 128,-1,10
 76 669 76 669 84 679 c 128,-1,11
 92 689 92 689 95 698 c 1,12,-1
 159 698 l 1,13,-1
 159 320 l 1,0,-1
EndSplineSet
EndChar

StartChar: ordmasculine
Encoding: 186 186 121
Width: 374
Flags: W
LayerCount: 2
Back
Fore
SplineSet
300 477 m 256,0,1
 258 434 258 434 187 434 c 0,2,3
 152 434 152 434 123 445.5 c 128,-1,4
 94 457 94 457 74 477 c 128,-1,5
 54 497 54 497 43 524 c 128,-1,6
 32 551 32 551 32 581 c 0,7,8
 32 612 32 612 43 638.5 c 128,-1,9
 54 665 54 665 74.5 684.5 c 128,-1,10
 95 704 95 704 123.5 715.5 c 128,-1,11
 152 727 152 727 187 727 c 256,12,13
 222 727 222 727 250.5 715.5 c 128,-1,14
 279 704 279 704 299.5 684.5 c 128,-1,15
 320 665 320 665 331 638.5 c 128,-1,16
 342 612 342 612 342 581 c 0,17,18
 342 520 342 520 300 477 c 256,0,1
236 639 m 0,19,20
 227 650 227 650 214 656 c 128,-1,21
 201 662 201 662 187 662 c 0,22,23
 155 662 155 662 137 638.5 c 128,-1,24
 119 615 119 615 119 581 c 256,25,26
 119 547 119 547 137 523.5 c 128,-1,27
 155 500 155 500 187 500 c 0,28,29
 218 500 218 500 236.5 524 c 128,-1,30
 255 548 255 548 255 581 c 256,31,32
 255 614 255 614 236 639 c 0,19,20
EndSplineSet
EndChar

StartChar: guillemotright
Encoding: 187 187 122
Width: 579
Flags: W
LayerCount: 2
Back
Fore
SplineSet
565 284 m 1,0,-1
 417 78 l 1,1,-1
 300 78 l 1,2,-1
 449 284 l 1,3,-1
 300 490 l 1,4,-1
 417 490 l 1,5,-1
 565 284 l 1,0,-1
306 284 m 1,6,-1
 157 78 l 1,7,-1
 40 78 l 1,8,-1
 190 284 l 1,9,-1
 40 490 l 1,10,-1
 157 490 l 1,11,-1
 306 284 l 1,6,-1
EndSplineSet
EndChar

StartChar: questiondown
Encoding: 191 191 126
Width: 442
Flags: W
LayerCount: 2
Back
Fore
SplineSet
219 300 m 1,0,-1
 287 300 l 1,1,2
 290 256 290 256 290 252 c 0,3,4
 290 205 290 205 268 167.5 c 128,-1,5
 246 130 246 130 219.5 95 c 128,-1,6
 193 60 193 60 171 23 c 128,-1,7
 149 -14 149 -14 149 -60 c 0,8,9
 149 -115 149 -115 183.5 -144 c 128,-1,10
 218 -173 218 -173 267 -173 c 0,11,12
 310 -173 310 -173 345.5 -152 c 128,-1,13
 381 -131 381 -131 396 -106 c 1,14,-1
 422 -182 l 1,15,16
 402 -213 402 -213 358.5 -231.5 c 128,-1,17
 315 -250 315 -250 263 -250 c 0,18,19
 215 -250 215 -250 176.5 -233.5 c 128,-1,20
 138 -217 138 -217 111 -190.5 c 128,-1,21
 84 -164 84 -164 69 -130.5 c 128,-1,22
 54 -97 54 -97 54 -62 c 0,23,24
 54 -31 54 -31 66 -1.5 c 128,-1,25
 78 28 78 28 96.5 55.5 c 128,-1,26
 115 83 115 83 136.5 110 c 128,-1,27
 158 137 158 137 176.5 164.5 c 128,-1,28
 195 192 195 192 207 220 c 128,-1,29
 219 248 219 248 219 278 c 2,30,-1
 219 300 l 1,0,-1
201 500 m 1,31,-1
 303 500 l 1,32,-1
 303 401 l 1,33,-1
 201 401 l 1,34,-1
 201 500 l 1,31,-1
EndSplineSet
EndChar

StartChar: AE
Encoding: 198 198 133
Width: 866
Flags: W
LayerCount: 2
Back
Fore
SplineSet
830 0 m 1,0,-1
 394 0 l 1,1,-1
 394 176 l 1,2,-1
 187 176 l 1,3,-1
 99 0 l 1,4,-1
 -8 0 l 1,5,-1
 334 700 l 1,6,-1
 820 700 l 1,7,-1
 820 600 l 1,8,-1
 514 600 l 1,9,-1
 514 415 l 1,10,-1
 750 415 l 1,11,-1
 750 316 l 1,12,-1
 514 316 l 1,13,-1
 514 99 l 1,14,-1
 830 99 l 1,15,-1
 830 0 l 1,0,-1
394 279 m 1,16,-1
 394 598 l 1,17,-1
 235 279 l 1,18,-1
 394 279 l 1,16,-1
EndSplineSet
EndChar

StartChar: Eth
Encoding: 208 208 143
Width: 730
Flags: W
LayerCount: 2
Back
Fore
SplineSet
346 0 m 2,0,-1
 88 0 l 1,1,-1
 88 308 l 1,2,-1
 -7 308 l 1,3,-1
 -7 383 l 1,4,-1
 88 383 l 1,5,-1
 88 700 l 1,6,-1
 346 700 l 2,7,8
 422 700 422 700 485.5 675.5 c 128,-1,9
 549 651 549 651 595 606 c 128,-1,10
 641 561 641 561 666 496 c 128,-1,11
 691 431 691 431 691 350 c 256,12,13
 691 269 691 269 666 204.5 c 128,-1,14
 641 140 641 140 596 94.5 c 128,-1,15
 551 49 551 49 487.5 24.5 c 128,-1,16
 424 0 424 0 346 0 c 2,0,-1
346 601 m 2,17,-1
 191 601 l 1,18,-1
 191 383 l 1,19,-1
 320 383 l 1,20,-1
 320 308 l 1,21,-1
 191 308 l 1,22,-1
 191 99 l 1,23,-1
 346 99 l 2,24,25
 458 99 458 99 517 165.5 c 128,-1,26
 576 232 576 232 576 350 c 256,27,28
 576 468 576 468 517 534.5 c 128,-1,29
 458 601 458 601 346 601 c 2,17,-1
EndSplineSet
EndChar

StartChar: multiply
Encoding: 215 215 150
Width: 441
Flags: W
LayerCount: 2
Back
Fore
SplineSet
382 160 m 1,0,-1
 337 116 l 1,1,-1
 220 233 l 1,2,-1
 103 116 l 1,3,-1
 59 160 l 1,4,-1
 176 277 l 1,5,-1
 59 394 l 1,6,-1
 103 438 l 1,7,-1
 220 321 l 1,8,-1
 337 438 l 1,9,-1
 382 394 l 1,10,-1
 264 277 l 1,11,-1
 382 160 l 1,0,-1
EndSplineSet
EndChar

StartChar: Oslash
Encoding: 216 216 151
Width: 765
Flags: W
LayerCount: 2
Back
Fore
SplineSet
382 -13 m 0,0,1
 296 -13 296 -13 212 28 c 1,2,-1
 172 -30 l 1,3,-1
 64 -30 l 1,4,-1
 140 79 l 1,5,6
 38 188 38 188 38 350 c 0,7,8
 38 432 38 432 63.5 499 c 128,-1,9
 89 566 89 566 135 614 c 128,-1,10
 181 662 181 662 244.5 688 c 128,-1,11
 308 714 308 714 383 714 c 0,12,13
 469 714 469 714 549 675 c 1,14,-1
 578 716 l 1,15,-1
 685 716 l 1,16,-1
 621 623 l 1,17,18
 728 513 728 513 728 349 c 0,19,20
 728 268 728 268 702.5 201.5 c 128,-1,21
 677 135 677 135 631 87 c 128,-1,22
 585 39 585 39 521.5 13 c 128,-1,23
 458 -13 458 -13 382 -13 c 0,0,1
558 532 m 1,24,-1
 271 112 l 1,25,26
 328 87 328 87 383 87 c 256,27,28
 438 87 438 87 480.5 106.5 c 128,-1,29
 523 126 523 126 551.5 161.5 c 128,-1,30
 580 197 580 197 594.5 245.5 c 128,-1,31
 609 294 609 294 609 351 c 0,32,33
 609 464 609 464 558 532 c 1,24,-1
382 613 m 0,34,35
 327 613 327 613 285 593.5 c 128,-1,36
 243 574 243 574 214.5 539 c 128,-1,37
 186 504 186 504 171.5 455.5 c 128,-1,38
 157 407 157 407 157 349 c 0,39,40
 157 256 157 256 205 172 c 1,41,-1
 490 589 l 1,42,43
 434 613 434 613 382 613 c 0,34,35
EndSplineSet
EndChar

StartChar: Thorn
Encoding: 222 222 157
Width: 568
Flags: W
LayerCount: 2
Back
Fore
SplineSet
189 121 m 1,0,-1
 189 0 l 1,1,-1
 79 0 l 1,2,-1
 79 700 l 1,3,-1
 189 700 l 1,4,-1
 189 581 l 1,5,-1
 295 581 l 2,6,7
 352 581 352 581 400 573.5 c 128,-1,8
 448 566 448 566 483.5 542.5 c 128,-1,9
 519 519 519 519 538.5 476 c 128,-1,10
 558 433 558 433 558 362 c 256,11,12
 558 291 558 291 536 244.5 c 128,-1,13
 514 198 514 198 480.5 170.5 c 128,-1,14
 447 143 447 143 407.5 132 c 128,-1,15
 368 121 368 121 332 121 c 2,16,-1
 189 121 l 1,0,-1
189 489 m 1,17,-1
 189 218 l 1,18,-1
 314 218 l 2,19,20
 386 218 386 218 417 253 c 128,-1,21
 448 288 448 288 448 359 c 0,22,23
 448 394 448 394 440.5 418.5 c 128,-1,24
 433 443 433 443 415.5 459 c 128,-1,25
 398 475 398 475 368.5 482 c 128,-1,26
 339 489 339 489 295 489 c 2,27,-1
 189 489 l 1,17,-1
EndSplineSet
EndChar

StartChar: germandbls
Encoding: 223 223 158
Width: 557
Flags: W
LayerCount: 2
Back
Fore
SplineSet
323 -10 m 0,0,1
 306 -10 306 -10 294.5 -9 c 128,-1,2
 283 -8 283 -8 269 -6 c 1,3,-1
 269 78 l 1,4,5
 310 78 310 78 342 79 c 128,-1,6
 374 80 374 80 396 86.5 c 128,-1,7
 418 93 418 93 429.5 107 c 128,-1,8
 441 121 441 121 441 147 c 0,9,10
 441 174 441 174 429 196.5 c 128,-1,11
 417 219 417 219 399.5 238.5 c 128,-1,12
 382 258 382 258 361.5 274.5 c 128,-1,13
 341 291 341 291 323.5 306.5 c 128,-1,14
 306 322 306 322 294 336.5 c 128,-1,15
 282 351 282 351 282 367 c 0,16,17
 282 386 282 386 297.5 406.5 c 128,-1,18
 313 427 313 427 332 451.5 c 128,-1,19
 351 476 351 476 366.5 506 c 128,-1,20
 382 536 382 536 382 574 c 0,21,22
 382 599 382 599 374.5 616 c 128,-1,23
 367 633 367 633 354.5 643.5 c 128,-1,24
 342 654 342 654 325 658 c 128,-1,25
 308 662 308 662 290 662 c 0,26,27
 242 662 242 662 218.5 637 c 128,-1,28
 195 612 195 612 195 552 c 2,29,-1
 195 -136 l 1,30,-1
 93 -136 l 1,31,-1
 93 412 l 1,32,-1
 13 412 l 1,33,-1
 24 493 l 1,34,-1
 93 493 l 1,35,-1
 93 569 l 2,36,37
 93 612 93 612 109 645.5 c 128,-1,38
 125 679 125 679 152 702.5 c 128,-1,39
 179 726 179 726 215 738 c 128,-1,40
 251 750 251 750 292 750 c 0,41,42
 328 750 328 750 362 740.5 c 128,-1,43
 396 731 396 731 423 710.5 c 128,-1,44
 450 690 450 690 466.5 657 c 128,-1,45
 483 624 483 624 483 578 c 0,46,47
 483 534 483 534 469 501 c 128,-1,48
 455 468 455 468 437.5 443 c 128,-1,49
 420 418 420 418 406 401 c 128,-1,50
 392 384 392 384 392 374 c 0,51,52
 392 365 392 365 403.5 354.5 c 128,-1,53
 415 344 415 344 432 330 c 128,-1,54
 449 316 449 316 468.5 298.5 c 128,-1,55
 488 281 488 281 505 259 c 128,-1,56
 522 237 522 237 533.5 209 c 128,-1,57
 545 181 545 181 545 147 c 0,58,59
 545 104 545 104 526.5 74 c 128,-1,60
 508 44 508 44 477 25.5 c 128,-1,61
 446 7 446 7 406 -1.5 c 128,-1,62
 366 -10 366 -10 323 -10 c 0,0,1
EndSplineSet
EndChar

StartChar: ae
Encoding: 230 230 165
Width: 798
Flags: W
LayerCount: 2
Back
Fore
SplineSet
763 237 m 1,0,-1
 433 237 l 1,1,2
 437 156 437 156 479.5 114 c 128,-1,3
 522 72 522 72 591 72 c 0,4,5
 648 72 648 72 731 111 c 1,6,-1
 745 29 l 1,7,8
 659 -10 659 -10 581 -10 c 0,9,10
 432 -10 432 -10 380 96 c 1,11,12
 351 42 351 42 298.5 14 c 128,-1,13
 246 -14 246 -14 177 -14 c 0,14,15
 101 -14 101 -14 61.5 22 c 128,-1,16
 22 58 22 58 22 121 c 0,17,18
 22 179 22 179 52.5 215 c 128,-1,19
 83 251 83 251 128 271 c 128,-1,20
 173 291 173 291 224 299 c 128,-1,21
 275 307 275 307 316 309 c 1,22,23
 310 366 310 366 286 389.5 c 128,-1,24
 262 413 262 413 208 413 c 0,25,26
 150 413 150 413 81 381 c 1,27,-1
 72 462 l 1,28,29
 160 503 160 503 236 503 c 0,30,31
 257 503 257 503 281.5 498.5 c 128,-1,32
 306 494 306 494 328 481.5 c 128,-1,33
 350 469 350 469 367.5 447.5 c 128,-1,34
 385 426 385 426 392 393 c 1,35,36
 410 447 410 447 461 475 c 128,-1,37
 512 503 512 503 575 503 c 0,38,39
 618 503 618 503 654 489 c 128,-1,40
 690 475 690 475 715 448.5 c 128,-1,41
 740 422 740 422 754 384 c 128,-1,42
 768 346 768 346 768 298 c 0,43,44
 768 284 768 284 766.5 268.5 c 128,-1,45
 765 253 765 253 763 237 c 1,0,-1
571 415 m 0,46,47
 466 415 466 415 439 307 c 1,48,-1
 673 307 l 1,49,50
 673 358 673 358 647.5 386.5 c 128,-1,51
 622 415 622 415 571 415 c 0,46,47
324 240 m 1,52,53
 293 239 293 239 258.5 233.5 c 128,-1,54
 224 228 224 228 194.5 215 c 128,-1,55
 165 202 165 202 146 181.5 c 128,-1,56
 127 161 127 161 127 130 c 256,57,58
 127 99 127 99 147 84 c 128,-1,59
 167 69 167 69 199 69 c 0,60,61
 223 69 223 69 246 77 c 128,-1,62
 269 85 269 85 286.5 101.5 c 128,-1,63
 304 118 304 118 315 142.5 c 128,-1,64
 326 167 326 167 326 199 c 0,65,66
 326 212 326 212 325.5 222 c 128,-1,67
 325 232 325 232 324 240 c 1,52,53
EndSplineSet
Substitution2: "'smcp' Lowercase to Small Capitals in Latin lookup 1 subtable" AE.sc
Substitution2: "'aalt' Access All Alternates in Latin lookup 0 subtable" AE.sc
EndChar

StartChar: eth
Encoding: 240 240 175
Width: 519
Flags: W
LayerCount: 2
Back
Fore
SplineSet
245 -12 m 0,0,1
 197 -12 197 -12 156.5 4 c 128,-1,2
 116 20 116 20 86 48.5 c 128,-1,3
 56 77 56 77 39 116 c 128,-1,4
 22 155 22 155 22 202 c 0,5,6
 22 245 22 245 36 285.5 c 128,-1,7
 50 326 50 326 77 357 c 128,-1,8
 104 388 104 388 143.5 407 c 128,-1,9
 183 426 183 426 234 426 c 0,10,11
 312 426 312 426 362 377 c 1,12,13
 360 397 360 397 352.5 423 c 128,-1,14
 345 449 345 449 334 474.5 c 128,-1,15
 323 500 323 500 309.5 521 c 128,-1,16
 296 542 296 542 283 552 c 1,17,18
 209 501 209 501 143 492 c 1,19,-1
 110 553 l 1,20,21
 172 561 172 561 235 603 c 1,22,23
 176 655 176 655 115 655 c 1,24,-1
 150 701 l 1,25,26
 221 701 221 701 298 647 c 1,27,28
 333 677 333 677 356 710 c 1,29,-1
 409 697 l 1,30,31
 377 650 377 650 340 610 c 1,32,33
 371 579 371 579 396.5 539 c 128,-1,34
 422 499 422 499 440 453.5 c 128,-1,35
 458 408 458 408 468 358 c 128,-1,36
 478 308 478 308 478 257 c 0,37,38
 478 177 478 177 455.5 125 c 128,-1,39
 433 73 433 73 399 42.5 c 128,-1,40
 365 12 365 12 323.5 0 c 128,-1,41
 282 -12 282 -12 245 -12 c 0,0,1
248 338 m 0,42,43
 221 338 221 338 199 328 c 128,-1,44
 177 318 177 318 161.5 301 c 128,-1,45
 146 284 146 284 137.5 261 c 128,-1,46
 129 238 129 238 129 213 c 0,47,48
 129 184 129 184 137.5 159.5 c 128,-1,49
 146 135 146 135 161.5 116.5 c 128,-1,50
 177 98 177 98 199 87.5 c 128,-1,51
 221 77 221 77 248 77 c 0,52,53
 299 77 299 77 331.5 112.5 c 128,-1,54
 364 148 364 148 364 208 c 256,55,56
 364 268 364 268 333 303 c 128,-1,57
 302 338 302 338 248 338 c 0,42,43
EndSplineSet
EndChar

StartChar: divide
Encoding: 247 247 182
Width: 586
Flags: W
LayerCount: 2
Back
Fore
SplineSet
339 428 m 1,0,-1
 238 428 l 1,1,-1
 238 534 l 1,2,-1
 339 534 l 1,3,-1
 339 428 l 1,0,-1
523 240 m 1,4,-1
 63 240 l 1,5,-1
 63 321 l 1,6,-1
 523 321 l 1,7,-1
 523 240 l 1,4,-1
339 20 m 1,8,-1
 238 20 l 1,9,-1
 238 126 l 1,10,-1
 339 126 l 1,11,-1
 339 20 l 1,8,-1
EndSplineSet
EndChar

StartChar: oslash
Encoding: 248 248 183
Width: 567
Flags: W
LayerCount: 2
Back
Fore
SplineSet
284 -9 m 0,0,1
 266 -9 266 -9 246 -6.5 c 128,-1,2
 226 -4 226 -4 204 1 c 1,3,-1
 186 -35 l 1,4,-1
 102 -35 l 1,5,-1
 136 34 l 1,6,7
 31 112 31 112 31 249 c 0,8,9
 31 304 31 304 49 351 c 128,-1,10
 67 398 67 398 100 432.5 c 128,-1,11
 133 467 133 467 179.5 487 c 128,-1,12
 226 507 226 507 283 507 c 0,13,14
 319 507 319 507 361 496 c 1,15,-1
 379 534 l 1,16,-1
 466 534 l 1,17,-1
 430 465 l 1,18,19
 537 384 537 384 537 248 c 0,20,21
 537 194 537 194 519.5 147.5 c 128,-1,22
 502 101 502 101 469 66 c 128,-1,23
 436 31 436 31 389 11 c 128,-1,24
 342 -9 342 -9 284 -9 c 0,0,1
391 381 m 1,25,-1
 241 77 l 1,26,27
 257 75 257 75 267.5 73.5 c 128,-1,28
 278 72 278 72 285 72 c 0,29,30
 319 72 319 72 346 85 c 128,-1,31
 373 98 373 98 391.5 121.5 c 128,-1,32
 410 145 410 145 420 177 c 128,-1,33
 430 209 430 209 430 248 c 0,34,35
 430 267 430 267 427.5 287 c 128,-1,36
 425 307 425 307 420 325 c 128,-1,37
 415 343 415 343 407.5 357.5 c 128,-1,38
 400 372 400 372 391 381 c 1,25,-1
283 426 m 0,39,40
 214 426 214 426 176 376.5 c 128,-1,41
 138 327 138 327 138 248 c 0,42,43
 138 185 138 185 176 117 c 1,44,-1
 324 420 l 1,45,46
 295 426 295 426 283 426 c 0,39,40
EndSplineSet
EndChar

StartChar: thorn
Encoding: 254 254 189
Width: 578
Flags: W
LayerCount: 2
Back
Fore
SplineSet
302 -10 m 0,0,1
 211 -10 211 -10 162 45 c 1,2,-1
 162 -241 l 1,3,-1
 60 -241 l 1,4,-1
 60 750 l 1,5,-1
 162 750 l 1,6,-1
 162 451 l 1,7,8
 220 503 220 503 306 503 c 0,9,10
 361 503 361 503 406 483 c 128,-1,11
 451 463 451 463 482 428.5 c 128,-1,12
 513 394 513 394 530 347 c 128,-1,13
 547 300 547 300 547 246 c 256,14,15
 547 192 547 192 530.5 145 c 128,-1,16
 514 98 514 98 482.5 63.5 c 128,-1,17
 451 29 451 29 405.5 9.5 c 128,-1,18
 360 -10 360 -10 302 -10 c 0,0,1
155 246 m 0,19,20
 155 167 155 167 188.5 119.5 c 128,-1,21
 222 72 222 72 294 72 c 256,22,23
 366 72 366 72 405 120 c 128,-1,24
 444 168 444 168 444 246 c 256,25,26
 444 324 444 324 405 369.5 c 128,-1,27
 366 415 366 415 294 415 c 256,28,29
 222 415 222 415 188.5 369.5 c 128,-1,30
 155 324 155 324 155 246 c 0,19,20
EndSplineSet
EndChar

StartChar: dotlessi
Encoding: 305 305 193
Width: 222
Flags: W
LayerCount: 2
Back
Fore
SplineSet
162 0 m 1,0,-1
 60 0 l 1,1,-1
 60 493 l 1,2,-1
 162 493 l 1,3,-1
 162 0 l 1,0,-1
EndSplineSet
EndChar

StartChar: OE
Encoding: 338 338 194
Width: 1068
Flags: W
LayerCount: 2
Back
Fore
SplineSet
1032 0 m 1,0,-1
 613 0 l 1,1,-1
 613 73 l 1,2,3
 497 -14 497 -14 378 -14 c 0,4,5
 304 -14 304 -14 241.5 12 c 128,-1,6
 179 38 179 38 134 86 c 128,-1,7
 89 134 89 134 63.5 201 c 128,-1,8
 38 268 38 268 38 350 c 256,9,10
 38 432 38 432 63.5 499 c 128,-1,11
 89 566 89 566 134 614 c 128,-1,12
 179 662 179 662 241.5 688 c 128,-1,13
 304 714 304 714 378 714 c 0,14,15
 497 714 497 714 613 627 c 1,16,-1
 613 699 l 1,17,-1
 1023 699 l 1,18,-1
 1023 601 l 1,19,-1
 718 601 l 1,20,-1
 718 415 l 1,21,-1
 952 415 l 1,22,-1
 952 316 l 1,23,-1
 718 316 l 1,24,-1
 718 99 l 1,25,-1
 1032 99 l 1,26,-1
 1032 0 l 1,0,-1
545 541 m 256,27,28
 486 615 486 615 378 615 c 0,29,30
 323 615 323 615 280.5 595.5 c 128,-1,31
 238 576 238 576 209.5 540.5 c 128,-1,32
 181 505 181 505 166.5 456.5 c 128,-1,33
 152 408 152 408 152 350 c 0,34,35
 152 291 152 291 166.5 242.5 c 128,-1,36
 181 194 181 194 209.5 159 c 128,-1,37
 238 124 238 124 280 104.5 c 128,-1,38
 322 85 322 85 378 85 c 0,39,40
 433 85 433 85 475 104.5 c 128,-1,41
 517 124 517 124 545.5 159.5 c 128,-1,42
 574 195 574 195 589 243.5 c 128,-1,43
 604 292 604 292 604 350 c 0,44,45
 604 467 604 467 545 541 c 256,27,28
EndSplineSet
EndChar

StartChar: oe
Encoding: 339 339 195
Width: 900
Flags: W
LayerCount: 2
Back
Fore
SplineSet
865 237 m 1,0,-1
 529 237 l 1,1,2
 530 186 530 186 546 154 c 128,-1,3
 562 122 562 122 585 104 c 128,-1,4
 608 86 608 86 634.5 79 c 128,-1,5
 661 72 661 72 683 72 c 0,6,7
 764 72 764 72 838 111 c 1,8,-1
 847 24 l 1,9,10
 776 -10 776 -10 689 -10 c 0,11,12
 528 -10 528 -10 474 88 c 1,13,14
 449 42 449 42 395.5 16 c 128,-1,15
 342 -10 342 -10 278 -10 c 0,16,17
 221 -10 221 -10 175 10 c 128,-1,18
 129 30 129 30 96.5 65 c 128,-1,19
 64 100 64 100 47 147.5 c 128,-1,20
 30 195 30 195 30 250 c 0,21,22
 30 304 30 304 47.5 350.5 c 128,-1,23
 65 397 65 397 97.5 431 c 128,-1,24
 130 465 130 465 176.5 484 c 128,-1,25
 223 503 223 503 281 503 c 0,26,27
 341 503 341 503 393.5 478.5 c 128,-1,28
 446 454 446 454 471 409 c 1,29,30
 499 454 499 454 549.5 478.5 c 128,-1,31
 600 503 600 503 655 503 c 0,32,33
 702 503 702 503 741.5 488.5 c 128,-1,34
 781 474 781 474 809.5 446.5 c 128,-1,35
 838 419 838 419 854 380.5 c 128,-1,36
 870 342 870 342 870 294 c 0,37,38
 870 282 870 282 868.5 268 c 128,-1,39
 867 254 867 254 865 237 c 1,0,-1
655 415 m 0,40,41
 553 415 553 415 531 307 c 1,42,-1
 766 307 l 1,43,44
 763 356 763 356 734.5 385.5 c 128,-1,45
 706 415 706 415 655 415 c 0,40,41
281 415 m 0,46,47
 209 415 209 415 171.5 371 c 128,-1,48
 134 327 134 327 134 246 c 0,49,50
 134 167 134 167 172 122.5 c 128,-1,51
 210 78 210 78 280 78 c 0,52,53
 349 78 349 78 386 125 c 128,-1,54
 423 172 423 172 423 248 c 0,55,56
 423 323 423 323 385.5 369 c 128,-1,57
 348 415 348 415 281 415 c 0,46,47
EndSplineSet
Substitution2: "'smcp' Lowercase to Small Capitals in Latin lookup 1 subtable" OE.sc
Substitution2: "'aalt' Access All Alternates in Latin lookup 0 subtable" OE.sc
EndChar

StartChar: florin
Encoding: 402 402 201
Width: 353
Flags: W
LayerCount: 2
Back
Fore
SplineSet
374 703 m 1,0,-1
 365 634 l 1,1,2
 347 642 347 642 328 642 c 0,3,4
 301 642 301 642 281.5 634.5 c 128,-1,5
 262 627 262 627 248.5 610 c 128,-1,6
 235 593 235 593 226.5 564.5 c 128,-1,7
 218 536 218 536 211 493 c 1,8,-1
 351 493 l 1,9,-1
 345 428 l 1,10,-1
 199 428 l 1,11,-1
 116 -88 l 2,12,13
 109 -129 109 -129 95.5 -157.5 c 128,-1,14
 82 -186 82 -186 65.5 -205 c 128,-1,15
 49 -224 49 -224 32 -232.5 c 128,-1,16
 15 -241 15 -241 1 -241 c 2,17,-1
 -19 -241 l 1,18,-1
 -34 -165 l 1,19,20
 -3 -161 -3 -161 12.5 -140 c 128,-1,21
 28 -119 28 -119 36 -71 c 2,22,-1
 113 428 l 1,23,-1
 24 428 l 1,24,-1
 32 493 l 1,25,-1
 123 493 l 1,26,-1
 131 547 l 2,27,28
 137 586 137 586 153 617 c 128,-1,29
 169 648 169 648 193 669.5 c 128,-1,30
 217 691 217 691 248 702.5 c 128,-1,31
 279 714 279 714 315 714 c 0,32,33
 335 714 335 714 374 703 c 1,0,-1
EndSplineSet
EndChar

StartChar: uni0237
Encoding: 567 567 202
Width: 222
Flags: W
LayerCount: 2
Back
Fore
SplineSet
37 -239 m 2,0,-1
 2 -242 l 1,1,-1
 -8 -162 l 1,2,3
 14 -161 14 -161 27 -157 c 128,-1,4
 40 -153 40 -153 47.5 -143.5 c 128,-1,5
 55 -134 55 -134 57.5 -116.5 c 128,-1,6
 60 -99 60 -99 60 -69 c 2,7,-1
 60 493 l 1,8,-1
 162 493 l 1,9,-1
 162 -108 l 2,10,11
 162 -169 162 -169 126.5 -201.5 c 128,-1,12
 91 -234 91 -234 37 -239 c 2,0,-1
EndSplineSet
EndChar

StartChar: circumflex
Encoding: 710 710 203
Width: 446
Flags: W
LayerCount: 2
Back
Fore
SplineSet
370 597 m 1,0,-1
 223 675 l 1,1,-1
 76 597 l 1,2,-1
 76 646 l 1,3,-1
 223 747 l 1,4,-1
 370 646 l 1,5,-1
 370 597 l 1,0,-1
EndSplineSet
EndChar

StartChar: caron
Encoding: 711 711 204
Width: 446
Flags: W
LayerCount: 2
Back
Fore
SplineSet
370 691 m 1,0,-1
 223 595 l 1,1,-1
 76 691 l 1,2,-1
 76 743 l 1,3,-1
 223 669 l 1,4,-1
 370 743 l 1,5,-1
 370 691 l 1,0,-1
EndSplineSet
EndChar

StartChar: ring
Encoding: 730 730 205
Width: 292
Flags: W
LayerCount: 2
Back
Fore
SplineSet
146 576 m 0,0,1
 98 576 98 576 70 602 c 128,-1,2
 42 628 42 628 42 665 c 256,3,4
 42 702 42 702 70 728.5 c 128,-1,5
 98 755 98 755 146 755 c 0,6,7
 195 755 195 755 222.5 728.5 c 128,-1,8
 250 702 250 702 250 665 c 256,9,10
 250 628 250 628 222.5 602 c 128,-1,11
 195 576 195 576 146 576 c 0,0,1
92 665 m 2,12,-1
 92 661 l 2,13,14
 92 637 92 637 109 625 c 128,-1,15
 126 613 126 613 146 613 c 256,16,17
 166 613 166 613 183 625 c 128,-1,18
 200 637 200 637 200 661 c 0,19,20
 200 686 200 686 186 702 c 128,-1,21
 172 718 172 718 146 718 c 0,22,23
 123 718 123 718 107.5 703 c 128,-1,24
 92 688 92 688 92 665 c 2,12,-1
EndSplineSet
EndChar

StartChar: tilde
Encoding: 732 732 206
Width: 528
Flags: W
LayerCount: 2
Back
Fore
SplineSet
332 599 m 0,0,1
 323 599 323 599 303.5 606.5 c 128,-1,2
 284 614 284 614 263.5 623 c 128,-1,3
 243 632 243 632 225.5 639.5 c 128,-1,4
 208 647 208 647 202 647 c 0,5,6
 154 647 154 647 139 599 c 1,7,-1
 86 611 l 1,8,9
 95 657 95 657 128 681.5 c 128,-1,10
 161 706 161 706 197 706 c 0,11,12
 207 706 207 706 226.5 698.5 c 128,-1,13
 246 691 246 691 266.5 682.5 c 128,-1,14
 287 674 287 674 305 666.5 c 128,-1,15
 323 659 323 659 329 659 c 0,16,17
 373 659 373 659 394 709 c 1,18,-1
 443 696 l 1,19,20
 433 654 433 654 403.5 626.5 c 128,-1,21
 374 599 374 599 332 599 c 0,0,1
EndSplineSet
EndChar

StartChar: endash
Encoding: 8211 8211 207
Width: 500
Flags: W
LayerCount: 2
Back
Fore
SplineSet
444 235 m 1,0,-1
 56 235 l 1,1,-1
 56 324 l 1,2,-1
 444 324 l 1,3,-1
 444 235 l 1,0,-1
EndSplineSet
EndChar

StartChar: emdash
Encoding: 8212 8212 208
Width: 592
Flags: W
LayerCount: 2
Back
Fore
SplineSet
536 235 m 1,0,-1
 56 235 l 1,1,-1
 56 324 l 1,2,-1
 536 324 l 1,3,-1
 536 235 l 1,0,-1
EndSplineSet
EndChar

StartChar: quoteleft
Encoding: 8216 8216 209
Width: 195
Flags: W
LayerCount: 2
Back
Fore
SplineSet
43 641 m 1,0,-1
 128 750 l 1,1,-1
 152 737 l 1,2,-1
 117 650 l 1,3,-1
 151 641 l 1,4,-1
 151 540 l 1,5,-1
 43 540 l 1,6,-1
 43 641 l 1,0,-1
EndSplineSet
EndChar

StartChar: quoteright
Encoding: 8217 8217 210
Width: 177
Flags: W
LayerCount: 2
Back
Fore
SplineSet
150 649 m 1,0,-1
 65 540 l 1,1,-1
 41 553 l 1,2,-1
 75 640 l 1,3,-1
 42 649 l 1,4,-1
 42 750 l 1,5,-1
 150 750 l 1,6,-1
 150 649 l 1,0,-1
EndSplineSet
EndChar

StartChar: quotesinglbase
Encoding: 8218 8218 211
Width: 221
Flags: W
LayerCount: 2
Back
Fore
SplineSet
165 0 m 1,0,-1
 80 -109 l 1,1,-1
 56 -96 l 1,2,-1
 90 -9 l 1,3,-1
 57 0 l 1,4,-1
 57 101 l 1,5,-1
 165 101 l 1,6,-1
 165 0 l 1,0,-1
EndSplineSet
EndChar

StartChar: quotedblleft
Encoding: 8220 8220 212
Width: 405
Flags: W
LayerCount: 2
Back
Fore
SplineSet
43 641 m 1,0,-1
 128 750 l 1,1,-1
 152 737 l 1,2,-1
 117 650 l 1,3,-1
 151 641 l 1,4,-1
 151 540 l 1,5,-1
 43 540 l 1,6,-1
 43 641 l 1,0,-1
253 641 m 1,7,-1
 338 750 l 1,8,-1
 362 737 l 1,9,-1
 327 650 l 1,10,-1
 361 641 l 1,11,-1
 361 540 l 1,12,-1
 253 540 l 1,13,-1
 253 641 l 1,7,-1
EndSplineSet
EndChar

StartChar: quotedblright
Encoding: 8221 8221 213
Width: 387
Flags: W
LayerCount: 2
Back
Fore
SplineSet
360 649 m 1,0,-1
 275 540 l 1,1,-1
 251 553 l 1,2,-1
 285 640 l 1,3,-1
 252 649 l 1,4,-1
 252 750 l 1,5,-1
 360 750 l 1,6,-1
 360 649 l 1,0,-1
150 649 m 1,7,-1
 65 540 l 1,8,-1
 41 553 l 1,9,-1
 75 640 l 1,10,-1
 42 649 l 1,11,-1
 42 750 l 1,12,-1
 150 750 l 1,13,-1
 150 649 l 1,7,-1
EndSplineSet
EndChar

StartChar: quotedblbase
Encoding: 8222 8222 214
Width: 451
Flags: W
LayerCount: 2
Back
Fore
SplineSet
165 0 m 1,0,-1
 80 -109 l 1,1,-1
 56 -96 l 1,2,-1
 90 -9 l 1,3,-1
 57 0 l 1,4,-1
 57 101 l 1,5,-1
 165 101 l 1,6,-1
 165 0 l 1,0,-1
395 0 m 1,7,-1
 310 -109 l 1,8,-1
 286 -96 l 1,9,-1
 320 -9 l 1,10,-1
 287 0 l 1,11,-1
 287 101 l 1,12,-1
 395 101 l 1,13,-1
 395 0 l 1,7,-1
EndSplineSet
EndChar

StartChar: dagger
Encoding: 8224 8224 215
Width: 424
Flags: W
LayerCount: 2
Back
Fore
SplineSet
389 365 m 1,0,-1
 240 393 l 1,1,-1
 277 254 l 1,2,-1
 247 0 l 1,3,-1
 177 0 l 1,4,-1
 147 254 l 1,5,-1
 184 393 l 1,6,-1
 35 365 l 1,7,-1
 35 466 l 1,8,-1
 182 436 l 1,9,-1
 150 607 l 1,10,-1
 274 607 l 1,11,-1
 242 436 l 1,12,-1
 389 466 l 1,13,-1
 389 365 l 1,0,-1
EndSplineSet
EndChar

StartChar: daggerdbl
Encoding: 8225 8225 216
Width: 460
Flags: W
LayerCount: 2
Back
Fore
SplineSet
407 81 m 1,0,-1
 260 110 l 1,1,-1
 292 -59 l 1,2,-1
 168 -59 l 1,3,-1
 200 110 l 1,4,-1
 53 81 l 1,5,-1
 53 181 l 1,6,-1
 203 153 l 1,7,-1
 165 274 l 1,8,-1
 203 396 l 1,9,-1
 53 367 l 1,10,-1
 53 468 l 1,11,-1
 200 439 l 1,12,-1
 168 607 l 1,13,-1
 292 607 l 1,14,-1
 260 439 l 1,15,-1
 407 468 l 1,16,-1
 407 367 l 1,17,-1
 257 396 l 1,18,-1
 295 274 l 1,19,-1
 257 153 l 1,20,-1
 407 181 l 1,21,-1
 407 81 l 1,0,-1
EndSplineSet
EndChar

StartChar: bullet
Encoding: 8226 8226 217
Width: 304
Flags: W
LayerCount: 2
Back
Fore
SplineSet
229 201 m 0,0,1
 212 184 212 184 192.5 176.5 c 128,-1,2
 173 169 173 169 152 169 c 0,3,4
 130 169 130 169 110.5 178 c 128,-1,5
 91 187 91 187 76 202 c 128,-1,6
 61 217 61 217 52 236.5 c 128,-1,7
 43 256 43 256 43 278 c 256,8,9
 43 300 43 300 52 319.5 c 128,-1,10
 61 339 61 339 76 354 c 128,-1,11
 91 369 91 369 110.5 378 c 128,-1,12
 130 387 130 387 152 387 c 256,13,14
 174 387 174 387 193.5 378 c 128,-1,15
 213 369 213 369 228 354 c 128,-1,16
 243 339 243 339 252 319.5 c 128,-1,17
 261 300 261 300 261 278 c 0,18,19
 261 257 261 257 253 237 c 128,-1,20
 245 217 245 217 229 201 c 0,0,1
EndSplineSet
EndChar

StartChar: ellipsis
Encoding: 8230 8230 218
Width: 686
Flags: W
LayerCount: 2
Back
Fore
SplineSet
158 0 m 1,0,-1
 56 0 l 1,1,-1
 56 101 l 1,2,-1
 158 101 l 1,3,-1
 158 0 l 1,0,-1
394 0 m 1,4,-1
 292 0 l 1,5,-1
 292 101 l 1,6,-1
 394 101 l 1,7,-1
 394 0 l 1,4,-1
630 0 m 1,8,-1
 528 0 l 1,9,-1
 528 101 l 1,10,-1
 630 101 l 1,11,-1
 630 0 l 1,8,-1
EndSplineSet
EndChar

StartChar: perthousand
Encoding: 8240 8240 219
Width: 1200
Flags: W
LayerCount: 2
Back
Fore
SplineSet
242 -12 m 1,0,-1
 157 -12 l 1,1,-1
 578 700 l 1,2,-1
 662 700 l 1,3,-1
 242 -12 l 1,0,-1
182 334 m 0,4,5
 116 334 116 334 75.5 381.5 c 128,-1,6
 35 429 35 429 35 515 c 0,7,8
 35 560 35 560 47 595.5 c 128,-1,9
 59 631 59 631 80 655 c 128,-1,10
 101 679 101 679 128.5 692 c 128,-1,11
 156 705 156 705 187 705 c 256,12,13
 218 705 218 705 245 693 c 128,-1,14
 272 681 272 681 292 657.5 c 128,-1,15
 312 634 312 634 323 600.5 c 128,-1,16
 334 567 334 567 334 524 c 0,17,18
 334 433 334 433 291.5 383.5 c 128,-1,19
 249 334 249 334 182 334 c 0,4,5
186 646 m 0,20,21
 151 646 151 646 125 612 c 128,-1,22
 99 578 99 578 99 515 c 0,23,24
 99 456 99 456 123.5 424.5 c 128,-1,25
 148 393 148 393 183 393 c 0,26,27
 221 393 221 393 245.5 427 c 128,-1,28
 270 461 270 461 270 524 c 0,29,30
 270 582 270 582 244.5 614 c 128,-1,31
 219 646 219 646 186 646 c 0,20,21
654 -12 m 0,32,33
 588 -12 588 -12 547.5 35.5 c 128,-1,34
 507 83 507 83 507 169 c 0,35,36
 507 214 507 214 519 249.5 c 128,-1,37
 531 285 531 285 552 309 c 128,-1,38
 573 333 573 333 600.5 346 c 128,-1,39
 628 359 628 359 659 359 c 256,40,41
 690 359 690 359 717 347 c 128,-1,42
 744 335 744 335 764 311.5 c 128,-1,43
 784 288 784 288 795 254.5 c 128,-1,44
 806 221 806 221 806 178 c 0,45,46
 806 87 806 87 763.5 37.5 c 128,-1,47
 721 -12 721 -12 654 -12 c 0,32,33
658 300 m 0,48,49
 623 300 623 300 597 266 c 128,-1,50
 571 232 571 232 571 169 c 0,51,52
 571 110 571 110 595.5 78.5 c 128,-1,53
 620 47 620 47 655 47 c 0,54,55
 693 47 693 47 717.5 81 c 128,-1,56
 742 115 742 115 742 178 c 0,57,58
 742 236 742 236 716.5 268 c 128,-1,59
 691 300 691 300 658 300 c 0,48,49
1013 -12 m 0,60,61
 948 -12 948 -12 907 35.5 c 128,-1,62
 866 83 866 83 866 169 c 0,63,64
 866 214 866 214 878 249.5 c 128,-1,65
 890 285 890 285 911 309 c 128,-1,66
 932 333 932 333 959.5 346 c 128,-1,67
 987 359 987 359 1018 359 c 256,68,69
 1049 359 1049 359 1076.5 347 c 128,-1,70
 1104 335 1104 335 1123.5 311.5 c 128,-1,71
 1143 288 1143 288 1154 254.5 c 128,-1,72
 1165 221 1165 221 1165 178 c 0,73,74
 1165 87 1165 87 1122.5 37.5 c 128,-1,75
 1080 -12 1080 -12 1013 -12 c 0,60,61
1017 300 m 0,76,77
 982 300 982 300 956 266 c 128,-1,78
 930 232 930 232 930 169 c 0,79,80
 930 110 930 110 954.5 78.5 c 128,-1,81
 979 47 979 47 1014 47 c 0,82,83
 1052 47 1052 47 1076.5 81 c 128,-1,84
 1101 115 1101 115 1101 178 c 0,85,86
 1101 236 1101 236 1076 268 c 128,-1,87
 1051 300 1051 300 1017 300 c 0,76,77
EndSplineSet
EndChar

StartChar: guilsinglleft
Encoding: 8249 8249 220
Width: 332
Flags: W
LayerCount: 2
Back
Fore
SplineSet
292 78 m 1,0,-1
 170 78 l 1,1,-1
 13 284 l 1,2,-1
 170 490 l 1,3,-1
 292 490 l 1,4,-1
 135 284 l 1,5,-1
 292 78 l 1,0,-1
EndSplineSet
EndChar

StartChar: guilsinglright
Encoding: 8250 8250 221
Width: 332
Flags: W
LayerCount: 2
Back
Fore
SplineSet
319 284 m 1,0,-1
 162 78 l 1,1,-1
 40 78 l 1,2,-1
 197 284 l 1,3,-1
 40 490 l 1,4,-1
 162 490 l 1,5,-1
 319 284 l 1,0,-1
EndSplineSet
EndChar

StartChar: uni2070
Encoding: 8304 8304 222
Width: 403
Flags: W
LayerCount: 2
Back
Fore
SplineSet
198 312 m 0,0,1
 160 312 160 312 129.5 326 c 128,-1,2
 99 340 99 340 77 365 c 128,-1,3
 55 390 55 390 43 425.5 c 128,-1,4
 31 461 31 461 31 503 c 0,5,6
 31 547 31 547 44 584.5 c 128,-1,7
 57 622 57 622 80 649 c 128,-1,8
 103 676 103 676 135 691 c 128,-1,9
 167 706 167 706 205 706 c 0,10,11
 241 706 241 706 271.5 691.5 c 128,-1,12
 302 677 302 677 324.5 651.5 c 128,-1,13
 347 626 347 626 359.5 590 c 128,-1,14
 372 554 372 554 372 512 c 0,15,16
 372 468 372 468 360 431.5 c 128,-1,17
 348 395 348 395 325.5 368.5 c 128,-1,18
 303 342 303 342 270.5 327 c 128,-1,19
 238 312 238 312 198 312 c 0,0,1
204 635 m 0,20,21
 167 635 167 635 139.5 601 c 128,-1,22
 112 567 112 567 112 503 c 0,23,24
 112 443 112 443 136 414 c 128,-1,25
 160 385 160 385 199 385 c 0,26,27
 241 385 241 385 266.5 415.5 c 128,-1,28
 292 446 292 446 292 512 c 0,29,30
 292 572 292 572 266 603.5 c 128,-1,31
 240 635 240 635 204 635 c 0,20,21
EndSplineSet
EndChar

StartChar: uni2074
Encoding: 8308 8308 223
Width: 337
Flags: W
LayerCount: 2
Back
Fore
SplineSet
310 423 m 1,0,-1
 261 423 l 1,1,-1
 261 320 l 1,2,-1
 179 320 l 1,3,-1
 179 423 l 1,4,-1
 4 423 l 1,5,-1
 191 698 l 1,6,-1
 261 698 l 1,7,-1
 261 485 l 1,8,-1
 310 485 l 1,9,-1
 310 423 l 1,0,-1
179 485 m 1,10,-1
 179 583 l 1,11,-1
 112 485 l 1,12,-1
 179 485 l 1,10,-1
EndSplineSet
EndChar

StartChar: uni2075
Encoding: 8309 8309 224
Width: 307
Flags: W
LayerCount: 2
Back
Fore
SplineSet
134 313 m 0,0,1
 115 313 115 313 95.5 317 c 128,-1,2
 76 321 76 321 60 326.5 c 128,-1,3
 44 332 44 332 35 338 c 128,-1,4
 26 344 26 344 25.5 346 c 128,-1,5
 25 348 25 348 25 349 c 2,6,-1
 44 422 l 1,7,8
 61 405 61 405 84 397.5 c 128,-1,9
 107 390 107 390 140 390 c 0,10,11
 166 390 166 390 182.5 399 c 128,-1,12
 199 408 199 408 201 440 c 0,13,14
 201 448 201 448 198.5 457 c 128,-1,15
 196 466 196 466 187 473.5 c 128,-1,16
 178 481 178 481 160.5 486 c 128,-1,17
 143 491 143 491 113 491 c 2,18,-1
 45 491 l 1,19,-1
 71 698 l 1,20,-1
 258 698 l 1,21,-1
 250 618 l 1,22,-1
 132 618 l 1,23,-1
 123 557 l 1,24,25
 204 556 204 556 241.5 529.5 c 128,-1,26
 279 503 279 503 279 443 c 0,27,28
 279 410 279 410 267.5 386 c 128,-1,29
 256 362 256 362 236.5 345.5 c 128,-1,30
 217 329 217 329 190.5 321 c 128,-1,31
 164 313 164 313 134 313 c 0,0,1
EndSplineSet
EndChar

StartChar: uni2076
Encoding: 8310 8310 225
Width: 320
Flags: W
LayerCount: 2
Back
Fore
SplineSet
157 312 m 0,0,1
 100 312 100 312 65.5 348.5 c 128,-1,2
 31 385 31 385 31 461 c 0,3,4
 31 508 31 508 49.5 551 c 128,-1,5
 68 594 68 594 94.5 626 c 128,-1,6
 121 658 121 658 151 677.5 c 128,-1,7
 181 697 181 697 205 698 c 1,8,-1
 259 667 l 1,9,10
 245 667 245 667 221.5 651.5 c 128,-1,11
 198 636 198 636 175 614 c 128,-1,12
 152 592 152 592 135 569.5 c 128,-1,13
 118 547 118 547 116 532 c 1,14,15
 131 547 131 547 178 547 c 0,16,17
 232 547 232 547 265.5 518.5 c 128,-1,18
 299 490 299 490 299 438 c 0,19,20
 299 413 299 413 289 390 c 128,-1,21
 279 367 279 367 260 350 c 128,-1,22
 241 333 241 333 215 322.5 c 128,-1,23
 189 312 189 312 157 312 c 0,0,1
173 483 m 0,24,25
 110 483 110 483 110 430 c 0,26,27
 110 410 110 410 127.5 397.5 c 128,-1,28
 145 385 145 385 165 385 c 0,29,30
 190 385 190 385 207 401.5 c 128,-1,31
 224 418 224 418 224 442 c 0,32,33
 224 458 224 458 210 470.5 c 128,-1,34
 196 483 196 483 173 483 c 0,24,25
EndSplineSet
EndChar

StartChar: uni2077
Encoding: 8311 8311 226
Width: 292
Flags: W
LayerCount: 2
Back
Fore
SplineSet
293 698 m 1,0,-1
 126 320 l 1,1,-1
 40 320 l 1,2,-1
 172 618 l 1,3,-1
 24 618 l 1,4,-1
 24 698 l 1,5,-1
 293 698 l 1,0,-1
EndSplineSet
EndChar

StartChar: uni2078
Encoding: 8312 8312 227
Width: 344
Flags: W
LayerCount: 2
Back
Fore
SplineSet
166 312 m 0,0,1
 100 312 100 312 65 342.5 c 128,-1,2
 30 373 30 373 30 419 c 0,3,4
 30 479 30 479 86 524 c 1,5,6
 52 548 52 548 52 609 c 0,7,8
 52 652 52 652 81 679 c 128,-1,9
 110 706 110 706 174 706 c 0,10,11
 292 706 292 706 292 617 c 0,12,13
 292 563 292 563 251 528 c 1,14,15
 276 515 276 515 295 488 c 128,-1,16
 314 461 314 461 314 432 c 0,17,18
 314 409 314 409 304.5 387.5 c 128,-1,19
 295 366 295 366 276.5 349 c 128,-1,20
 258 332 258 332 230.5 322 c 128,-1,21
 203 312 203 312 166 312 c 0,0,1
172 647 m 0,22,23
 145 647 145 647 134 633.5 c 128,-1,24
 123 620 123 620 123 593 c 0,25,26
 123 579 123 579 131.5 569 c 128,-1,27
 140 559 140 559 169 551 c 1,28,29
 218 561 218 561 218 601 c 0,30,31
 218 647 218 647 172 647 c 0,22,23
174 497 m 1,32,33
 149 494 149 494 127.5 475 c 128,-1,34
 106 456 106 456 106 427 c 0,35,36
 106 402 106 402 123 387.5 c 128,-1,37
 140 373 140 373 169 373 c 0,38,39
 234 373 234 373 234 428 c 0,40,41
 234 458 234 458 216.5 475.5 c 128,-1,42
 199 493 199 493 174 497 c 1,32,33
EndSplineSet
EndChar

StartChar: uni2079
Encoding: 8313 8313 228
Width: 321
Flags: W
LayerCount: 2
Back
Fore
SplineSet
163 706 m 0,0,1
 221 706 221 706 255.5 669 c 128,-1,2
 290 632 290 632 290 557 c 0,3,4
 290 513 290 513 274 470.5 c 128,-1,5
 258 428 258 428 232.5 394.5 c 128,-1,6
 207 361 207 361 175.5 340.5 c 128,-1,7
 144 320 144 320 113 320 c 1,8,-1
 64 351 l 1,9,10
 80 351 80 351 104.5 364 c 128,-1,11
 129 377 129 377 152.5 397 c 128,-1,12
 176 417 176 417 192.5 441 c 128,-1,13
 209 465 209 465 210 488 c 1,14,15
 190 471 190 471 143 471 c 0,16,17
 118 471 118 471 95.5 478.5 c 128,-1,18
 73 486 73 486 56.5 499.5 c 128,-1,19
 40 513 40 513 30.5 533 c 128,-1,20
 21 553 21 553 21 577 c 0,21,22
 21 604 21 604 31.5 627.5 c 128,-1,23
 42 651 42 651 61 668.5 c 128,-1,24
 80 686 80 686 106 696 c 128,-1,25
 132 706 132 706 163 706 c 0,0,1
151 535 m 0,26,27
 214 535 214 535 214 586 c 0,28,29
 214 634 214 634 159 634 c 0,30,31
 133 634 133 634 117.5 617.5 c 128,-1,32
 102 601 102 601 102 580 c 0,33,34
 102 560 102 560 114.5 547.5 c 128,-1,35
 127 535 127 535 151 535 c 0,26,27
EndSplineSet
EndChar

StartChar: Euro
Encoding: 8364 8364 239
Width: 701
Flags: W
LayerCount: 2
Back
Fore
SplineSet
468 17 m 0,0,1
 366 17 366 17 288.5 68 c 128,-1,2
 211 119 211 119 173 213 c 1,3,-1
 31 213 l 1,4,-1
 57 288 l 1,5,-1
 153 288 l 1,6,7
 151 306 151 306 150.5 324 c 128,-1,8
 150 342 150 342 150 365 c 1,9,-1
 58 365 l 1,10,-1
 84 440 l 1,11,-1
 159 440 l 1,12,13
 173 497 173 497 202 542 c 128,-1,14
 231 587 231 587 271 618.5 c 128,-1,15
 311 650 311 650 361 666.5 c 128,-1,16
 411 683 411 683 468 683 c 0,17,18
 515 683 515 683 561 674.5 c 128,-1,19
 607 666 607 666 645 648 c 1,20,-1
 633 545 l 1,21,22
 593 562 593 562 554.5 572.5 c 128,-1,23
 516 583 516 583 468 583 c 0,24,25
 393 583 393 583 347.5 545.5 c 128,-1,26
 302 508 302 508 282 440 c 1,27,-1
 537 440 l 1,28,-1
 509 365 l 1,29,-1
 271 365 l 1,30,31
 271 348 271 348 271.5 323.5 c 128,-1,32
 272 299 272 299 275 288 c 1,33,-1
 518 288 l 1,34,-1
 492 213 l 1,35,-1
 299 213 l 1,36,37
 327 164 327 164 368 140.5 c 128,-1,38
 409 117 409 117 468 117 c 0,39,40
 516 117 516 117 554.5 127.5 c 128,-1,41
 593 138 593 138 633 155 c 1,42,-1
 645 52 l 1,43,44
 607 34 607 34 561 25.5 c 128,-1,45
 515 17 515 17 468 17 c 0,0,1
EndSplineSet
EndChar

StartChar: trademark
Encoding: 8482 8482 240
Width: 729
Flags: W
LayerCount: 2
Back
Fore
SplineSet
492 437 m 1,0,-1
 485 437 l 1,1,-1
 399 586 l 1,2,-1
 368 337 l 1,3,-1
 305 337 l 1,4,-1
 353 700 l 1,5,-1
 389 700 l 1,6,-1
 489 532 l 1,7,-1
 589 700 l 1,8,-1
 625 700 l 1,9,-1
 673 337 l 1,10,-1
 609 337 l 1,11,-1
 580 586 l 1,12,-1
 492 437 l 1,0,-1
297 700 m 1,13,-1
 290 640 l 1,14,-1
 192 640 l 1,15,-1
 192 337 l 1,16,-1
 131 337 l 1,17,-1
 131 640 l 1,18,-1
 31 640 l 1,19,-1
 31 700 l 1,20,-1
 297 700 l 1,13,-1
EndSplineSet
EndChar

StartChar: B.sc
Encoding: 65537 -1 241
Width: 545
Flags: W
LayerCount: 2
Back
Fore
SplineSet
298 0 m 2,0,-1
 72 0 l 1,1,-1
 72 567 l 1,2,-1
 228 567 l 2,3,4
 280 567 280 567 322.5 562 c 128,-1,5
 365 557 365 557 395 541.5 c 128,-1,6
 425 526 425 526 441.5 497 c 128,-1,7
 458 468 458 468 458 421 c 0,8,9
 458 341 458 341 408 303 c 1,10,11
 462 284 462 284 486.5 252.5 c 128,-1,12
 511 221 511 221 511 167 c 0,13,14
 511 117 511 117 492 85 c 128,-1,15
 473 53 473 53 442 34 c 128,-1,16
 411 15 411 15 373 7.5 c 128,-1,17
 335 0 335 0 298 0 c 2,0,-1
268 480 m 2,18,-1
 175 480 l 1,19,-1
 175 339 l 1,20,-1
 281 339 l 2,21,22
 360 339 360 339 360 406 c 0,23,24
 360 448 360 448 336.5 464 c 128,-1,25
 313 480 313 480 268 480 c 2,18,-1
292 258 m 2,26,-1
 175 258 l 1,27,-1
 175 88 l 1,28,-1
 279 88 l 2,29,30
 342 88 342 88 373 107 c 128,-1,31
 404 126 404 126 404 172 c 0,32,33
 404 258 404 258 292 258 c 2,26,-1
EndSplineSet
EndChar

StartChar: C.sc
Encoding: 65538 -1 242
Width: 541
Flags: W
LayerCount: 2
Back
Fore
SplineSet
336 -11 m 0,0,1
 271 -11 271 -11 216.5 10 c 128,-1,2
 162 31 162 31 122 69.5 c 128,-1,3
 82 108 82 108 60 162.5 c 128,-1,4
 38 217 38 217 38 284 c 0,5,6
 38 350 38 350 60.5 404.5 c 128,-1,7
 83 459 83 459 122.5 497.5 c 128,-1,8
 162 536 162 536 216.5 557.5 c 128,-1,9
 271 579 271 579 336 579 c 0,10,11
 437 579 437 579 506 545 c 1,12,-1
 495 448 l 1,13,14
 405 480 405 480 336 480 c 0,15,16
 246 480 246 480 199 426 c 128,-1,17
 152 372 152 372 152 284 c 0,18,19
 152 194 152 194 199.5 140.5 c 128,-1,20
 247 87 247 87 337 87 c 0,21,22
 405 87 405 87 495 119 c 1,23,-1
 506 22 l 1,24,25
 435 -11 435 -11 336 -11 c 0,0,1
EndSplineSet
EndChar

StartChar: D.sc
Encoding: 65539 -1 243
Width: 633
Flags: W
LayerCount: 2
Back
Fore
SplineSet
297 0 m 2,0,-1
 72 0 l 1,1,-1
 72 567 l 1,2,-1
 297 567 l 2,3,4
 362 567 362 567 416.5 547 c 128,-1,5
 471 527 471 527 510.5 490.5 c 128,-1,6
 550 454 550 454 572 401.5 c 128,-1,7
 594 349 594 349 594 284 c 0,8,9
 594 218 594 218 572 165.5 c 128,-1,10
 550 113 550 113 510.5 76 c 128,-1,11
 471 39 471 39 416.5 19.5 c 128,-1,12
 362 0 362 0 297 0 c 2,0,-1
297 469 m 2,13,-1
 175 469 l 1,14,-1
 175 99 l 1,15,-1
 297 99 l 2,16,17
 388 99 388 99 434.5 147.5 c 128,-1,18
 481 196 481 196 481 284 c 256,19,20
 481 372 481 372 434.5 420.5 c 128,-1,21
 388 469 388 469 297 469 c 2,13,-1
EndSplineSet
EndChar

StartChar: E.sc
Encoding: 65540 -1 244
Width: 498
Flags: W
LayerCount: 2
Back
Fore
SplineSet
462 0 m 1,0,-1
 72 0 l 1,1,-1
 72 567 l 1,2,-1
 453 567 l 1,3,-1
 453 468 l 1,4,-1
 178 468 l 1,5,-1
 178 345 l 1,6,-1
 393 345 l 1,7,-1
 393 246 l 1,8,-1
 178 246 l 1,9,-1
 178 99 l 1,10,-1
 462 99 l 1,11,-1
 462 0 l 1,0,-1
EndSplineSet
EndChar

StartChar: F.sc
Encoding: 65541 -1 245
Width: 462
Flags: W
LayerCount: 2
Back
Fore
SplineSet
442 468 m 1,0,-1
 175 468 l 1,1,-1
 175 345 l 1,2,-1
 382 345 l 1,3,-1
 382 246 l 1,4,-1
 175 246 l 1,5,-1
 175 0 l 1,6,-1
 72 0 l 1,7,-1
 72 567 l 1,8,-1
 442 567 l 1,9,-1
 442 468 l 1,0,-1
EndSplineSet
EndChar

StartChar: G.sc
Encoding: 65542 -1 246
Width: 585
Flags: W
LayerCount: 2
Back
Fore
SplineSet
332 -11 m 0,0,1
 267 -11 267 -11 213 10.5 c 128,-1,2
 159 32 159 32 120 71 c 128,-1,3
 81 110 81 110 59 164.5 c 128,-1,4
 37 219 37 219 37 284 c 0,5,6
 37 350 37 350 59.5 404.5 c 128,-1,7
 82 459 82 459 121.5 498 c 128,-1,8
 161 537 161 537 216.5 558 c 128,-1,9
 272 579 272 579 338 579 c 0,10,11
 444 579 444 579 518 546 c 1,12,-1
 507 448 l 1,13,14
 422 480 422 480 340 480 c 0,15,16
 246 480 246 480 198.5 427 c 128,-1,17
 151 374 151 374 151 286 c 0,18,19
 151 195 151 195 201 141 c 128,-1,20
 251 87 251 87 348 87 c 0,21,22
 395 87 395 87 434 97 c 1,23,-1
 434 199 l 1,24,-1
 361 199 l 1,25,-1
 361 284 l 1,26,-1
 538 284 l 1,27,-1
 538 31 l 1,28,29
 522 23 522 23 497 15.5 c 128,-1,30
 472 8 472 8 443.5 2 c 128,-1,31
 415 -4 415 -4 386 -7.5 c 128,-1,32
 357 -11 357 -11 332 -11 c 0,0,1
EndSplineSet
EndChar

StartChar: H.sc
Encoding: 65543 -1 247
Width: 648
Flags: W
LayerCount: 2
Back
Fore
SplineSet
576 0 m 1,0,-1
 473 0 l 1,1,-1
 473 246 l 1,2,-1
 175 246 l 1,3,-1
 175 0 l 1,4,-1
 72 0 l 1,5,-1
 72 567 l 1,6,-1
 175 567 l 1,7,-1
 175 346 l 1,8,-1
 473 346 l 1,9,-1
 473 567 l 1,10,-1
 576 567 l 1,11,-1
 576 0 l 1,0,-1
EndSplineSet
EndChar

StartChar: I.sc
Encoding: 65544 -1 248
Width: 247
Flags: W
LayerCount: 2
Back
Fore
SplineSet
175 0 m 1,0,-1
 72 0 l 1,1,-1
 72 567 l 1,2,-1
 175 567 l 1,3,-1
 175 0 l 1,0,-1
EndSplineSet
EndChar

StartChar: J.sc
Encoding: 65545 -1 249
Width: 248
Flags: W
LayerCount: 2
Back
Fore
SplineSet
36 -140 m 2,0,-1
 9 -140 l 1,1,-1
 0 -63 l 1,2,-1
 19 -63 l 2,3,4
 49 -63 49 -63 60.5 -47.5 c 128,-1,5
 72 -32 72 -32 72 3 c 2,6,-1
 72 567 l 1,7,-1
 176 567 l 1,8,-1
 176 -20 l 2,9,10
 176 -140 176 -140 36 -140 c 2,0,-1
EndSplineSet
EndChar

StartChar: K.sc
Encoding: 65546 -1 250
Width: 538
Flags: W
LayerCount: 2
Back
Fore
SplineSet
528 0 m 1,0,-1
 413 0 l 1,1,-1
 200 300 l 1,2,-1
 413 567 l 1,3,-1
 528 567 l 1,4,-1
 315 300 l 1,5,-1
 528 0 l 1,0,-1
175 0 m 1,6,-1
 72 0 l 1,7,-1
 72 567 l 1,8,-1
 175 567 l 1,9,-1
 175 0 l 1,6,-1
EndSplineSet
EndChar

StartChar: A.sc
Encoding: 65547 -1 251
Width: 541
Flags: W
LayerCount: 2
Back
Fore
SplineSet
535 0 m 1,0,-1
 427 0 l 1,1,-1
 374 138 l 1,2,-1
 167 138 l 1,3,-1
 114 0 l 1,4,-1
 6 0 l 1,5,-1
 220 567 l 1,6,-1
 321 567 l 1,7,-1
 535 0 l 1,0,-1
339 237 m 1,8,-1
 270 406 l 1,9,-1
 202 237 l 1,10,-1
 339 237 l 1,8,-1
EndSplineSet
EndChar

StartChar: M.sc
Encoding: 65548 -1 252
Width: 725
Flags: W
LayerCount: 2
Back
Fore
SplineSet
680 0 m 1,0,-1
 572 0 l 1,1,-1
 519 382 l 1,2,-1
 363 120 l 1,3,-1
 206 381 l 1,4,-1
 153 0 l 1,5,-1
 45 0 l 1,6,-1
 128 567 l 1,7,-1
 213 567 l 1,8,-1
 363 308 l 1,9,-1
 512 567 l 1,10,-1
 597 567 l 1,11,-1
 680 0 l 1,0,-1
EndSplineSet
EndChar

StartChar: N.sc
Encoding: 65549 -1 253
Width: 618
Flags: W
LayerCount: 2
Back
Fore
SplineSet
546 0 m 1,0,-1
 460 0 l 1,1,-1
 175 392 l 1,2,-1
 175 0 l 1,3,-1
 72 0 l 1,4,-1
 72 567 l 1,5,-1
 176 567 l 1,6,-1
 442 199 l 1,7,-1
 442 567 l 1,8,-1
 546 567 l 1,9,-1
 546 0 l 1,0,-1
EndSplineSet
EndChar

StartChar: O.sc
Encoding: 65550 -1 254
Width: 670
Flags: W
LayerCount: 2
Back
Fore
SplineSet
38 284 m 0,0,1
 38 350 38 350 60.5 404.5 c 128,-1,2
 83 459 83 459 122.5 498 c 128,-1,3
 162 537 162 537 216.5 558 c 128,-1,4
 271 579 271 579 335 579 c 256,5,6
 399 579 399 579 453.5 557.5 c 128,-1,7
 508 536 508 536 548 497 c 128,-1,8
 588 458 588 458 610 403.5 c 128,-1,9
 632 349 632 349 632 284 c 0,10,11
 632 218 632 218 610 163.5 c 128,-1,12
 588 109 588 109 548.5 70.5 c 128,-1,13
 509 32 509 32 454.5 10.5 c 128,-1,14
 400 -11 400 -11 335 -11 c 256,15,16
 270 -11 270 -11 216 10 c 128,-1,17
 162 31 162 31 122 69.5 c 128,-1,18
 82 108 82 108 60 162.5 c 128,-1,19
 38 217 38 217 38 284 c 0,0,1
152 284 m 0,20,21
 152 194 152 194 198.5 140.5 c 128,-1,22
 245 87 245 87 335 87 c 256,23,24
 425 87 425 87 471.5 140.5 c 128,-1,25
 518 194 518 194 518 284 c 0,26,27
 518 372 518 372 471.5 426 c 128,-1,28
 425 480 425 480 335 480 c 256,29,30
 245 480 245 480 198.5 426 c 128,-1,31
 152 372 152 372 152 284 c 0,20,21
EndSplineSet
EndChar

StartChar: AE.sc
Encoding: 65551 -1 255
Width: 752
Flags: W
LayerCount: 2
Back
Fore
SplineSet
716 0 m 1,0,-1
 341 0 l 1,1,-1
 341 137 l 1,2,-1
 170 137 l 1,3,-1
 98 0 l 1,4,-1
 -9 0 l 1,5,-1
 285 567 l 1,6,-1
 708 567 l 1,7,-1
 708 468 l 1,8,-1
 450 468 l 1,9,-1
 450 345 l 1,10,-1
 649 345 l 1,11,-1
 649 246 l 1,12,-1
 450 246 l 1,13,-1
 450 99 l 1,14,-1
 716 99 l 1,15,-1
 716 0 l 1,0,-1
341 237 m 1,16,-1
 341 466 l 1,17,-1
 217 237 l 1,18,-1
 341 237 l 1,16,-1
EndSplineSet
EndChar

StartChar: P.sc
Encoding: 65552 -1 256
Width: 519
Flags: W
LayerCount: 2
Back
Fore
SplineSet
289 187 m 2,0,-1
 177 187 l 1,1,-1
 177 0 l 1,2,-1
 72 0 l 1,3,-1
 72 567 l 1,4,-1
 247 567 l 2,5,6
 308 567 308 567 354.5 559.5 c 128,-1,7
 401 552 401 552 432 532.5 c 128,-1,8
 463 513 463 513 478.5 478 c 128,-1,9
 494 443 494 443 494 388 c 0,10,11
 494 329 494 329 475 290.5 c 128,-1,12
 456 252 456 252 426 229 c 128,-1,13
 396 206 396 206 359.5 196.5 c 128,-1,14
 323 187 323 187 289 187 c 2,0,-1
267 481 m 2,15,-1
 177 481 l 1,16,-1
 177 283 l 1,17,-1
 274 283 l 2,18,19
 337 283 337 283 362.5 306 c 128,-1,20
 388 329 388 329 388 386 c 0,21,22
 388 437 388 437 362 459 c 128,-1,23
 336 481 336 481 267 481 c 2,15,-1
EndSplineSet
EndChar

StartChar: Q.sc
Encoding: 65553 -1 257
Width: 670
Flags: W
LayerCount: 2
Back
Fore
SplineSet
629 63 m 1,0,-1
 570 -7 l 1,1,-1
 511 38 l 1,2,3
 437 -11 437 -11 335 -11 c 0,4,5
 270 -11 270 -11 216 10 c 128,-1,6
 162 31 162 31 122 69.5 c 128,-1,7
 82 108 82 108 60 162.5 c 128,-1,8
 38 217 38 217 38 284 c 0,9,10
 38 350 38 350 60.5 404.5 c 128,-1,11
 83 459 83 459 122.5 498 c 128,-1,12
 162 537 162 537 216.5 558 c 128,-1,13
 271 579 271 579 335 579 c 256,14,15
 399 579 399 579 453.5 557.5 c 128,-1,16
 508 536 508 536 548 497 c 128,-1,17
 588 458 588 458 610 403.5 c 128,-1,18
 632 349 632 349 632 284 c 0,19,20
 632 181 632 181 576 105 c 1,21,-1
 629 63 l 1,0,-1
335 87 m 0,22,23
 388 87 388 87 431 107 c 1,24,-1
 355 164 l 1,25,-1
 414 236 l 1,26,-1
 493 175 l 1,27,28
 520 215 520 215 520 284 c 0,29,30
 520 327 520 327 508 363.5 c 128,-1,31
 496 400 496 400 472.5 425.5 c 128,-1,32
 449 451 449 451 414.5 465.5 c 128,-1,33
 380 480 380 480 335 480 c 0,34,35
 246 480 246 480 199 426.5 c 128,-1,36
 152 373 152 373 152 284 c 0,37,38
 152 194 152 194 198.5 140.5 c 128,-1,39
 245 87 245 87 335 87 c 0,22,23
EndSplineSet
EndChar

StartChar: R.sc
Encoding: 65554 -1 258
Width: 547
Flags: W
LayerCount: 2
Back
Fore
SplineSet
527 0 m 1,0,-1
 418 0 l 1,1,-1
 291 211 l 1,2,-1
 177 211 l 1,3,-1
 177 0 l 1,4,-1
 72 0 l 1,5,-1
 72 567 l 1,6,-1
 286 567 l 2,7,8
 493 567 493 567 493 404 c 0,9,10
 493 342 493 342 466 304 c 128,-1,11
 439 266 439 266 389 238 c 1,12,-1
 527 0 l 1,0,-1
266 482 m 2,13,-1
 177 482 l 1,14,-1
 177 308 l 1,15,-1
 268 308 l 2,16,17
 385 308 385 308 385 396 c 0,18,19
 385 439 385 439 358.5 460.5 c 128,-1,20
 332 482 332 482 266 482 c 2,13,-1
EndSplineSet
EndChar

StartChar: S.sc
Encoding: 65555 -1 259
Width: 514
Flags: W
LayerCount: 2
Back
Fore
SplineSet
248 -11 m 0,0,1
 117 -11 117 -11 49 30 c 1,2,-1
 62 147 l 1,3,4
 129 87 129 87 251 87 c 0,5,6
 366 87 366 87 366 150 c 0,7,8
 366 178 366 178 346.5 196 c 128,-1,9
 327 214 327 214 297.5 226.5 c 128,-1,10
 268 239 268 239 233.5 248.5 c 128,-1,11
 199 258 199 258 169 268 c 2,12,-1
 121 289 l 2,13,14
 86 307 86 307 63 334 c 128,-1,15
 40 361 40 361 40 409 c 0,16,17
 40 437 40 437 51.5 467 c 128,-1,18
 63 497 63 497 88.5 522 c 128,-1,19
 114 547 114 547 155.5 563 c 128,-1,20
 197 579 197 579 258 579 c 0,21,22
 285 579 285 579 313.5 575 c 128,-1,23
 342 571 342 571 367.5 565 c 128,-1,24
 393 559 393 559 414 551 c 128,-1,25
 435 543 435 543 449 535 c 1,26,-1
 439 430 l 1,27,28
 341 481 341 481 263 481 c 0,29,30
 239 481 239 481 218 477.5 c 128,-1,31
 197 474 197 474 181.5 467 c 128,-1,32
 166 460 166 460 156.5 448 c 128,-1,33
 147 436 147 436 147 420 c 0,34,35
 147 393 147 393 162.5 381 c 128,-1,36
 178 369 178 369 208 360 c 128,-1,37
 238 351 238 351 282.5 338.5 c 128,-1,38
 327 326 327 326 385 297 c 0,39,40
 425 280 425 280 453.5 245.5 c 128,-1,41
 482 211 482 211 482 153 c 0,42,43
 482 126 482 126 473 97 c 128,-1,44
 464 68 464 68 438.5 44 c 128,-1,45
 413 20 413 20 367 4.5 c 128,-1,46
 321 -11 321 -11 248 -11 c 0,0,1
EndSplineSet
EndChar

StartChar: T.sc
Encoding: 65556 -1 260
Width: 481
Flags: W
LayerCount: 2
Back
Fore
SplineSet
464 468 m 1,0,-1
 292 468 l 1,1,-1
 292 0 l 1,2,-1
 188 0 l 1,3,-1
 188 468 l 1,4,-1
 17 468 l 1,5,-1
 17 567 l 1,6,-1
 464 567 l 1,7,-1
 464 468 l 1,0,-1
EndSplineSet
EndChar

StartChar: U.sc
Encoding: 65557 -1 261
Width: 631
Flags: W
LayerCount: 2
Back
Fore
SplineSet
66 243 m 2,0,-1
 66 567 l 1,1,-1
 169 567 l 1,2,-1
 169 278 l 2,3,4
 169 233 169 233 176 197.5 c 128,-1,5
 183 162 183 162 200 137.5 c 128,-1,6
 217 113 217 113 245 100 c 128,-1,7
 273 87 273 87 315 87 c 0,8,9
 358 87 358 87 386.5 100 c 128,-1,10
 415 113 415 113 431.5 138 c 128,-1,11
 448 163 448 163 454.5 198 c 128,-1,12
 461 233 461 233 461 278 c 2,13,-1
 461 567 l 1,14,-1
 565 567 l 1,15,-1
 565 243 l 2,16,17
 565 123 565 123 502.5 56 c 128,-1,18
 440 -11 440 -11 315 -11 c 0,19,20
 191 -11 191 -11 128.5 56.5 c 128,-1,21
 66 124 66 124 66 243 c 2,0,-1
EndSplineSet
EndChar

StartChar: V.sc
Encoding: 65558 -1 262
Width: 569
Flags: W
LayerCount: 2
Back
Fore
SplineSet
563 567 m 1,0,-1
 347 0 l 1,1,-1
 224 0 l 1,2,-1
 4 567 l 1,3,-1
 112 567 l 1,4,-1
 285 135 l 1,5,-1
 455 567 l 1,6,-1
 563 567 l 1,0,-1
EndSplineSet
EndChar

StartChar: W.sc
Encoding: 65559 -1 263
Width: 840
Flags: W
LayerCount: 2
Back
Fore
SplineSet
829 567 m 1,0,-1
 653 0 l 1,1,-1
 557 0 l 1,2,-1
 422 382 l 1,3,-1
 284 0 l 1,4,-1
 184 0 l 1,5,-1
 14 567 l 1,6,-1
 123 567 l 1,7,-1
 246 161 l 1,8,-1
 383 567 l 1,9,-1
 459 567 l 1,10,-1
 602 171 l 1,11,-1
 721 567 l 1,12,-1
 829 567 l 1,0,-1
EndSplineSet
EndChar

StartChar: X.sc
Encoding: 65560 -1 264
Width: 549
Flags: W
LayerCount: 2
Back
Fore
SplineSet
542 0 m 1,0,-1
 424 0 l 1,1,-1
 271 209 l 1,2,-1
 126 0 l 1,3,-1
 8 0 l 1,4,-1
 218 283 l 1,5,-1
 16 567 l 1,6,-1
 136 567 l 1,7,-1
 278 367 l 1,8,-1
 415 567 l 1,9,-1
 532 567 l 1,10,-1
 330 294 l 1,11,-1
 542 0 l 1,0,-1
EndSplineSet
EndChar

StartChar: Y.sc
Encoding: 65561 -1 265
Width: 512
Flags: W
LayerCount: 2
Back
Fore
SplineSet
515 567 m 1,0,-1
 308 252 l 1,1,-1
 308 0 l 1,2,-1
 204 0 l 1,3,-1
 204 252 l 1,4,-1
 -4 567 l 1,5,-1
 107 567 l 1,6,-1
 256 343 l 1,7,-1
 405 567 l 1,8,-1
 515 567 l 1,0,-1
EndSplineSet
EndChar

StartChar: Z.sc
Encoding: 65562 -1 266
Width: 486
Flags: W
LayerCount: 2
Back
Fore
SplineSet
473 567 m 1,0,-1
 185 99 l 1,1,-1
 434 99 l 1,2,-1
 434 0 l 1,3,-1
 14 0 l 1,4,-1
 302 468 l 1,5,-1
 53 468 l 1,6,-1
 53 567 l 1,7,-1
 473 567 l 1,0,-1
EndSplineSet
EndChar

StartChar: OE.sc
Encoding: 65563 -1 267
Width: 930
Flags: W
LayerCount: 2
Back
Fore
SplineSet
894 0 m 1,0,-1
 523 0 l 1,1,-1
 523 45 l 1,2,3
 434 -11 434 -11 334 -11 c 0,4,5
 269 -11 269 -11 214.5 10 c 128,-1,6
 160 31 160 31 121 70 c 128,-1,7
 82 109 82 109 60 163.5 c 128,-1,8
 38 218 38 218 38 284 c 256,9,10
 38 350 38 350 60 404 c 128,-1,11
 82 458 82 458 121.5 497 c 128,-1,12
 161 536 161 536 215 557.5 c 128,-1,13
 269 579 269 579 334 579 c 0,14,15
 433 579 433 579 523 522 c 1,16,-1
 523 567 l 1,17,-1
 886 567 l 1,18,-1
 886 468 l 1,19,-1
 628 468 l 1,20,-1
 628 345 l 1,21,-1
 827 345 l 1,22,-1
 827 246 l 1,23,-1
 628 246 l 1,24,-1
 628 99 l 1,25,-1
 894 99 l 1,26,-1
 894 0 l 1,0,-1
334 480 m 0,27,28
 244 480 244 480 197.5 427 c 128,-1,29
 151 374 151 374 151 284 c 256,30,31
 151 194 151 194 197.5 140.5 c 128,-1,32
 244 87 244 87 334 87 c 0,33,34
 422 87 422 87 469 140.5 c 128,-1,35
 516 194 516 194 516 284 c 256,36,37
 516 374 516 374 469 427 c 128,-1,38
 422 480 422 480 334 480 c 0,27,28
EndSplineSet
EndChar

StartChar: L.sc
Encoding: 65564 -1 268
Width: 441
Flags: W
LayerCount: 2
Back
Fore
SplineSet
430 0 m 1,0,-1
 72 0 l 1,1,-1
 72 567 l 1,2,-1
 175 567 l 1,3,-1
 175 99 l 1,4,-1
 430 99 l 1,5,-1
 430 0 l 1,0,-1
EndSplineSet
EndChar
